<svg viewBox="0 0 865 773" fill="none" xmlns="http://www.w3.org/2000/svg">
<g filter="url(#filter0_b_0_1)">
<rect width="864.539" height="772.249" rx="24" fill="#002224" fill-opacity="0.44"/>
<rect x="0.5" y="0.5" width="863.539" height="771.249" rx="23.5" stroke="#232323"/>
</g>
<path d="M48.1558 199.25C46.8358 199.25 45.6892 198.95 44.7158 198.35C43.7558 197.737 43.0092 196.89 42.4758 195.81C41.9558 194.717 41.6958 193.45 41.6958 192.01C41.6958 190.57 41.9558 189.31 42.4758 188.23C43.0092 187.137 43.7558 186.29 44.7158 185.69C45.6892 185.077 46.8358 184.77 48.1558 184.77C49.7425 184.77 51.0292 185.15 52.0158 185.91C53.0025 186.67 53.6358 187.744 53.9158 189.13H52.0958C51.8692 188.264 51.4292 187.57 50.7758 187.05C50.1358 186.517 49.2625 186.25 48.1558 186.25C47.1958 186.25 46.3558 186.484 45.6358 186.95C44.9292 187.404 44.3825 188.064 43.9958 188.93C43.6092 189.784 43.4158 190.81 43.4158 192.01C43.4158 193.21 43.6092 194.244 43.9958 195.11C44.3825 195.964 44.9292 196.624 45.6358 197.09C46.3558 197.544 47.1958 197.77 48.1558 197.77C49.2625 197.77 50.1358 197.517 50.7758 197.01C51.4292 196.49 51.8692 195.804 52.0958 194.95H53.9158C53.6358 196.297 53.0025 197.35 52.0158 198.11C51.0292 198.87 49.7425 199.25 48.1558 199.25ZM60.8355 199.25C59.8622 199.25 59.0022 199.024 58.2555 198.57C57.5088 198.117 56.9288 197.477 56.5155 196.65C56.1022 195.824 55.8955 194.857 55.8955 193.75C55.8955 192.63 56.1022 191.664 56.5155 190.85C56.9422 190.024 57.5288 189.384 58.2755 188.93C59.0355 188.477 59.9022 188.25 60.8755 188.25C61.8622 188.25 62.7222 188.477 63.4555 188.93C64.2022 189.384 64.7822 190.024 65.1955 190.85C65.6088 191.664 65.8155 192.63 65.8155 193.75C65.8155 194.857 65.6022 195.824 65.1755 196.65C64.7622 197.477 64.1822 198.117 63.4355 198.57C62.6888 199.024 61.8222 199.25 60.8355 199.25ZM60.8355 197.81C61.4488 197.81 62.0022 197.664 62.4955 197.37C62.9888 197.064 63.3755 196.61 63.6555 196.01C63.9488 195.397 64.0955 194.644 64.0955 193.75C64.0955 192.844 63.9555 192.09 63.6755 191.49C63.3955 190.89 63.0088 190.444 62.5155 190.15C62.0355 189.844 61.4888 189.69 60.8755 189.69C60.2755 189.69 59.7288 189.844 59.2355 190.15C58.7422 190.444 58.3488 190.89 58.0555 191.49C57.7622 192.09 57.6155 192.844 57.6155 193.75C57.6155 194.644 57.7555 195.397 58.0355 196.01C58.3288 196.61 58.7155 197.064 59.1955 197.37C59.6888 197.664 60.2355 197.81 60.8355 197.81ZM68.2491 199.01V188.49H69.7691L69.8491 190.15C70.1558 189.55 70.5958 189.084 71.1691 188.75C71.7558 188.417 72.4291 188.25 73.1891 188.25C73.9624 188.25 74.6358 188.397 75.2091 188.69C75.7824 188.984 76.2291 189.43 76.5491 190.03C76.8691 190.63 77.0291 191.39 77.0291 192.31V199.01H75.3491V192.49C75.3491 191.557 75.1158 190.857 74.6491 190.39C74.1958 189.924 73.5824 189.69 72.8091 189.69C72.2891 189.69 71.8091 189.817 71.3691 190.07C70.9291 190.31 70.5758 190.67 70.3091 191.15C70.0558 191.63 69.9291 192.217 69.9291 192.91V199.01H68.2491ZM83.8916 199.01C83.2916 199.01 82.7716 198.917 82.3316 198.73C81.8916 198.544 81.5516 198.23 81.3116 197.79C81.0849 197.337 80.9716 196.73 80.9716 195.97V189.91H79.1316V188.49H80.9716L81.1916 185.87H82.6516V188.49H85.6316V189.91H82.6516V195.97C82.6516 196.597 82.7783 197.024 83.0316 197.25C83.2849 197.464 83.7316 197.57 84.3716 197.57H85.5916V199.01H83.8916ZM87.9366 199.01V188.49H89.4566L89.5766 190.41C89.8166 189.93 90.1299 189.53 90.5166 189.21C90.9033 188.89 91.3699 188.65 91.9166 188.49C92.4766 188.33 93.1033 188.25 93.7966 188.25V190.01H92.7566C92.3566 190.01 91.9699 190.064 91.5966 190.17C91.2233 190.277 90.8833 190.45 90.5766 190.69C90.2833 190.93 90.0499 191.257 89.8766 191.67C89.7033 192.084 89.6166 192.604 89.6166 193.23V199.01H87.9366ZM95.8896 199.01V188.49H97.5696V199.01H95.8896ZM96.7296 186.49C96.3962 186.49 96.1162 186.384 95.8896 186.17C95.6762 185.944 95.5696 185.664 95.5696 185.33C95.5696 184.997 95.6762 184.73 95.8896 184.53C96.1162 184.317 96.3962 184.21 96.7296 184.21C97.0496 184.21 97.3229 184.317 97.5496 184.53C97.7762 184.73 97.8896 184.997 97.8896 185.33C97.8896 185.664 97.7762 185.944 97.5496 186.17C97.3229 186.384 97.0496 186.49 96.7296 186.49ZM105.794 199.25C105.154 199.25 104.6 199.157 104.134 198.97C103.68 198.77 103.294 198.524 102.974 198.23C102.667 197.937 102.414 197.65 102.214 197.37L102.074 199.01H100.554V184.61H102.234V190.15C102.554 189.524 103.027 189.05 103.654 188.73C104.28 188.41 104.98 188.25 105.754 188.25C106.714 188.25 107.554 188.484 108.274 188.95C108.994 189.417 109.554 190.064 109.954 190.89C110.354 191.704 110.554 192.644 110.554 193.71C110.554 194.764 110.354 195.71 109.954 196.55C109.554 197.39 108.994 198.05 108.274 198.53C107.567 199.01 106.74 199.25 105.794 199.25ZM105.574 197.79C106.2 197.79 106.754 197.63 107.234 197.31C107.727 196.977 108.114 196.51 108.394 195.91C108.687 195.297 108.834 194.577 108.834 193.75C108.834 192.924 108.687 192.21 108.394 191.61C108.114 190.997 107.727 190.53 107.234 190.21C106.754 189.877 106.2 189.71 105.574 189.71C104.907 189.71 104.327 189.877 103.834 190.21C103.34 190.53 102.96 190.997 102.694 191.61C102.427 192.21 102.294 192.924 102.294 193.75C102.294 194.577 102.427 195.297 102.694 195.91C102.96 196.51 103.34 196.977 103.834 197.31C104.327 197.63 104.907 197.79 105.574 197.79ZM116.775 199.25C116.002 199.25 115.329 199.104 114.755 198.81C114.182 198.517 113.735 198.07 113.415 197.47C113.095 196.857 112.935 196.097 112.935 195.19V188.49H114.615V195.01C114.615 195.944 114.842 196.644 115.295 197.11C115.762 197.577 116.382 197.81 117.155 197.81C117.689 197.81 118.169 197.69 118.595 197.45C119.022 197.197 119.362 196.83 119.615 196.35C119.882 195.87 120.015 195.284 120.015 194.59V188.49H121.695V199.01H120.175L120.075 197.33C119.795 197.944 119.362 198.417 118.775 198.75C118.202 199.084 117.535 199.25 116.775 199.25ZM128.618 199.01C128.018 199.01 127.498 198.917 127.058 198.73C126.618 198.544 126.278 198.23 126.038 197.79C125.811 197.337 125.698 196.73 125.698 195.97V189.91H123.858V188.49H125.698L125.918 185.87H127.378V188.49H130.358V189.91H127.378V195.97C127.378 196.597 127.505 197.024 127.758 197.25C128.011 197.464 128.458 197.57 129.098 197.57H130.318V199.01H128.618ZM136.75 199.25C135.816 199.25 134.99 199.024 134.27 198.57C133.55 198.117 132.983 197.477 132.57 196.65C132.17 195.824 131.97 194.857 131.97 193.75C131.97 192.644 132.17 191.677 132.57 190.85C132.983 190.024 133.55 189.384 134.27 188.93C135.003 188.477 135.843 188.25 136.79 188.25C137.803 188.25 138.65 188.477 139.33 188.93C140.01 189.384 140.523 189.99 140.87 190.75C141.216 191.51 141.39 192.344 141.39 193.25C141.39 193.384 141.39 193.517 141.39 193.65C141.39 193.784 141.383 193.944 141.37 194.13H133.23V192.83H139.75C139.723 191.804 139.423 191.024 138.85 190.49C138.29 189.944 137.59 189.67 136.75 189.67C136.19 189.67 135.67 189.81 135.19 190.09C134.723 190.357 134.343 190.757 134.05 191.29C133.756 191.824 133.61 192.49 133.61 193.29V193.85C133.61 194.73 133.756 195.47 134.05 196.07C134.343 196.657 134.723 197.097 135.19 197.39C135.67 197.684 136.19 197.83 136.75 197.83C137.496 197.83 138.083 197.69 138.51 197.41C138.936 197.117 139.25 196.704 139.45 196.17H141.11C140.95 196.757 140.67 197.284 140.27 197.75C139.883 198.217 139.39 198.584 138.79 198.85C138.203 199.117 137.523 199.25 136.75 199.25ZM153.169 199.01C152.569 199.01 152.049 198.917 151.609 198.73C151.169 198.544 150.829 198.23 150.589 197.79C150.362 197.337 150.249 196.73 150.249 195.97V189.91H148.409V188.49H150.249L150.469 185.87H151.929V188.49H154.909V189.91H151.929V195.97C151.929 196.597 152.056 197.024 152.309 197.25C152.562 197.464 153.009 197.57 153.649 197.57H154.869V199.01H153.169ZM161.461 199.25C160.487 199.25 159.627 199.024 158.881 198.57C158.134 198.117 157.554 197.477 157.141 196.65C156.727 195.824 156.521 194.857 156.521 193.75C156.521 192.63 156.727 191.664 157.141 190.85C157.567 190.024 158.154 189.384 158.901 188.93C159.661 188.477 160.527 188.25 161.501 188.25C162.487 188.25 163.347 188.477 164.081 188.93C164.827 189.384 165.407 190.024 165.821 190.85C166.234 191.664 166.441 192.63 166.441 193.75C166.441 194.857 166.227 195.824 165.801 196.65C165.387 197.477 164.807 198.117 164.061 198.57C163.314 199.024 162.447 199.25 161.461 199.25ZM161.461 197.81C162.074 197.81 162.627 197.664 163.121 197.37C163.614 197.064 164.001 196.61 164.281 196.01C164.574 195.397 164.721 194.644 164.721 193.75C164.721 192.844 164.581 192.09 164.301 191.49C164.021 190.89 163.634 190.444 163.141 190.15C162.661 189.844 162.114 189.69 161.501 189.69C160.901 189.69 160.354 189.844 159.861 190.15C159.367 190.444 158.974 190.89 158.681 191.49C158.387 192.09 158.241 192.844 158.241 193.75C158.241 194.644 158.381 195.397 158.661 196.01C158.954 196.61 159.341 197.064 159.821 197.37C160.314 197.664 160.861 197.81 161.461 197.81ZM177.525 199.25C176.725 199.25 176.059 199.104 175.525 198.81C174.992 198.504 174.592 198.104 174.325 197.61C174.059 197.104 173.925 196.564 173.925 195.99C173.925 195.297 174.099 194.71 174.445 194.23C174.805 193.737 175.305 193.364 175.945 193.11C176.585 192.857 177.332 192.73 178.185 192.73H180.805C180.805 192.05 180.725 191.484 180.565 191.03C180.405 190.577 180.145 190.237 179.785 190.01C179.425 189.784 178.945 189.67 178.345 189.67C177.745 189.67 177.232 189.824 176.805 190.13C176.379 190.424 176.112 190.864 176.005 191.45H174.285C174.365 190.757 174.599 190.177 174.985 189.71C175.372 189.23 175.859 188.87 176.445 188.63C177.045 188.377 177.679 188.25 178.345 188.25C179.292 188.25 180.072 188.424 180.685 188.77C181.299 189.104 181.752 189.577 182.045 190.19C182.339 190.79 182.485 191.504 182.485 192.33V199.01H180.985L180.885 197.21C180.752 197.49 180.579 197.757 180.365 198.01C180.165 198.25 179.925 198.464 179.645 198.65C179.365 198.837 179.045 198.984 178.685 199.09C178.339 199.197 177.952 199.25 177.525 199.25ZM177.765 197.83C178.205 197.83 178.612 197.73 178.985 197.53C179.359 197.33 179.679 197.064 179.945 196.73C180.225 196.384 180.439 195.997 180.585 195.57C180.732 195.144 180.805 194.697 180.805 194.23V194.03H178.325C177.699 194.03 177.185 194.11 176.785 194.27C176.399 194.43 176.119 194.657 175.945 194.95C175.772 195.23 175.685 195.55 175.685 195.91C175.685 196.297 175.765 196.637 175.925 196.93C176.085 197.21 176.319 197.43 176.625 197.59C176.945 197.75 177.325 197.83 177.765 197.83ZM194.752 203.65C193.805 203.65 192.972 203.53 192.252 203.29C191.545 203.064 190.992 202.71 190.592 202.23C190.205 201.75 190.012 201.157 190.012 200.45C190.012 200.117 190.072 199.77 190.192 199.41C190.325 199.05 190.545 198.704 190.852 198.37C191.172 198.037 191.619 197.737 192.192 197.47L193.472 198.15C192.712 198.444 192.219 198.784 191.992 199.17C191.765 199.557 191.652 199.93 191.652 200.29C191.652 200.73 191.779 201.097 192.032 201.39C192.299 201.684 192.665 201.904 193.132 202.05C193.599 202.197 194.139 202.27 194.752 202.27C195.352 202.27 195.865 202.19 196.292 202.03C196.732 201.884 197.065 201.664 197.292 201.37C197.532 201.09 197.652 200.757 197.652 200.37C197.652 199.81 197.472 199.37 197.112 199.05C196.752 198.744 196.052 198.564 195.012 198.51C194.199 198.457 193.519 198.384 192.972 198.29C192.425 198.197 191.972 198.09 191.612 197.97C191.265 197.837 190.972 197.69 190.732 197.53C190.505 197.37 190.299 197.204 190.112 197.03V196.57L192.092 194.67L193.672 195.19L191.512 196.97L191.772 196.21C191.919 196.317 192.059 196.417 192.192 196.51C192.325 196.604 192.505 196.69 192.732 196.77C192.972 196.837 193.299 196.904 193.712 196.97C194.139 197.037 194.699 197.097 195.392 197.15C196.352 197.217 197.119 197.377 197.692 197.63C198.265 197.884 198.679 198.237 198.932 198.69C199.185 199.13 199.312 199.67 199.312 200.31C199.312 200.87 199.152 201.404 198.832 201.91C198.525 202.417 198.032 202.83 197.352 203.15C196.685 203.484 195.819 203.65 194.752 203.65ZM194.732 195.73C193.879 195.73 193.152 195.57 192.552 195.25C191.965 194.917 191.519 194.47 191.212 193.91C190.905 193.337 190.752 192.697 190.752 191.99C190.752 191.284 190.905 190.65 191.212 190.09C191.532 189.53 191.985 189.084 192.572 188.75C193.172 188.417 193.892 188.25 194.732 188.25C195.599 188.25 196.325 188.417 196.912 188.75C197.499 189.084 197.945 189.53 198.252 190.09C198.559 190.65 198.712 191.284 198.712 191.99C198.712 192.697 198.559 193.337 198.252 193.91C197.945 194.47 197.499 194.917 196.912 195.25C196.325 195.57 195.599 195.73 194.732 195.73ZM194.732 194.35C195.479 194.35 196.059 194.157 196.472 193.77C196.885 193.37 197.092 192.777 197.092 191.99C197.092 191.204 196.885 190.617 196.472 190.23C196.059 189.844 195.479 189.65 194.732 189.65C194.025 189.65 193.445 189.844 192.992 190.23C192.552 190.617 192.332 191.204 192.332 191.99C192.332 192.777 192.545 193.37 192.972 193.77C193.412 194.157 193.999 194.35 194.732 194.35ZM196.492 189.91L195.992 188.49H200.112V189.75L196.492 189.91ZM202.136 199.01V188.49H203.656L203.776 190.41C204.016 189.93 204.329 189.53 204.716 189.21C205.102 188.89 205.569 188.65 206.116 188.49C206.676 188.33 207.302 188.25 207.996 188.25V190.01H206.956C206.556 190.01 206.169 190.064 205.796 190.17C205.422 190.277 205.082 190.45 204.776 190.69C204.482 190.93 204.249 191.257 204.076 191.67C203.902 192.084 203.816 192.604 203.816 193.23V199.01H202.136ZM213.918 199.25C212.984 199.25 212.158 199.024 211.438 198.57C210.718 198.117 210.151 197.477 209.738 196.65C209.338 195.824 209.138 194.857 209.138 193.75C209.138 192.644 209.338 191.677 209.738 190.85C210.151 190.024 210.718 189.384 211.438 188.93C212.171 188.477 213.011 188.25 213.958 188.25C214.971 188.25 215.818 188.477 216.498 188.93C217.178 189.384 217.691 189.99 218.038 190.75C218.384 191.51 218.558 192.344 218.558 193.25C218.558 193.384 218.558 193.517 218.558 193.65C218.558 193.784 218.551 193.944 218.538 194.13H210.398V192.83H216.918C216.891 191.804 216.591 191.024 216.018 190.49C215.458 189.944 214.758 189.67 213.918 189.67C213.358 189.67 212.838 189.81 212.358 190.09C211.891 190.357 211.511 190.757 211.218 191.29C210.924 191.824 210.778 192.49 210.778 193.29V193.85C210.778 194.73 210.924 195.47 211.218 196.07C211.511 196.657 211.891 197.097 212.358 197.39C212.838 197.684 213.358 197.83 213.918 197.83C214.664 197.83 215.251 197.69 215.678 197.41C216.104 197.117 216.418 196.704 216.618 196.17H218.278C218.118 196.757 217.838 197.284 217.438 197.75C217.051 198.217 216.558 198.584 215.958 198.85C215.371 199.117 214.691 199.25 213.918 199.25ZM225.246 199.25C224.312 199.25 223.486 199.024 222.766 198.57C222.046 198.117 221.479 197.477 221.066 196.65C220.666 195.824 220.466 194.857 220.466 193.75C220.466 192.644 220.666 191.677 221.066 190.85C221.479 190.024 222.046 189.384 222.766 188.93C223.499 188.477 224.339 188.25 225.286 188.25C226.299 188.25 227.146 188.477 227.826 188.93C228.506 189.384 229.019 189.99 229.366 190.75C229.712 191.51 229.886 192.344 229.886 193.25C229.886 193.384 229.886 193.517 229.886 193.65C229.886 193.784 229.879 193.944 229.866 194.13H221.726V192.83H228.246C228.219 191.804 227.919 191.024 227.346 190.49C226.786 189.944 226.086 189.67 225.246 189.67C224.686 189.67 224.166 189.81 223.686 190.09C223.219 190.357 222.839 190.757 222.546 191.29C222.252 191.824 222.106 192.49 222.106 193.29V193.85C222.106 194.73 222.252 195.47 222.546 196.07C222.839 196.657 223.219 197.097 223.686 197.39C224.166 197.684 224.686 197.83 225.246 197.83C225.992 197.83 226.579 197.69 227.006 197.41C227.432 197.117 227.746 196.704 227.946 196.17H229.606C229.446 196.757 229.166 197.284 228.766 197.75C228.379 198.217 227.886 198.584 227.286 198.85C226.699 199.117 226.019 199.25 225.246 199.25ZM232.214 199.01V188.49H233.734L233.814 190.15C234.121 189.55 234.561 189.084 235.134 188.75C235.721 188.417 236.394 188.25 237.154 188.25C237.927 188.25 238.601 188.397 239.174 188.69C239.747 188.984 240.194 189.43 240.514 190.03C240.834 190.63 240.994 191.39 240.994 192.31V199.01H239.314V192.49C239.314 191.557 239.081 190.857 238.614 190.39C238.161 189.924 237.547 189.69 236.774 189.69C236.254 189.69 235.774 189.817 235.334 190.07C234.894 190.31 234.541 190.67 234.274 191.15C234.021 191.63 233.894 192.217 233.894 192.91V199.01H232.214ZM248.136 199.25C247.203 199.25 246.376 199.024 245.656 198.57C244.936 198.117 244.37 197.477 243.956 196.65C243.556 195.824 243.356 194.857 243.356 193.75C243.356 192.644 243.556 191.677 243.956 190.85C244.37 190.024 244.936 189.384 245.656 188.93C246.39 188.477 247.23 188.25 248.176 188.25C249.19 188.25 250.036 188.477 250.716 188.93C251.396 189.384 251.91 189.99 252.256 190.75C252.603 191.51 252.776 192.344 252.776 193.25C252.776 193.384 252.776 193.517 252.776 193.65C252.776 193.784 252.77 193.944 252.756 194.13H244.616V192.83H251.136C251.11 191.804 250.81 191.024 250.236 190.49C249.676 189.944 248.976 189.67 248.136 189.67C247.576 189.67 247.056 189.81 246.576 190.09C246.11 190.357 245.73 190.757 245.436 191.29C245.143 191.824 244.996 192.49 244.996 193.29V193.85C244.996 194.73 245.143 195.47 245.436 196.07C245.73 196.657 246.11 197.097 246.576 197.39C247.056 197.684 247.576 197.83 248.136 197.83C248.883 197.83 249.47 197.69 249.896 197.41C250.323 197.117 250.636 196.704 250.836 196.17H252.496C252.336 196.757 252.056 197.284 251.656 197.75C251.27 198.217 250.776 198.584 250.176 198.85C249.59 199.117 248.91 199.25 248.136 199.25ZM255.105 199.01V188.49H256.625L256.745 190.41C256.985 189.93 257.298 189.53 257.685 189.21C258.071 188.89 258.538 188.65 259.085 188.49C259.645 188.33 260.271 188.25 260.965 188.25V190.01H259.925C259.525 190.01 259.138 190.064 258.765 190.17C258.391 190.277 258.051 190.45 257.745 190.69C257.451 190.93 257.218 191.257 257.045 191.67C256.871 192.084 256.785 192.604 256.785 193.23V199.01H255.105ZM268.929 199.01V187.37C268.929 186.73 269.035 186.21 269.249 185.81C269.462 185.397 269.775 185.097 270.189 184.91C270.615 184.71 271.135 184.61 271.749 184.61H273.289V186.05H272.029C271.522 186.05 271.155 186.157 270.929 186.37C270.715 186.57 270.609 186.924 270.609 187.43V199.01H268.929ZM267.289 189.91V188.49H273.409V189.91H267.289ZM279.275 199.25C278.502 199.25 277.829 199.104 277.255 198.81C276.682 198.517 276.235 198.07 275.915 197.47C275.595 196.857 275.435 196.097 275.435 195.19V188.49H277.115V195.01C277.115 195.944 277.342 196.644 277.795 197.11C278.262 197.577 278.882 197.81 279.655 197.81C280.189 197.81 280.669 197.69 281.095 197.45C281.522 197.197 281.862 196.83 282.115 196.35C282.382 195.87 282.515 195.284 282.515 194.59V188.49H284.195V199.01H282.675L282.575 197.33C282.295 197.944 281.862 198.417 281.275 198.75C280.702 199.084 280.035 199.25 279.275 199.25ZM291.118 199.01C290.518 199.01 289.998 198.917 289.558 198.73C289.118 198.544 288.778 198.23 288.538 197.79C288.311 197.337 288.198 196.73 288.198 195.97V189.91H286.358V188.49H288.198L288.418 185.87H289.878V188.49H292.858V189.91H289.878V195.97C289.878 196.597 290.005 197.024 290.258 197.25C290.511 197.464 290.958 197.57 291.598 197.57H292.818V199.01H291.118ZM298.943 199.25C298.17 199.25 297.496 199.104 296.923 198.81C296.35 198.517 295.903 198.07 295.583 197.47C295.263 196.857 295.103 196.097 295.103 195.19V188.49H296.783V195.01C296.783 195.944 297.01 196.644 297.463 197.11C297.93 197.577 298.55 197.81 299.323 197.81C299.856 197.81 300.336 197.69 300.763 197.45C301.19 197.197 301.53 196.83 301.783 196.35C302.05 195.87 302.183 195.284 302.183 194.59V188.49H303.863V199.01H302.343L302.243 197.33C301.963 197.944 301.53 198.417 300.943 198.75C300.37 199.084 299.703 199.25 298.943 199.25ZM306.706 199.01V188.49H308.226L308.346 190.41C308.586 189.93 308.899 189.53 309.286 189.21C309.673 188.89 310.139 188.65 310.686 188.49C311.246 188.33 311.873 188.25 312.566 188.25V190.01H311.526C311.126 190.01 310.739 190.064 310.366 190.17C309.993 190.277 309.653 190.45 309.346 190.69C309.053 190.93 308.819 191.257 308.646 191.67C308.473 192.084 308.386 192.604 308.386 193.23V199.01H306.706ZM318.488 199.25C317.555 199.25 316.728 199.024 316.008 198.57C315.288 198.117 314.721 197.477 314.308 196.65C313.908 195.824 313.708 194.857 313.708 193.75C313.708 192.644 313.908 191.677 314.308 190.85C314.721 190.024 315.288 189.384 316.008 188.93C316.741 188.477 317.581 188.25 318.528 188.25C319.541 188.25 320.388 188.477 321.068 188.93C321.748 189.384 322.261 189.99 322.608 190.75C322.955 191.51 323.128 192.344 323.128 193.25C323.128 193.384 323.128 193.517 323.128 193.65C323.128 193.784 323.121 193.944 323.108 194.13H314.968V192.83H321.488C321.461 191.804 321.161 191.024 320.588 190.49C320.028 189.944 319.328 189.67 318.488 189.67C317.928 189.67 317.408 189.81 316.928 190.09C316.461 190.357 316.081 190.757 315.788 191.29C315.495 191.824 315.348 192.49 315.348 193.29V193.85C315.348 194.73 315.495 195.47 315.788 196.07C316.081 196.657 316.461 197.097 316.928 197.39C317.408 197.684 317.928 197.83 318.488 197.83C319.235 197.83 319.821 197.69 320.248 197.41C320.675 197.117 320.988 196.704 321.188 196.17H322.848C322.688 196.757 322.408 197.284 322.008 197.75C321.621 198.217 321.128 198.584 320.528 198.85C319.941 199.117 319.261 199.25 318.488 199.25ZM333.007 199.01L329.907 188.49H331.587L333.887 196.87L336.327 188.49H338.227L340.687 196.85L342.967 188.49H344.667L341.567 199.01H339.847L337.287 190.25L334.727 199.01H333.007ZM346.749 199.01V188.49H348.429V199.01H346.749ZM347.589 186.49C347.256 186.49 346.976 186.384 346.749 186.17C346.536 185.944 346.429 185.664 346.429 185.33C346.429 184.997 346.536 184.73 346.749 184.53C346.976 184.317 347.256 184.21 347.589 184.21C347.909 184.21 348.182 184.317 348.409 184.53C348.636 184.73 348.749 184.997 348.749 185.33C348.749 185.664 348.636 185.944 348.409 186.17C348.182 186.384 347.909 186.49 347.589 186.49ZM355.493 199.01C354.893 199.01 354.373 198.917 353.933 198.73C353.493 198.544 353.153 198.23 352.913 197.79C352.686 197.337 352.573 196.73 352.573 195.97V189.91H350.733V188.49H352.573L352.793 185.87H354.253V188.49H357.233V189.91H354.253V195.97C354.253 196.597 354.38 197.024 354.633 197.25C354.886 197.464 355.333 197.57 355.973 197.57H357.193V199.01H355.493ZM359.538 199.01V184.61H361.218V190.19C361.565 189.59 362.038 189.117 362.638 188.77C363.238 188.424 363.885 188.25 364.578 188.25C365.391 188.25 366.078 188.404 366.638 188.71C367.211 189.004 367.645 189.457 367.938 190.07C368.245 190.684 368.398 191.464 368.398 192.41V199.01H366.738V192.59C366.738 191.63 366.511 190.91 366.058 190.43C365.605 189.937 364.991 189.69 364.218 189.69C363.671 189.69 363.171 189.824 362.718 190.09C362.265 190.344 361.898 190.724 361.618 191.23C361.351 191.737 361.218 192.35 361.218 193.07V199.01H359.538ZM376.55 199.01V188.49H378.07L378.19 190.41C378.43 189.93 378.743 189.53 379.13 189.21C379.517 188.89 379.983 188.65 380.53 188.49C381.09 188.33 381.717 188.25 382.41 188.25V190.01H381.37C380.97 190.01 380.583 190.064 380.21 190.17C379.837 190.277 379.497 190.45 379.19 190.69C378.897 190.93 378.663 191.257 378.49 191.67C378.317 192.084 378.23 192.604 378.23 193.23V199.01H376.55ZM388.332 199.25C387.398 199.25 386.572 199.024 385.852 198.57C385.132 198.117 384.565 197.477 384.152 196.65C383.752 195.824 383.552 194.857 383.552 193.75C383.552 192.644 383.752 191.677 384.152 190.85C384.565 190.024 385.132 189.384 385.852 188.93C386.585 188.477 387.425 188.25 388.372 188.25C389.385 188.25 390.232 188.477 390.912 188.93C391.592 189.384 392.105 189.99 392.452 190.75C392.798 191.51 392.972 192.344 392.972 193.25C392.972 193.384 392.972 193.517 392.972 193.65C392.972 193.784 392.965 193.944 392.952 194.13H384.812V192.83H391.332C391.305 191.804 391.005 191.024 390.432 190.49C389.872 189.944 389.172 189.67 388.332 189.67C387.772 189.67 387.252 189.81 386.772 190.09C386.305 190.357 385.925 190.757 385.632 191.29C385.338 191.824 385.192 192.49 385.192 193.29V193.85C385.192 194.73 385.338 195.47 385.632 196.07C385.925 196.657 386.305 197.097 386.772 197.39C387.252 197.684 387.772 197.83 388.332 197.83C389.078 197.83 389.665 197.69 390.092 197.41C390.518 197.117 390.832 196.704 391.032 196.17H392.692C392.532 196.757 392.252 197.284 391.852 197.75C391.465 198.217 390.972 198.584 390.372 198.85C389.785 199.117 389.105 199.25 388.332 199.25ZM399.64 199.25C398.707 199.25 397.88 199.01 397.16 198.53C396.44 198.05 395.88 197.397 395.48 196.57C395.08 195.73 394.88 194.784 394.88 193.73C394.88 192.664 395.08 191.724 395.48 190.91C395.88 190.084 396.44 189.437 397.16 188.97C397.88 188.49 398.713 188.25 399.66 188.25C400.487 188.25 401.193 188.417 401.78 188.75C402.38 189.084 402.853 189.55 403.2 190.15V184.61H404.88V199.01H403.36L403.22 197.33C403.02 197.664 402.753 197.977 402.42 198.27C402.1 198.564 401.707 198.804 401.24 198.99C400.787 199.164 400.253 199.25 399.64 199.25ZM399.86 197.79C400.527 197.79 401.107 197.63 401.6 197.31C402.093 196.977 402.473 196.51 402.74 195.91C403.007 195.297 403.14 194.577 403.14 193.75C403.14 192.924 403.007 192.21 402.74 191.61C402.473 190.997 402.093 190.53 401.6 190.21C401.107 189.877 400.527 189.71 399.86 189.71C399.233 189.71 398.673 189.877 398.18 190.21C397.687 190.53 397.3 190.997 397.02 191.61C396.74 192.21 396.6 192.924 396.6 193.75C396.6 194.577 396.74 195.297 397.02 195.91C397.3 196.51 397.687 196.977 398.18 197.31C398.673 197.63 399.233 197.79 399.86 197.79ZM411.502 199.25C410.728 199.25 410.055 199.104 409.482 198.81C408.908 198.517 408.462 198.07 408.142 197.47C407.822 196.857 407.662 196.097 407.662 195.19V188.49H409.342V195.01C409.342 195.944 409.568 196.644 410.022 197.11C410.488 197.577 411.108 197.81 411.882 197.81C412.415 197.81 412.895 197.69 413.322 197.45C413.748 197.197 414.088 196.83 414.342 196.35C414.608 195.87 414.742 195.284 414.742 194.59V188.49H416.422V199.01H414.902L414.802 197.33C414.522 197.944 414.088 198.417 413.502 198.75C412.928 199.084 412.262 199.25 411.502 199.25ZM423.805 199.25C422.845 199.25 421.991 199.024 421.245 198.57C420.498 198.104 419.911 197.457 419.485 196.63C419.058 195.804 418.845 194.844 418.845 193.75C418.845 192.644 419.058 191.684 419.485 190.87C419.911 190.044 420.498 189.404 421.245 188.95C421.991 188.484 422.845 188.25 423.805 188.25C425.005 188.25 426.005 188.57 426.805 189.21C427.618 189.85 428.138 190.71 428.365 191.79H426.645C426.498 191.124 426.158 190.61 425.625 190.25C425.105 189.877 424.491 189.69 423.785 189.69C423.171 189.69 422.618 189.844 422.125 190.15C421.645 190.457 421.265 190.91 420.985 191.51C420.705 192.11 420.565 192.857 420.565 193.75C420.565 194.417 420.645 195.01 420.805 195.53C420.965 196.037 421.185 196.464 421.465 196.81C421.758 197.144 422.098 197.397 422.485 197.57C422.885 197.744 423.318 197.83 423.785 197.83C424.265 197.83 424.698 197.75 425.085 197.59C425.485 197.417 425.818 197.17 426.085 196.85C426.365 196.53 426.551 196.15 426.645 195.71H428.365C428.151 196.764 427.631 197.617 426.805 198.27C425.991 198.924 424.991 199.25 423.805 199.25ZM435.168 199.25C434.234 199.25 433.408 199.024 432.688 198.57C431.968 198.117 431.401 197.477 430.988 196.65C430.588 195.824 430.388 194.857 430.388 193.75C430.388 192.644 430.588 191.677 430.988 190.85C431.401 190.024 431.968 189.384 432.688 188.93C433.421 188.477 434.261 188.25 435.208 188.25C436.221 188.25 437.068 188.477 437.748 188.93C438.428 189.384 438.941 189.99 439.288 190.75C439.634 191.51 439.808 192.344 439.808 193.25C439.808 193.384 439.808 193.517 439.808 193.65C439.808 193.784 439.801 193.944 439.788 194.13H431.648V192.83H438.168C438.141 191.804 437.841 191.024 437.268 190.49C436.708 189.944 436.008 189.67 435.168 189.67C434.608 189.67 434.088 189.81 433.608 190.09C433.141 190.357 432.761 190.757 432.468 191.29C432.174 191.824 432.028 192.49 432.028 193.29V193.85C432.028 194.73 432.174 195.47 432.468 196.07C432.761 196.657 433.141 197.097 433.608 197.39C434.088 197.684 434.608 197.83 435.168 197.83C435.914 197.83 436.501 197.69 436.928 197.41C437.354 197.117 437.668 196.704 437.868 196.17H439.528C439.368 196.757 439.088 197.284 438.688 197.75C438.301 198.217 437.808 198.584 437.208 198.85C436.621 199.117 435.941 199.25 435.168 199.25ZM446.476 199.25C445.542 199.25 444.716 199.01 443.996 198.53C443.276 198.05 442.716 197.397 442.316 196.57C441.916 195.73 441.716 194.784 441.716 193.73C441.716 192.664 441.916 191.724 442.316 190.91C442.716 190.084 443.276 189.437 443.996 188.97C444.716 188.49 445.549 188.25 446.496 188.25C447.322 188.25 448.029 188.417 448.616 188.75C449.216 189.084 449.689 189.55 450.036 190.15V184.61H451.716V199.01H450.196L450.056 197.33C449.856 197.664 449.589 197.977 449.256 198.27C448.936 198.564 448.542 198.804 448.076 198.99C447.622 199.164 447.089 199.25 446.476 199.25ZM446.696 197.79C447.362 197.79 447.942 197.63 448.436 197.31C448.929 196.977 449.309 196.51 449.576 195.91C449.842 195.297 449.976 194.577 449.976 193.75C449.976 192.924 449.842 192.21 449.576 191.61C449.309 190.997 448.929 190.53 448.436 190.21C447.942 189.877 447.362 189.71 446.696 189.71C446.069 189.71 445.509 189.877 445.016 190.21C444.522 190.53 444.136 190.997 443.856 191.61C443.576 192.21 443.436 192.924 443.436 193.75C443.436 194.577 443.576 195.297 443.856 195.91C444.136 196.51 444.522 196.977 445.016 197.31C445.509 197.63 446.069 197.79 446.696 197.79ZM464.289 199.25C463.355 199.25 462.529 199.024 461.809 198.57C461.089 198.117 460.522 197.477 460.109 196.65C459.709 195.824 459.509 194.857 459.509 193.75C459.509 192.644 459.709 191.677 460.109 190.85C460.522 190.024 461.089 189.384 461.809 188.93C462.542 188.477 463.382 188.25 464.329 188.25C465.342 188.25 466.189 188.477 466.869 188.93C467.549 189.384 468.062 189.99 468.409 190.75C468.755 191.51 468.929 192.344 468.929 193.25C468.929 193.384 468.929 193.517 468.929 193.65C468.929 193.784 468.922 193.944 468.909 194.13H460.769V192.83H467.289C467.262 191.804 466.962 191.024 466.389 190.49C465.829 189.944 465.129 189.67 464.289 189.67C463.729 189.67 463.209 189.81 462.729 190.09C462.262 190.357 461.882 190.757 461.589 191.29C461.295 191.824 461.149 192.49 461.149 193.29V193.85C461.149 194.73 461.295 195.47 461.589 196.07C461.882 196.657 462.262 197.097 462.729 197.39C463.209 197.684 463.729 197.83 464.289 197.83C465.035 197.83 465.622 197.69 466.049 197.41C466.475 197.117 466.789 196.704 466.989 196.17H468.649C468.489 196.757 468.209 197.284 467.809 197.75C467.422 198.217 466.929 198.584 466.329 198.85C465.742 199.117 465.062 199.25 464.289 199.25ZM471.257 199.01V188.49H472.777L472.857 189.93C473.177 189.41 473.61 189.004 474.157 188.71C474.704 188.404 475.277 188.25 475.877 188.25C476.384 188.25 476.837 188.324 477.237 188.47C477.65 188.604 478.01 188.817 478.317 189.11C478.624 189.39 478.87 189.744 479.057 190.17C479.404 189.544 479.87 189.07 480.457 188.75C481.057 188.417 481.684 188.25 482.337 188.25C483.11 188.25 483.77 188.404 484.317 188.71C484.877 189.004 485.304 189.457 485.597 190.07C485.904 190.67 486.057 191.424 486.057 192.33V199.01H484.397V192.51C484.397 191.564 484.19 190.857 483.777 190.39C483.364 189.924 482.804 189.69 482.097 189.69C481.617 189.69 481.177 189.817 480.777 190.07C480.39 190.324 480.077 190.697 479.837 191.19C479.61 191.684 479.497 192.284 479.497 192.99V199.01H477.817V192.51C477.817 191.564 477.61 190.857 477.197 190.39C476.784 189.924 476.23 189.69 475.537 189.69C475.07 189.69 474.637 189.817 474.237 190.07C473.85 190.324 473.537 190.697 473.297 191.19C473.057 191.684 472.937 192.284 472.937 192.99V199.01H471.257ZM488.995 199.01V188.49H490.675V199.01H488.995ZM489.835 186.49C489.502 186.49 489.222 186.384 488.995 186.17C488.782 185.944 488.675 185.664 488.675 185.33C488.675 184.997 488.782 184.73 488.995 184.53C489.222 184.317 489.502 184.21 489.835 184.21C490.155 184.21 490.428 184.317 490.655 184.53C490.882 184.73 490.995 184.997 490.995 185.33C490.995 185.664 490.882 185.944 490.655 186.17C490.428 186.384 490.155 186.49 489.835 186.49ZM497.459 199.25C496.513 199.25 495.726 199.11 495.099 198.83C494.486 198.537 494.019 198.137 493.699 197.63C493.379 197.11 493.186 196.51 493.119 195.83H494.839C494.893 196.19 495.013 196.524 495.199 196.83C495.399 197.124 495.686 197.364 496.059 197.55C496.433 197.737 496.906 197.83 497.479 197.83C497.933 197.83 498.319 197.764 498.639 197.63C498.959 197.484 499.199 197.284 499.359 197.03C499.533 196.777 499.619 196.484 499.619 196.15C499.619 195.71 499.519 195.37 499.319 195.13C499.133 194.877 498.853 194.69 498.479 194.57C498.119 194.437 497.666 194.337 497.119 194.27C496.533 194.19 496.013 194.077 495.559 193.93C495.106 193.784 494.719 193.59 494.399 193.35C494.093 193.11 493.859 192.81 493.699 192.45C493.539 192.09 493.459 191.664 493.459 191.17C493.459 190.597 493.613 190.09 493.919 189.65C494.226 189.21 494.659 188.87 495.219 188.63C495.793 188.377 496.466 188.25 497.239 188.25C498.373 188.25 499.266 188.51 499.919 189.03C500.586 189.55 500.979 190.29 501.099 191.25H499.439C499.373 190.757 499.146 190.37 498.759 190.09C498.373 189.81 497.859 189.67 497.219 189.67C496.539 189.67 496.026 189.797 495.679 190.05C495.333 190.304 495.159 190.637 495.159 191.05C495.159 191.357 495.233 191.637 495.379 191.89C495.539 192.13 495.806 192.337 496.179 192.51C496.553 192.67 497.053 192.79 497.679 192.87C498.466 192.964 499.133 193.117 499.679 193.33C500.226 193.53 500.639 193.844 500.919 194.27C501.213 194.697 501.353 195.277 501.339 196.01C501.339 196.704 501.173 197.29 500.839 197.77C500.519 198.25 500.066 198.617 499.479 198.87C498.906 199.124 498.233 199.25 497.459 199.25ZM507.635 199.25C506.688 199.25 505.902 199.11 505.275 198.83C504.662 198.537 504.195 198.137 503.875 197.63C503.555 197.11 503.362 196.51 503.295 195.83H505.015C505.068 196.19 505.188 196.524 505.375 196.83C505.575 197.124 505.862 197.364 506.235 197.55C506.608 197.737 507.082 197.83 507.655 197.83C508.108 197.83 508.495 197.764 508.815 197.63C509.135 197.484 509.375 197.284 509.535 197.03C509.708 196.777 509.795 196.484 509.795 196.15C509.795 195.71 509.695 195.37 509.495 195.13C509.308 194.877 509.028 194.69 508.655 194.57C508.295 194.437 507.842 194.337 507.295 194.27C506.708 194.19 506.188 194.077 505.735 193.93C505.282 193.784 504.895 193.59 504.575 193.35C504.268 193.11 504.035 192.81 503.875 192.45C503.715 192.09 503.635 191.664 503.635 191.17C503.635 190.597 503.788 190.09 504.095 189.65C504.402 189.21 504.835 188.87 505.395 188.63C505.968 188.377 506.642 188.25 507.415 188.25C508.548 188.25 509.442 188.51 510.095 189.03C510.762 189.55 511.155 190.29 511.275 191.25H509.615C509.548 190.757 509.322 190.37 508.935 190.09C508.548 189.81 508.035 189.67 507.395 189.67C506.715 189.67 506.202 189.797 505.855 190.05C505.508 190.304 505.335 190.637 505.335 191.05C505.335 191.357 505.408 191.637 505.555 191.89C505.715 192.13 505.982 192.337 506.355 192.51C506.728 192.67 507.228 192.79 507.855 192.87C508.642 192.964 509.308 193.117 509.855 193.33C510.402 193.53 510.815 193.844 511.095 194.27C511.388 194.697 511.528 195.277 511.515 196.01C511.515 196.704 511.348 197.29 511.015 197.77C510.695 198.25 510.242 198.617 509.655 198.87C509.082 199.124 508.408 199.25 507.635 199.25ZM514.171 199.01V188.49H515.851V199.01H514.171ZM515.011 186.49C514.677 186.49 514.397 186.384 514.171 186.17C513.957 185.944 513.851 185.664 513.851 185.33C513.851 184.997 513.957 184.73 514.171 184.53C514.397 184.317 514.677 184.21 515.011 184.21C515.331 184.21 515.604 184.317 515.831 184.53C516.057 184.73 516.171 184.997 516.171 185.33C516.171 185.664 516.057 185.944 515.831 186.17C515.604 186.384 515.331 186.49 515.011 186.49ZM523.355 199.25C522.382 199.25 521.522 199.024 520.775 198.57C520.028 198.117 519.448 197.477 519.035 196.65C518.622 195.824 518.415 194.857 518.415 193.75C518.415 192.63 518.622 191.664 519.035 190.85C519.462 190.024 520.048 189.384 520.795 188.93C521.555 188.477 522.422 188.25 523.395 188.25C524.382 188.25 525.242 188.477 525.975 188.93C526.722 189.384 527.302 190.024 527.715 190.85C528.128 191.664 528.335 192.63 528.335 193.75C528.335 194.857 528.122 195.824 527.695 196.65C527.282 197.477 526.702 198.117 525.955 198.57C525.208 199.024 524.342 199.25 523.355 199.25ZM523.355 197.81C523.968 197.81 524.522 197.664 525.015 197.37C525.508 197.064 525.895 196.61 526.175 196.01C526.468 195.397 526.615 194.644 526.615 193.75C526.615 192.844 526.475 192.09 526.195 191.49C525.915 190.89 525.528 190.444 525.035 190.15C524.555 189.844 524.008 189.69 523.395 189.69C522.795 189.69 522.248 189.844 521.755 190.15C521.262 190.444 520.868 190.89 520.575 191.49C520.282 192.09 520.135 192.844 520.135 193.75C520.135 194.644 520.275 195.397 520.555 196.01C520.848 196.61 521.235 197.064 521.715 197.37C522.208 197.664 522.755 197.81 523.355 197.81ZM530.769 199.01V188.49H532.289L532.369 190.15C532.675 189.55 533.115 189.084 533.689 188.75C534.275 188.417 534.949 188.25 535.709 188.25C536.482 188.25 537.155 188.397 537.729 188.69C538.302 188.984 538.749 189.43 539.069 190.03C539.389 190.63 539.549 191.39 539.549 192.31V199.01H537.869V192.49C537.869 191.557 537.635 190.857 537.169 190.39C536.715 189.924 536.102 189.69 535.329 189.69C534.809 189.69 534.329 189.817 533.889 190.07C533.449 190.31 533.095 190.67 532.829 191.15C532.575 191.63 532.449 192.217 532.449 192.91V199.01H530.769ZM546.131 199.25C545.184 199.25 544.398 199.11 543.771 198.83C543.158 198.537 542.691 198.137 542.371 197.63C542.051 197.11 541.858 196.51 541.791 195.83H543.511C543.564 196.19 543.684 196.524 543.871 196.83C544.071 197.124 544.358 197.364 544.731 197.55C545.104 197.737 545.578 197.83 546.151 197.83C546.604 197.83 546.991 197.764 547.311 197.63C547.631 197.484 547.871 197.284 548.031 197.03C548.204 196.777 548.291 196.484 548.291 196.15C548.291 195.71 548.191 195.37 547.991 195.13C547.804 194.877 547.524 194.69 547.151 194.57C546.791 194.437 546.338 194.337 545.791 194.27C545.204 194.19 544.684 194.077 544.231 193.93C543.778 193.784 543.391 193.59 543.071 193.35C542.764 193.11 542.531 192.81 542.371 192.45C542.211 192.09 542.131 191.664 542.131 191.17C542.131 190.597 542.284 190.09 542.591 189.65C542.898 189.21 543.331 188.87 543.891 188.63C544.464 188.377 545.138 188.25 545.911 188.25C547.044 188.25 547.938 188.51 548.591 189.03C549.258 189.55 549.651 190.29 549.771 191.25H548.111C548.044 190.757 547.818 190.37 547.431 190.09C547.044 189.81 546.531 189.67 545.891 189.67C545.211 189.67 544.698 189.797 544.351 190.05C544.004 190.304 543.831 190.637 543.831 191.05C543.831 191.357 543.904 191.637 544.051 191.89C544.211 192.13 544.478 192.337 544.851 192.51C545.224 192.67 545.724 192.79 546.351 192.87C547.138 192.964 547.804 193.117 548.351 193.33C548.898 193.53 549.311 193.844 549.591 194.27C549.884 194.697 550.024 195.277 550.011 196.01C550.011 196.704 549.844 197.29 549.511 197.77C549.191 198.25 548.738 198.617 548.151 198.87C547.578 199.124 546.904 199.25 546.131 199.25ZM553.167 199.11C552.847 199.11 552.574 199.004 552.347 198.79C552.134 198.564 552.027 198.29 552.027 197.97C552.027 197.65 552.134 197.384 552.347 197.17C552.574 196.944 552.847 196.83 553.167 196.83C553.514 196.83 553.787 196.944 553.987 197.17C554.2 197.384 554.307 197.65 554.307 197.97C554.307 198.29 554.2 198.564 553.987 198.79C553.787 199.004 553.514 199.11 553.167 199.11Z" fill="url(#paint0_linear_0_1)"/>
<path d="M71.2158 100.389C71.7825 100.389 72.2658 100.589 72.6658 100.989C73.0992 101.389 73.3158 101.872 73.3158 102.439C73.2492 103.039 73.0492 103.505 72.7158 103.839C72.2492 104.239 71.7658 104.439 71.2658 104.439H49.9158C48.8825 104.439 47.9158 104.239 47.0158 103.839C46.1158 103.439 45.3325 102.905 44.6658 102.239C43.9992 101.572 43.4658 100.789 43.0658 99.8886C42.6658 98.9552 42.4658 97.9719 42.4658 96.9386C42.4658 95.9052 42.6658 94.9386 43.0658 94.0386C43.4658 93.1386 43.9992 92.3552 44.6658 91.6886C45.3325 90.9886 46.1158 90.4552 47.0158 90.0886C47.9158 89.6886 48.8825 89.4886 49.9158 89.4886H65.2158C65.7825 89.4886 66.2658 89.6886 66.6658 90.0886C67.0992 90.4886 67.3158 90.9719 67.3158 91.5386C67.2492 92.1386 67.0492 92.6052 66.7158 92.9386C66.2492 93.3386 65.7658 93.5386 65.2658 93.5386H49.9158C48.9825 93.5386 48.1825 93.8719 47.5158 94.5386C46.8492 95.1719 46.5158 95.9719 46.5158 96.9386C46.5158 97.9052 46.8492 98.7219 47.5158 99.3886C48.1825 100.055 48.9825 100.389 49.9158 100.389H71.2158ZM44.4658 82.6386C43.8992 82.6386 43.4158 82.4386 43.0158 82.0386C42.6492 81.6386 42.4658 81.1552 42.4658 80.5886C42.4658 80.0219 42.6492 79.5552 43.0158 79.1886C43.4158 78.7886 43.8992 78.5886 44.4658 78.5886H71.2658C71.8325 78.5886 72.3158 78.7886 72.7158 79.1886C73.1158 79.5552 73.3158 80.0219 73.3158 80.5886C73.3158 81.1552 73.1158 81.6386 72.7158 82.0386C72.3158 82.4386 71.8325 82.6386 71.2658 82.6386H44.4658ZM105.292 100.389C105.859 100.389 106.325 100.589 106.692 100.989C107.092 101.355 107.292 101.822 107.292 102.389C107.292 102.955 107.092 103.439 106.692 103.839C106.325 104.239 105.859 104.439 105.292 104.439H84.942C83.8087 104.439 82.742 104.222 81.742 103.789C80.7753 103.355 79.9253 102.772 79.192 102.039C78.4587 101.305 77.8753 100.455 77.442 99.4886C77.0087 98.4886 76.792 97.4219 76.792 96.2886V86.7386C76.792 85.6052 77.0087 84.5552 77.442 83.5886C77.8753 82.5886 78.4587 81.7219 79.192 80.9886C79.9253 80.2552 80.7753 79.6719 81.742 79.2386C82.742 78.8052 83.8087 78.5886 84.942 78.5886H105.292C105.859 78.5886 106.325 78.7886 106.692 79.1886C107.092 79.5552 107.292 80.0219 107.292 80.5886C107.292 81.1552 107.092 81.6386 106.692 82.0386C106.325 82.4386 105.859 82.6386 105.292 82.6386H85.342C84.0753 82.6386 83.0087 83.0719 82.142 83.9386C81.2753 84.8052 80.842 85.8719 80.842 87.1386V95.8886C80.842 97.1219 81.2753 98.1886 82.142 99.0886C83.0087 99.9552 84.0753 100.389 85.342 100.389H105.292ZM110.776 83.2886C110.776 82.6219 110.893 82.0052 111.126 81.4386C111.393 80.8719 111.726 80.3886 112.126 79.9886C112.56 79.5552 113.06 79.2219 113.626 78.9886C114.226 78.7219 114.843 78.5886 115.476 78.5886H139.876C140.543 78.5886 141.16 78.7219 141.726 78.9886C142.293 79.2219 142.793 79.5552 143.226 79.9886C143.66 80.3886 143.993 80.8719 144.226 81.4386C144.493 82.0052 144.626 82.6219 144.626 83.2886V99.6886C144.626 100.322 144.493 100.939 144.226 101.539C143.993 102.105 143.66 102.605 143.226 103.039C142.793 103.472 142.293 103.822 141.726 104.089C141.16 104.322 140.543 104.439 139.876 104.439H115.476C114.843 104.439 114.226 104.322 113.626 104.089C113.06 103.822 112.56 103.472 112.126 103.039C111.726 102.605 111.393 102.105 111.126 101.539C110.893 100.939 110.776 100.322 110.776 99.6886V83.2886ZM139.476 100.389C139.776 100.389 140.026 100.289 140.226 100.089C140.46 99.8552 140.576 99.5886 140.576 99.2886V83.6886C140.576 83.3886 140.46 83.1386 140.226 82.9386C140.026 82.7386 139.776 82.6386 139.476 82.6386H115.876C115.576 82.6386 115.326 82.7386 115.126 82.9386C114.926 83.1386 114.826 83.3886 114.826 83.6886V99.2886C114.826 99.5886 114.926 99.8552 115.126 100.089C115.326 100.289 115.576 100.389 115.876 100.389H139.476ZM172.08 89.4886C172.647 89.4886 173.13 89.6886 173.53 90.0886C173.93 90.4552 174.13 90.9219 174.13 91.4886C174.13 92.0552 173.93 92.5386 173.53 92.9386C173.13 93.3386 172.647 93.5386 172.08 93.5386H150.13C149.563 93.5386 149.08 93.3386 148.68 92.9386C148.313 92.5386 148.13 92.0552 148.13 91.4886C148.13 90.9219 148.313 90.4552 148.68 90.0886C149.08 89.6886 149.563 89.4886 150.13 89.4886H172.08ZM206.422 78.5886C206.989 78.5886 207.472 78.7886 207.872 79.1886C208.272 79.5552 208.472 80.0219 208.472 80.5886C208.472 81.1552 208.272 81.6386 207.872 82.0386C207.472 82.4386 206.989 82.6386 206.422 82.6386H179.622C179.055 82.6386 178.572 82.4386 178.172 82.0386C177.805 81.6386 177.622 81.1552 177.622 80.5886C177.622 80.0219 177.805 79.5552 178.172 79.1886C178.572 78.7886 179.055 78.5886 179.622 78.5886H206.422ZM200.372 89.4886C200.939 89.4886 201.422 89.6886 201.822 90.0886C202.255 90.4886 202.472 90.9719 202.472 91.5386C202.405 92.1386 202.205 92.6052 201.872 92.9386C201.405 93.3386 200.922 93.5386 200.422 93.5386H183.722C183.155 93.5386 182.672 93.7386 182.272 94.1386C181.872 94.5386 181.672 95.0219 181.672 95.5886V102.389C181.672 102.955 181.472 103.439 181.072 103.839C180.672 104.239 180.189 104.439 179.622 104.439C179.055 104.439 178.572 104.239 178.172 103.839C177.805 103.439 177.622 102.955 177.622 102.389V93.7886C177.622 92.5886 178.039 91.5719 178.872 90.7386C179.705 89.9052 180.722 89.4886 181.922 89.4886H200.372ZM240.798 104.439C240.565 104.439 240.332 104.405 240.098 104.339C239.865 104.239 239.665 104.122 239.498 103.989L227.498 94.1886C227.232 93.9552 226.932 93.7886 226.598 93.6886C226.298 93.5886 225.965 93.5386 225.598 93.5386H218.098C217.532 93.5386 217.048 93.7386 216.648 94.1386C216.248 94.5386 216.048 95.0219 216.048 95.5886V102.389C216.048 102.955 215.848 103.439 215.448 103.839C215.048 104.239 214.565 104.439 213.998 104.439C213.465 104.439 212.998 104.239 212.598 103.839C212.198 103.372 211.998 102.889 211.998 102.389V93.7886C211.998 92.5886 212.415 91.5719 213.248 90.7386C214.082 89.9052 215.098 89.4886 216.298 89.4886H235.248C236.148 89.4886 236.948 89.1886 237.648 88.5886C238.348 87.9886 238.732 87.2219 238.798 86.2886C238.832 85.7552 238.748 85.2719 238.548 84.8386C238.382 84.3719 238.132 83.9719 237.798 83.6386C237.098 82.9386 236.282 82.5886 235.348 82.5886H214.098C213.532 82.5886 213.032 82.3886 212.598 81.9886C212.165 81.5886 211.965 81.1052 211.998 80.5386C211.998 80.0386 212.198 79.5886 212.598 79.1886C212.965 78.7886 213.432 78.5886 213.998 78.5886H235.348C236.382 78.5886 237.348 78.7886 238.248 79.1886C239.182 79.5552 239.982 80.0886 240.648 80.7886C241.315 81.4552 241.848 82.2386 242.248 83.1386C242.648 84.0386 242.848 85.0052 242.848 86.0386C242.848 87.0719 242.648 88.0552 242.248 88.9886C241.848 89.8886 241.315 90.6719 240.648 91.3386C239.982 92.0052 239.198 92.5386 238.298 92.9386C237.398 93.3386 236.415 93.5386 235.348 93.5386H233.098L242.098 100.789C242.465 101.089 242.682 101.455 242.748 101.889C242.848 102.322 242.832 102.722 242.698 103.089C242.565 103.455 242.332 103.772 241.998 104.039C241.665 104.305 241.265 104.439 240.798 104.439ZM246.372 102.389V80.5886C246.372 80.0219 246.555 79.5552 246.922 79.1886C247.322 78.7886 247.805 78.5886 248.372 78.5886C248.939 78.5886 249.422 78.7886 249.822 79.1886C250.222 79.5552 250.422 80.0219 250.422 80.5886V102.389C250.422 102.955 250.222 103.439 249.822 103.839C249.422 104.239 248.939 104.439 248.372 104.439C247.805 104.439 247.322 104.239 246.922 103.839C246.555 103.439 246.372 102.955 246.372 102.389ZM282.69 100.389C283.257 100.389 283.74 100.589 284.14 100.989C284.574 101.389 284.79 101.872 284.79 102.439C284.724 103.039 284.524 103.505 284.19 103.839C283.724 104.239 283.24 104.439 282.74 104.439H261.39C260.357 104.439 259.39 104.239 258.49 103.839C257.59 103.439 256.807 102.905 256.14 102.239C255.474 101.572 254.94 100.789 254.54 99.8886C254.14 98.9552 253.94 97.9719 253.94 96.9386C253.94 95.9052 254.14 94.9386 254.54 94.0386C254.94 93.1386 255.474 92.3552 256.14 91.6886C256.807 90.9886 257.59 90.4552 258.49 90.0886C259.39 89.6886 260.357 89.4886 261.39 89.4886H276.69C277.257 89.4886 277.74 89.6886 278.14 90.0886C278.574 90.4886 278.79 90.9719 278.79 91.5386C278.724 92.1386 278.524 92.6052 278.19 92.9386C277.724 93.3386 277.24 93.5386 276.74 93.5386H261.39C260.457 93.5386 259.657 93.8719 258.99 94.5386C258.324 95.1719 257.99 95.9719 257.99 96.9386C257.99 97.9052 258.324 98.7219 258.99 99.3886C259.657 100.055 260.457 100.389 261.39 100.389H282.69ZM255.94 82.6386C255.374 82.6386 254.89 82.4386 254.49 82.0386C254.124 81.6386 253.94 81.1552 253.94 80.5886C253.94 80.0219 254.124 79.5552 254.49 79.1886C254.89 78.7886 255.374 78.5886 255.94 78.5886H282.74C283.307 78.5886 283.79 78.7886 284.19 79.1886C284.59 79.5552 284.79 80.0219 284.79 80.5886C284.79 81.1552 284.59 81.6386 284.19 82.0386C283.79 82.4386 283.307 82.6386 282.74 82.6386H255.94ZM322.117 80.5886V102.139C322.117 102.772 321.883 103.322 321.417 103.789C320.983 104.222 320.45 104.439 319.817 104.439H315.417C314.517 104.439 313.75 104.089 313.117 103.389L295.517 83.2386C295.117 82.8386 294.65 82.6386 294.117 82.6386H293.067C292.867 82.6386 292.683 82.7052 292.517 82.8386C292.383 82.9719 292.317 83.1552 292.317 83.3886V102.389C292.317 102.955 292.117 103.439 291.717 103.839C291.317 104.239 290.833 104.439 290.267 104.439C289.7 104.439 289.217 104.239 288.817 103.839C288.45 103.439 288.267 102.955 288.267 102.389V80.8386C288.267 80.2052 288.483 79.6719 288.917 79.2386C289.35 78.8052 289.9 78.5886 290.567 78.5886H294.967C295.9 78.5886 296.667 78.9219 297.267 79.5886L314.867 99.7386C315.233 100.172 315.7 100.389 316.267 100.389H317.317C317.517 100.389 317.683 100.322 317.817 100.189C317.983 100.022 318.067 99.8386 318.067 99.6386V80.5886C318.067 80.0219 318.25 79.5552 318.617 79.1886C319.017 78.7886 319.5 78.5886 320.067 78.5886C320.633 78.5886 321.117 78.7886 321.517 79.1886C321.917 79.5552 322.117 80.0219 322.117 80.5886ZM359.17 91.4886C359.17 93.2886 358.82 94.9719 358.12 96.5386C357.453 98.1052 356.537 99.4719 355.37 100.639C354.203 101.805 352.837 102.739 351.27 103.439C349.703 104.105 348.02 104.439 346.22 104.439H334.87C334.303 104.439 333.82 104.239 333.42 103.839C333.053 103.439 332.87 102.955 332.87 102.389C332.87 101.822 333.053 101.355 333.42 100.989C333.82 100.589 334.303 100.389 334.87 100.389H346.22C347.453 100.389 348.603 100.155 349.67 99.6886C350.77 99.2219 351.72 98.5886 352.52 97.7886C353.32 96.9886 353.953 96.0552 354.42 94.9886C354.887 93.8886 355.12 92.7219 355.12 91.4886C355.12 90.2552 354.887 89.1052 354.42 88.0386C353.953 86.9719 353.32 86.0386 352.52 85.2386C351.72 84.4386 350.77 83.8052 349.67 83.3386C348.603 82.8719 347.453 82.6386 346.22 82.6386H332.07C331.403 82.6386 330.837 82.8719 330.37 83.3386C329.903 83.8052 329.67 84.3719 329.67 85.0386V102.389C329.67 102.955 329.47 103.439 329.07 103.839C328.67 104.239 328.187 104.439 327.62 104.439C327.053 104.439 326.57 104.239 326.17 103.839C325.803 103.439 325.62 102.955 325.62 102.389V83.4386C325.62 82.7719 325.737 82.1386 325.97 81.5386C326.237 80.9386 326.587 80.4219 327.02 79.9886C327.487 79.5552 328.003 79.2219 328.57 78.9886C329.17 78.7219 329.803 78.5886 330.47 78.5886H346.22C348.02 78.5886 349.703 78.9219 351.27 79.5886C352.837 80.2552 354.203 81.1719 355.37 82.3386C356.537 83.5052 357.453 84.8719 358.12 86.4386C358.82 88.0052 359.17 89.6886 359.17 91.4886ZM390.581 100.389C391.147 100.389 391.631 100.589 392.031 100.989C392.431 101.389 392.631 101.872 392.631 102.439C392.597 103.005 392.381 103.489 391.981 103.889C391.581 104.255 391.097 104.439 390.531 104.439H367.381C366.747 104.439 366.131 104.322 365.531 104.089C364.964 103.822 364.464 103.472 364.031 103.039C363.631 102.605 363.297 102.105 363.031 101.539C362.797 100.939 362.681 100.322 362.681 99.6886V80.5886C362.681 80.0219 362.864 79.5552 363.231 79.1886C363.631 78.7886 364.114 78.5886 364.681 78.5886C365.247 78.5886 365.731 78.7886 366.131 79.1886C366.531 79.5552 366.731 80.0219 366.731 80.5886V99.2886C366.731 99.5886 366.831 99.8552 367.031 100.089C367.231 100.289 367.481 100.389 367.781 100.389H390.581ZM423.484 80.5886V88.7886C423.484 89.4219 423.35 90.0386 423.084 90.6386C422.85 91.2052 422.517 91.7052 422.084 92.1386C421.65 92.5719 421.15 92.9219 420.584 93.1886C420.017 93.4219 419.4 93.5386 418.734 93.5386H408.584V102.389C408.584 102.955 408.384 103.439 407.984 103.839C407.584 104.239 407.1 104.439 406.534 104.439C405.967 104.439 405.484 104.239 405.084 103.839C404.717 103.439 404.534 102.955 404.534 102.389V93.5386H394.334C393.7 93.5386 393.084 93.4219 392.484 93.1886C391.917 92.9219 391.417 92.5719 390.984 92.1386C390.584 91.7052 390.25 91.2052 389.984 90.6386C389.75 90.0386 389.634 89.4219 389.634 88.7886V80.5886C389.634 80.0552 389.834 79.5886 390.234 79.1886C390.634 78.7886 391.084 78.5886 391.584 78.5886C392.15 78.5552 392.634 78.7552 393.034 79.1886C393.467 79.6219 393.684 80.1219 393.684 80.6886V88.3886C393.684 88.6886 393.784 88.9552 393.984 89.1886C394.184 89.3886 394.434 89.4886 394.734 89.4886H418.334C418.634 89.4886 418.884 89.3886 419.084 89.1886C419.317 88.9552 419.434 88.6886 419.434 88.3886V80.5886C419.434 80.0219 419.617 79.5552 419.984 79.1886C420.384 78.7886 420.867 78.5886 421.434 78.5886C422 78.5886 422.484 78.7886 422.884 79.1886C423.284 79.5552 423.484 80.0219 423.484 80.5886ZM42.4658 157.389V135.589C42.4658 135.022 42.6492 134.555 43.0158 134.189C43.4158 133.789 43.8992 133.589 44.4658 133.589C45.0325 133.589 45.5158 133.789 45.9158 134.189C46.3158 134.555 46.5158 135.022 46.5158 135.589V157.389C46.5158 157.955 46.3158 158.439 45.9158 158.839C45.5158 159.239 45.0325 159.439 44.4658 159.439C43.8992 159.439 43.4158 159.239 43.0158 158.839C42.6492 158.439 42.4658 157.955 42.4658 157.389ZM86.2842 135.839V157.389C86.2842 157.955 86.0842 158.439 85.6842 158.839C85.2842 159.239 84.8008 159.439 84.2342 159.439C83.6675 159.439 83.1842 159.239 82.7842 158.839C82.4175 158.439 82.2342 157.955 82.2342 157.389V138.289C82.2342 137.855 82.0008 137.639 81.5342 137.639H80.9342C80.6675 137.639 80.4508 137.755 80.2842 137.989L71.0342 157.589C70.7675 158.155 70.3675 158.605 69.8342 158.939C69.3342 159.272 68.7675 159.439 68.1342 159.439C67.5008 159.439 66.9175 159.272 66.3842 158.939C65.8842 158.605 65.5008 158.155 65.2342 157.589L55.9842 137.989C55.8842 137.755 55.6842 137.639 55.3842 137.639H54.7842C54.3175 137.639 54.0842 137.855 54.0842 138.289V157.389C54.0842 157.955 53.8842 158.439 53.4842 158.839C53.0842 159.239 52.6008 159.439 52.0342 159.439C51.4675 159.439 50.9842 159.239 50.5842 158.839C50.2175 158.439 50.0342 157.955 50.0342 157.389V135.839C50.0342 135.205 50.2508 134.672 50.6842 134.239C51.1175 133.805 51.6508 133.589 52.2842 133.589H56.8342C57.7675 133.589 58.4508 134.022 58.8842 134.889L68.1342 154.239L77.4342 134.839C77.6008 134.472 77.8675 134.172 78.2342 133.939C78.6008 133.705 79.0008 133.589 79.4342 133.589H83.9842C84.6175 133.589 85.1508 133.805 85.5842 134.239C86.0508 134.672 86.2842 135.205 86.2842 135.839ZM120.68 141.039C120.68 142.072 120.48 143.055 120.08 143.989C119.68 144.889 119.147 145.672 118.48 146.339C117.814 147.005 117.03 147.539 116.13 147.939C115.23 148.339 114.247 148.539 113.18 148.539H95.9303C95.3636 148.539 94.8803 148.739 94.4803 149.139C94.0803 149.539 93.8803 150.022 93.8803 150.589V157.389C93.8803 157.955 93.6803 158.439 93.2803 158.839C92.8803 159.239 92.3969 159.439 91.8303 159.439C91.2636 159.439 90.7803 159.239 90.3803 158.839C90.0136 158.439 89.8303 157.955 89.8303 157.389V148.789C89.8303 147.589 90.2469 146.572 91.0803 145.739C91.9136 144.905 92.9303 144.489 94.1303 144.489H113.08C113.98 144.489 114.78 144.189 115.48 143.589C116.18 142.955 116.564 142.189 116.63 141.289C116.664 140.755 116.58 140.272 116.38 139.839C116.214 139.372 115.964 138.972 115.63 138.639C114.93 137.939 114.114 137.589 113.18 137.589H91.9303C91.3636 137.589 90.8636 137.389 90.4303 136.989C89.9969 136.589 89.7969 136.105 89.8303 135.539C89.8303 135.039 90.0303 134.589 90.4303 134.189C90.7969 133.789 91.2636 133.589 91.8303 133.589H113.18C114.214 133.589 115.18 133.789 116.08 134.189C117.014 134.555 117.814 135.089 118.48 135.789C119.147 136.455 119.68 137.239 120.08 138.139C120.48 139.039 120.68 140.005 120.68 141.039ZM153.81 159.439C153.143 159.439 152.61 159.155 152.21 158.589L137.51 137.989C137.343 137.722 137.093 137.589 136.76 137.589C136.46 137.589 136.227 137.722 136.06 137.989L121.36 158.589C120.96 159.155 120.41 159.439 119.71 159.439C119.31 159.439 118.96 159.339 118.66 159.139C118.36 158.939 118.127 158.689 117.96 158.389C117.793 158.055 117.71 157.705 117.71 157.339C117.71 156.939 117.827 156.572 118.06 156.239L133.31 134.789C133.91 133.989 134.693 133.589 135.66 133.589H137.91C138.877 133.589 139.66 133.989 140.26 134.789L155.46 156.239C155.693 156.572 155.81 156.939 155.81 157.339C155.843 157.705 155.777 158.055 155.61 158.389C155.443 158.689 155.193 158.939 154.86 159.139C154.56 159.339 154.21 159.439 153.81 159.439ZM186.347 155.389C186.913 155.389 187.38 155.589 187.747 155.989C188.147 156.355 188.347 156.822 188.347 157.389C188.347 157.955 188.147 158.439 187.747 158.839C187.38 159.239 186.913 159.439 186.347 159.439H165.997C164.863 159.439 163.797 159.222 162.797 158.789C161.83 158.355 160.98 157.772 160.247 157.039C159.513 156.305 158.93 155.455 158.497 154.489C158.063 153.489 157.847 152.422 157.847 151.289V141.739C157.847 140.605 158.063 139.555 158.497 138.589C158.93 137.589 159.513 136.722 160.247 135.989C160.98 135.255 161.83 134.672 162.797 134.239C163.797 133.805 164.863 133.589 165.997 133.589H186.347C186.913 133.589 187.38 133.789 187.747 134.189C188.147 134.555 188.347 135.022 188.347 135.589C188.347 136.155 188.147 136.639 187.747 137.039C187.38 137.439 186.913 137.639 186.347 137.639H166.397C165.13 137.639 164.063 138.072 163.197 138.939C162.33 139.805 161.897 140.872 161.897 142.139V150.889C161.897 152.122 162.33 153.189 163.197 154.089C164.063 154.955 165.13 155.389 166.397 155.389H186.347ZM209.581 137.889V157.389C209.581 157.955 209.381 158.439 208.981 158.839C208.581 159.239 208.098 159.439 207.531 159.439C206.964 159.439 206.481 159.239 206.081 158.839C205.714 158.439 205.531 157.955 205.531 157.389V139.689C205.531 139.122 205.331 138.639 204.931 138.239C204.531 137.839 204.048 137.639 203.481 137.639H193.831C193.264 137.639 192.781 137.439 192.381 137.039C192.014 136.639 191.831 136.155 191.831 135.589C191.831 135.022 192.014 134.555 192.381 134.189C192.781 133.789 193.264 133.589 193.831 133.589H205.281C205.881 133.589 206.431 133.705 206.931 133.939C207.464 134.139 207.914 134.439 208.281 134.839C208.681 135.239 208.998 135.705 209.231 136.239C209.464 136.739 209.581 137.289 209.581 137.889ZM221.231 133.589H212.981C212.414 133.589 211.931 133.789 211.531 134.189C211.164 134.555 210.981 135.022 210.981 135.589C210.981 136.155 211.164 136.639 211.531 137.039C211.931 137.439 212.414 137.639 212.981 137.639H221.231C221.798 137.639 222.281 137.439 222.681 137.039C223.081 136.639 223.281 136.155 223.281 135.589C223.281 135.022 223.081 134.555 222.681 134.189C222.281 133.789 221.798 133.589 221.231 133.589Z" fill="#F4F4F4"/>
<g clip-path="url(#clip0_0_1)">
<path d="M473.115 491.919C473.115 585.821 397.71 659.495 366.068 686.335C357.725 693.419 345.761 694.442 336.315 688.933C304.595 670.514 236.903 620.611 236.903 532.219C236.903 445.243 302.548 345.753 334.82 302.147C343.321 290.655 359.535 288.215 371.027 296.716C371.971 297.424 372.837 298.211 373.703 298.999C408.336 332.923 473.115 407.541 473.115 491.919Z" fill="url(#paint1_linear_0_1)"/>
<g filter="url(#filter1_d_0_1)">
<path d="M561.98 631.631C495.626 697.984 390.154 696.804 348.752 693.419C337.811 692.474 328.68 684.84 325.847 674.214C316.559 638.715 303.965 555.596 366.383 493.1C427.856 431.548 544.585 407.698 598.265 399.67C612.355 397.545 625.578 407.305 627.703 421.394C627.861 422.575 627.939 423.755 628.018 424.936C628.648 473.422 621.721 571.889 561.98 631.631Z" fill="url(#paint2_linear_0_1)"/>
</g>
</g>
<path d="M425.707 598.497C425.6 599.457 425.28 600.203 424.747 600.737C424 601.377 423.227 601.697 422.427 601.697H388.267C386.613 601.697 385.067 601.377 383.627 600.737C382.187 600.097 380.933 599.243 379.867 598.177C378.8 597.11 377.947 595.857 377.307 594.417C376.667 592.923 376.347 591.35 376.347 589.697C376.347 588.043 376.667 586.497 377.307 585.057C377.947 583.617 378.8 582.363 379.867 581.297C380.933 580.177 382.187 579.323 383.627 578.737C385.067 578.097 386.613 577.777 388.267 577.777H413.707C415.253 577.777 416.56 577.243 417.627 576.177C418.693 575.11 419.227 573.803 419.227 572.257C419.227 570.763 418.693 569.483 417.627 568.417C416.507 567.297 415.2 566.737 413.707 566.737H379.707C378.8 566.737 378 566.417 377.307 565.777C376.613 565.137 376.293 564.363 376.347 563.457C376.347 562.657 376.667 561.937 377.307 561.297C377.893 560.657 378.64 560.337 379.547 560.337H413.707C415.36 560.337 416.907 560.657 418.347 561.297C419.84 561.883 421.12 562.737 422.187 563.857C423.253 564.923 424.107 566.177 424.747 567.617C425.387 569.057 425.707 570.603 425.707 572.257C425.707 573.91 425.387 575.483 424.747 576.977C424.107 578.417 423.253 579.67 422.187 580.737C421.12 581.803 419.867 582.657 418.427 583.297C416.987 583.883 415.413 584.177 413.707 584.177H408.187C408.133 584.23 408.08 584.257 408.027 584.257H388.267C386.72 584.257 385.413 584.79 384.347 585.857C383.333 586.87 382.827 588.15 382.827 589.697C382.827 591.243 383.36 592.55 384.427 593.617C385.493 594.683 386.773 595.217 388.267 595.217H422.347C423.253 595.217 424.027 595.537 424.667 596.177C425.36 596.817 425.707 597.59 425.707 598.497ZM457.425 574.817C457.425 576.523 456.812 577.99 455.585 579.217C454.412 580.39 452.972 580.977 451.265 580.977H437.505C435.798 580.977 434.332 580.39 433.105 579.217C431.932 577.99 431.345 576.523 431.345 574.817V566.497C431.345 564.79 431.932 563.35 433.105 562.177C434.332 560.95 435.798 560.337 437.505 560.337H451.265C452.972 560.337 454.412 560.95 455.585 562.177C456.812 563.35 457.425 564.79 457.425 566.497V574.817ZM450.945 577.777C451.852 577.777 452.625 577.457 453.265 576.817C453.905 576.177 454.225 575.403 454.225 574.497V566.817C454.225 565.91 453.905 565.137 453.265 564.497C452.625 563.857 451.852 563.537 450.945 563.537H437.825C436.918 563.537 436.145 563.857 435.505 564.497C434.865 565.137 434.545 565.91 434.545 566.817V574.497C434.545 575.403 434.865 576.177 435.505 576.817C436.145 577.457 436.918 577.777 437.825 577.777H450.945ZM484.065 580.977C485.772 580.977 487.212 581.59 488.385 582.817C489.612 584.043 490.225 585.51 490.225 587.217V595.457C490.225 597.163 489.612 598.63 488.385 599.857C487.212 601.083 485.772 601.697 484.065 601.697H470.305C468.598 601.697 467.132 601.083 465.905 599.857C464.732 598.63 464.145 597.163 464.145 595.457V587.217C464.145 585.51 464.732 584.043 465.905 582.817C467.132 581.59 468.598 580.977 470.305 580.977H484.065ZM487.025 587.537C487.025 586.63 486.705 585.857 486.065 585.217C485.425 584.577 484.652 584.257 483.745 584.257H470.625C469.718 584.257 468.945 584.577 468.305 585.217C467.665 585.857 467.345 586.63 467.345 587.537V595.137C467.345 596.043 467.665 596.817 468.305 597.457C468.945 598.097 469.718 598.417 470.625 598.417H483.745C484.652 598.417 485.425 598.097 486.065 597.457C486.705 596.817 487.025 596.043 487.025 595.137V587.537ZM480.705 560.337C481.132 560.337 481.478 560.47 481.745 560.737C482.065 560.95 482.278 561.217 482.385 561.537C482.545 561.857 482.598 562.203 482.545 562.577C482.492 562.95 482.305 563.297 481.985 563.617L442.785 601.137C442.305 601.51 441.852 601.697 441.425 601.697C440.998 601.697 440.625 601.59 440.305 601.377C440.038 601.11 439.825 600.817 439.665 600.497C439.558 600.123 439.532 599.75 439.585 599.377C439.638 599.003 439.825 598.683 440.145 598.417L479.345 560.817C479.772 560.497 480.225 560.337 480.705 560.337Z" fill="#F4F4F4"/>
<defs>
<filter id="filter0_b_0_1" x="-60" y="-60" width="984.539" height="892.249" filterUnits="userSpaceOnUse" color-interpolation-filters="sRGB">
<feFlood flood-opacity="0" result="BackgroundImageFix"/>
<feGaussianBlur in="BackgroundImageFix" stdDeviation="30"/>
<feComposite in2="SourceAlpha" operator="in" result="effect1_backgroundBlur_0_1"/>
<feBlend mode="normal" in="SourceGraphic" in2="effect1_backgroundBlur_0_1" result="shape"/>
</filter>
<filter id="filter1_d_0_1" x="308.217" y="386.479" width="325.738" height="311.084" filterUnits="userSpaceOnUse" color-interpolation-filters="sRGB">
<feFlood flood-opacity="0" result="BackgroundImageFix"/>
<feColorMatrix in="SourceAlpha" type="matrix" values="0 0 0 0 0 0 0 0 0 0 0 0 0 0 0 0 0 0 127 0" result="hardAlpha"/>
<feOffset dx="-2" dy="-5"/>
<feGaussianBlur stdDeviation="3.95"/>
<feComposite in2="hardAlpha" operator="out"/>
<feColorMatrix type="matrix" values="0 0 0 0 0.00263889 0 0 0 0 0.633333 0 0 0 0 0.486171 0 0 0 1 0"/>
<feBlend mode="normal" in2="BackgroundImageFix" result="effect1_dropShadow_0_1"/>
<feBlend mode="normal" in="SourceGraphic" in2="effect1_dropShadow_0_1" result="shape"/>
</filter>
<linearGradient id="paint0_linear_0_1" x1="65.8113" y1="199.067" x2="118.508" y2="16.1134" gradientUnits="userSpaceOnUse">
<stop stop-color="#45F5A9"/>
<stop offset="1" stop-color="#00ECFD"/>
</linearGradient>
<linearGradient id="paint1_linear_0_1" x1="295.131" y1="662.331" x2="501.423" y2="614.729" gradientUnits="userSpaceOnUse">
<stop stop-color="#45F5A9"/>
<stop offset="1" stop-color="#00ECFD"/>
</linearGradient>
<linearGradient id="paint2_linear_0_1" x1="394.518" y1="672.471" x2="638.417" y2="572.235" gradientUnits="userSpaceOnUse">
<stop stop-color="#45F5A9"/>
<stop offset="1" stop-color="#00ECFD"/>
</linearGradient>
<clipPath id="clip0_0_1">
<rect width="403" height="403" fill="white" transform="translate(231 291.678)"/>
</clipPath>
</defs>
</svg>
