<svg viewBox="0 0 485 485" fill="none" xmlns="http://www.w3.org/2000/svg">
<g filter="url(#filter0_b_0_1)">
<circle cx="242.5" cy="242.5" r="242.5" fill="#002224" fill-opacity="0.44"/>
<circle cx="242.5" cy="242.5" r="242" stroke="#2EC09E"/>
</g>
<g clip-path="url(#clip0_0_1)">
<path d="M316.052 244.373C314.991 244.373 313.93 243.966 313.117 243.162C311.5 241.545 311.5 238.917 313.117 237.3C314.742 235.675 317.412 235.65 319.021 237.258C320.637 238.875 320.679 241.462 319.062 243.079L318.979 243.162C318.175 243.966 317.114 244.373 316.052 244.373Z" fill="url(#paint0_linear_0_1)"/>
<path d="M318.291 194.623H297.562C295.273 194.623 293.416 192.765 293.416 190.477C293.416 188.188 295.273 186.331 297.562 186.331H318.291C320.58 186.331 322.437 188.188 322.437 190.477C322.437 192.765 320.58 194.623 318.291 194.623Z" fill="url(#paint1_linear_0_1)"/>
<path d="M280.249 266.537C276.318 266.537 272.363 265.915 268.491 264.646L239.039 254.854C237.256 254.257 235.507 253.585 233.807 252.83C226.651 249.646 218.293 248.104 208.269 248.104H202.705C200.416 248.104 198.559 246.247 198.559 243.958C198.559 241.67 200.416 239.812 202.705 239.812H208.269C219.479 239.812 228.931 241.595 237.173 245.252C238.633 245.899 240.117 246.479 241.651 246.985L271.095 256.769C281.55 260.202 292.902 257.515 300.679 249.729L313.117 237.292C313.896 236.512 314.949 236.081 316.052 236.081H326.417C330.994 236.081 334.708 232.358 334.708 227.79C334.708 223.179 331.027 219.498 326.499 219.498C324.219 219.498 322.37 217.657 322.354 215.377C322.337 213.097 324.17 211.231 326.45 211.206C328.755 211.181 330.886 210.261 332.445 208.628C333.987 207.019 334.783 204.871 334.7 202.6C334.542 198.197 330.421 194.623 325.513 194.623H318.291C316.002 194.623 314.145 192.766 314.145 190.477C314.145 188.189 316.002 186.331 318.291 186.331C322.868 186.331 326.582 182.608 326.582 178.04C326.582 173.471 322.868 169.748 318.291 169.748H289.27C286.981 169.748 285.124 167.891 285.124 165.602C285.124 163.314 286.981 161.456 289.27 161.456H303.324C306.84 161.456 309.717 158.596 309.75 155.08C309.759 153.355 309.095 151.73 307.876 150.503C306.666 149.284 305.049 148.604 303.324 148.604L255.714 148.77C243.981 148.828 232.804 149.491 224.91 156.871C219.164 162.236 211.345 165.188 202.871 165.188C200.574 165.188 198.725 163.33 198.725 161.042C198.725 158.753 200.582 156.896 202.871 156.896C209.239 156.896 215.051 154.74 219.247 150.818C229.329 141.399 242.77 140.545 255.672 140.478L303.333 140.312C307.288 140.312 310.994 141.855 313.78 144.657C316.566 147.46 318.083 151.183 318.059 155.138C318.042 157.393 317.511 159.541 316.566 161.448H318.299C327.445 161.448 334.882 168.886 334.882 178.031C334.882 181.547 333.78 184.806 331.914 187.492C338.191 189.872 342.768 195.61 343.008 202.301C343.166 206.828 341.549 211.107 338.456 214.341C338.133 214.689 337.784 215.02 337.428 215.336C340.836 218.37 343 222.79 343 227.707C343 236.935 335.562 244.373 326.417 244.373H317.768L306.541 255.6C299.411 262.731 289.966 266.537 280.249 266.537Z" fill="url(#paint2_linear_0_1)"/>
<path d="M176.503 248.104H148.146C145.857 248.104 144 246.247 144 243.958C144 241.67 145.857 239.812 148.146 239.812H176.503C178.792 239.812 180.649 241.67 180.649 243.958C180.649 246.247 178.792 248.104 176.503 248.104Z" fill="url(#paint3_linear_0_1)"/>
<path d="M176.338 165.188H148.146C145.857 165.188 144 163.33 144 161.042C144 158.753 145.857 156.896 148.146 156.896H176.338C178.626 156.896 180.483 158.753 180.483 161.042C180.483 163.33 178.634 165.188 176.338 165.188Z" fill="url(#paint4_linear_0_1)"/>
<path d="M316.052 244.373H280.978C278.69 244.373 276.833 242.515 276.833 240.227C276.833 237.938 278.69 236.081 280.978 236.081H316.052C318.341 236.081 320.198 237.938 320.198 240.227C320.198 242.515 318.341 244.373 316.052 244.373Z" fill="url(#paint5_linear_0_1)"/>
<path d="M326.5 219.498H297.562C295.273 219.498 293.416 217.64 293.416 215.352C293.416 213.063 295.273 211.206 297.562 211.206H326.417C328.705 211.206 330.604 213.063 330.604 215.352C330.604 217.64 328.788 219.498 326.5 219.498Z" fill="url(#paint6_linear_0_1)"/>
<path d="M206.187 231.521H173.021C166.164 231.521 160.583 225.941 160.583 219.083V181.771C160.583 174.914 166.164 169.333 173.021 169.333H206.187C213.045 169.333 218.625 174.914 218.625 181.771V219.083C218.625 225.941 213.045 231.521 206.187 231.521ZM173.021 177.625C170.741 177.625 168.875 179.482 168.875 181.771V219.083C168.875 221.372 170.741 223.229 173.021 223.229H206.187C208.468 223.229 210.333 221.372 210.333 219.083V181.771C210.333 179.482 208.468 177.625 206.187 177.625H173.021Z" fill="url(#paint7_linear_0_1)"/>
<path d="M205.35 177.625C203.418 177.625 201.693 176.265 201.295 174.292L198.642 161.042H180.566L177.913 174.292C177.457 176.547 175.235 177.982 173.029 177.542C170.782 177.094 169.331 174.914 169.779 172.667L173.096 156.083C173.494 154.143 175.193 152.75 177.167 152.75H202.042C204.015 152.75 205.715 154.143 206.105 156.083L209.421 172.667C209.877 174.914 208.426 177.094 206.179 177.542C205.906 177.6 205.632 177.625 205.35 177.625Z" fill="url(#paint8_linear_0_1)"/>
<path d="M202.042 252.25H177.167C175.127 252.25 173.394 250.774 173.071 248.759L169.754 228.03C169.397 225.775 170.94 223.644 173.195 223.279C175.409 222.898 177.573 224.457 177.946 226.72L180.707 243.959H198.501L201.262 226.72C201.635 224.465 203.799 222.906 206.013 223.279C208.269 223.636 209.811 225.767 209.454 228.03L206.138 248.759C205.814 250.774 204.081 252.25 202.042 252.25Z" fill="url(#paint9_linear_0_1)"/>
</g>
<path d="M54.2359 328L50.3959 314H52.1959L55.2159 326L58.6359 314H60.5159L63.8559 326.04L66.9159 314H68.7159L64.7959 328H62.8759L59.5359 316.42L56.1159 328H54.2359ZM73.9948 328.24C73.0615 328.24 72.2348 328.013 71.5148 327.56C70.7948 327.107 70.2282 326.467 69.8148 325.64C69.4148 324.813 69.2148 323.847 69.2148 322.74C69.2148 321.633 69.4148 320.667 69.8148 319.84C70.2282 319.013 70.7948 318.373 71.5148 317.92C72.2482 317.467 73.0882 317.24 74.0348 317.24C75.0482 317.24 75.8948 317.467 76.5748 317.92C77.2548 318.373 77.7682 318.98 78.1148 319.74C78.4615 320.5 78.6348 321.333 78.6348 322.24C78.6348 322.373 78.6348 322.507 78.6348 322.64C78.6348 322.773 78.6282 322.933 78.6148 323.12H70.4748V321.82H76.9948C76.9682 320.793 76.6682 320.013 76.0948 319.48C75.5348 318.933 74.8348 318.66 73.9948 318.66C73.4348 318.66 72.9148 318.8 72.4348 319.08C71.9682 319.347 71.5882 319.747 71.2948 320.28C71.0015 320.813 70.8548 321.48 70.8548 322.28V322.84C70.8548 323.72 71.0015 324.46 71.2948 325.06C71.5882 325.647 71.9682 326.087 72.4348 326.38C72.9148 326.673 73.4348 326.82 73.9948 326.82C74.7415 326.82 75.3282 326.68 75.7548 326.4C76.1815 326.107 76.4948 325.693 76.6948 325.16H78.3548C78.1948 325.747 77.9148 326.273 77.5148 326.74C77.1282 327.207 76.6348 327.573 76.0348 327.84C75.4482 328.107 74.7682 328.24 73.9948 328.24ZM84.243 328.24C83.443 328.24 82.7763 328.093 82.243 327.8C81.7096 327.493 81.3096 327.093 81.043 326.6C80.7763 326.093 80.643 325.553 80.643 324.98C80.643 324.287 80.8163 323.7 81.163 323.22C81.523 322.727 82.023 322.353 82.663 322.1C83.303 321.847 84.0496 321.72 84.903 321.72H87.523C87.523 321.04 87.443 320.473 87.283 320.02C87.123 319.567 86.863 319.227 86.503 319C86.143 318.773 85.663 318.66 85.063 318.66C84.463 318.66 83.9496 318.813 83.523 319.12C83.0963 319.413 82.8296 319.853 82.723 320.44H81.003C81.083 319.747 81.3163 319.167 81.703 318.7C82.0896 318.22 82.5763 317.86 83.163 317.62C83.763 317.367 84.3963 317.24 85.063 317.24C86.0096 317.24 86.7896 317.413 87.403 317.76C88.0163 318.093 88.4696 318.567 88.763 319.18C89.0563 319.78 89.203 320.493 89.203 321.32V328H87.703L87.603 326.2C87.4696 326.48 87.2963 326.747 87.083 327C86.883 327.24 86.643 327.453 86.363 327.64C86.083 327.827 85.763 327.973 85.403 328.08C85.0563 328.187 84.6696 328.24 84.243 328.24ZM84.483 326.82C84.923 326.82 85.3296 326.72 85.703 326.52C86.0763 326.32 86.3963 326.053 86.663 325.72C86.943 325.373 87.1563 324.987 87.303 324.56C87.4496 324.133 87.523 323.687 87.523 323.22V323.02H85.043C84.4163 323.02 83.903 323.1 83.503 323.26C83.1163 323.42 82.8363 323.647 82.663 323.94C82.4896 324.22 82.403 324.54 82.403 324.9C82.403 325.287 82.483 325.627 82.643 325.92C82.803 326.2 83.0363 326.42 83.343 326.58C83.663 326.74 84.043 326.82 84.483 326.82ZM91.9786 328V317.48H93.4986L93.6186 319.4C93.8586 318.92 94.1719 318.52 94.5586 318.2C94.9453 317.88 95.4119 317.64 95.9586 317.48C96.5186 317.32 97.1453 317.24 97.8386 317.24V319H96.7986C96.3986 319 96.0119 319.053 95.6386 319.16C95.2653 319.267 94.9253 319.44 94.6186 319.68C94.3253 319.92 94.0919 320.247 93.9186 320.66C93.7453 321.073 93.6586 321.593 93.6586 322.22V328H91.9786ZM109.223 328C108.623 328 108.103 327.907 107.663 327.72C107.223 327.533 106.883 327.22 106.643 326.78C106.416 326.327 106.303 325.72 106.303 324.96V318.9H104.463V317.48H106.303L106.523 314.86H107.983V317.48H110.963V318.9H107.983V324.96C107.983 325.587 108.109 326.013 108.363 326.24C108.616 326.453 109.063 326.56 109.703 326.56H110.923V328H109.223ZM113.268 328V313.6H114.948V319.18C115.294 318.58 115.768 318.107 116.368 317.76C116.968 317.413 117.614 317.24 118.308 317.24C119.121 317.24 119.808 317.393 120.368 317.7C120.941 317.993 121.374 318.447 121.668 319.06C121.974 319.673 122.128 320.453 122.128 321.4V328H120.468V321.58C120.468 320.62 120.241 319.9 119.788 319.42C119.334 318.927 118.721 318.68 117.948 318.68C117.401 318.68 116.901 318.813 116.448 319.08C115.994 319.333 115.628 319.713 115.348 320.22C115.081 320.727 114.948 321.34 114.948 322.06V328H113.268ZM129.268 328.24C128.335 328.24 127.508 328.013 126.788 327.56C126.068 327.107 125.502 326.467 125.088 325.64C124.688 324.813 124.488 323.847 124.488 322.74C124.488 321.633 124.688 320.667 125.088 319.84C125.502 319.013 126.068 318.373 126.788 317.92C127.522 317.467 128.362 317.24 129.308 317.24C130.322 317.24 131.168 317.467 131.848 317.92C132.528 318.373 133.042 318.98 133.388 319.74C133.735 320.5 133.908 321.333 133.908 322.24C133.908 322.373 133.908 322.507 133.908 322.64C133.908 322.773 133.902 322.933 133.888 323.12H125.748V321.82H132.268C132.242 320.793 131.942 320.013 131.368 319.48C130.808 318.933 130.108 318.66 129.268 318.66C128.708 318.66 128.188 318.8 127.708 319.08C127.242 319.347 126.862 319.747 126.568 320.28C126.275 320.813 126.128 321.48 126.128 322.28V322.84C126.128 323.72 126.275 324.46 126.568 325.06C126.862 325.647 127.242 326.087 127.708 326.38C128.188 326.673 128.708 326.82 129.268 326.82C130.015 326.82 130.602 326.68 131.028 326.4C131.455 326.107 131.768 325.693 131.968 325.16H133.628C133.468 325.747 133.188 326.273 132.788 326.74C132.402 327.207 131.908 327.573 131.308 327.84C130.722 328.107 130.042 328.24 129.268 328.24ZM147.648 328.24C146.368 328.24 145.241 327.94 144.268 327.34C143.294 326.727 142.534 325.88 141.988 324.8C141.441 323.707 141.168 322.44 141.168 321C141.168 319.573 141.441 318.32 141.988 317.24C142.534 316.147 143.294 315.293 144.268 314.68C145.241 314.067 146.368 313.76 147.648 313.76C148.954 313.76 150.094 314.067 151.068 314.68C152.041 315.293 152.794 316.147 153.328 317.24C153.861 318.32 154.128 319.573 154.128 321C154.128 322.44 153.861 323.707 153.328 324.8C152.794 325.88 152.041 326.727 151.068 327.34C150.094 327.94 148.954 328.24 147.648 328.24ZM147.648 326.76C148.608 326.76 149.441 326.533 150.148 326.08C150.868 325.613 151.421 324.953 151.808 324.1C152.208 323.233 152.408 322.2 152.408 321C152.408 319.8 152.208 318.773 151.808 317.92C151.421 317.053 150.868 316.393 150.148 315.94C149.441 315.487 148.608 315.26 147.648 315.26C146.701 315.26 145.868 315.487 145.148 315.94C144.441 316.393 143.888 317.053 143.488 317.92C143.088 318.773 142.888 319.8 142.888 321C142.888 322.2 143.088 323.233 143.488 324.1C143.888 324.953 144.441 325.613 145.148 326.08C145.868 326.533 146.701 326.76 147.648 326.76ZM156.649 328V314H165.169V315.38H158.329V320.3H164.149V321.66H158.329V328H156.649ZM165.085 328L170.245 314H172.025L177.165 328H175.365L171.125 316.1L166.845 328H165.085ZM167.445 324.4L167.925 323.04H174.265L174.745 324.4H167.445ZM188.357 328.24C187.41 328.24 186.623 328.1 185.997 327.82C185.383 327.527 184.917 327.127 184.597 326.62C184.277 326.1 184.083 325.5 184.017 324.82H185.737C185.79 325.18 185.91 325.513 186.097 325.82C186.297 326.113 186.583 326.353 186.957 326.54C187.33 326.727 187.803 326.82 188.377 326.82C188.83 326.82 189.217 326.753 189.537 326.62C189.857 326.473 190.097 326.273 190.257 326.02C190.43 325.767 190.517 325.473 190.517 325.14C190.517 324.7 190.417 324.36 190.217 324.12C190.03 323.867 189.75 323.68 189.377 323.56C189.017 323.427 188.563 323.327 188.017 323.26C187.43 323.18 186.91 323.067 186.457 322.92C186.003 322.773 185.617 322.58 185.297 322.34C184.99 322.1 184.757 321.8 184.597 321.44C184.437 321.08 184.357 320.653 184.357 320.16C184.357 319.587 184.51 319.08 184.817 318.64C185.123 318.2 185.557 317.86 186.117 317.62C186.69 317.367 187.363 317.24 188.137 317.24C189.27 317.24 190.163 317.5 190.817 318.02C191.483 318.54 191.877 319.28 191.997 320.24H190.337C190.27 319.747 190.043 319.36 189.657 319.08C189.27 318.8 188.757 318.66 188.117 318.66C187.437 318.66 186.923 318.787 186.577 319.04C186.23 319.293 186.057 319.627 186.057 320.04C186.057 320.347 186.13 320.627 186.277 320.88C186.437 321.12 186.703 321.327 187.077 321.5C187.45 321.66 187.95 321.78 188.577 321.86C189.363 321.953 190.03 322.107 190.577 322.32C191.123 322.52 191.537 322.833 191.817 323.26C192.11 323.687 192.25 324.267 192.237 325C192.237 325.693 192.07 326.28 191.737 326.76C191.417 327.24 190.963 327.607 190.377 327.86C189.803 328.113 189.13 328.24 188.357 328.24ZM194.733 328V317.48H196.252L196.333 318.92C196.653 318.4 197.086 317.993 197.633 317.7C198.179 317.393 198.753 317.24 199.353 317.24C199.859 317.24 200.313 317.313 200.713 317.46C201.126 317.593 201.486 317.807 201.793 318.1C202.099 318.38 202.346 318.733 202.533 319.16C202.879 318.533 203.346 318.06 203.933 317.74C204.533 317.407 205.159 317.24 205.812 317.24C206.586 317.24 207.246 317.393 207.793 317.7C208.353 317.993 208.779 318.447 209.073 319.06C209.379 319.66 209.533 320.413 209.533 321.32V328H207.873V321.5C207.873 320.553 207.666 319.847 207.253 319.38C206.839 318.913 206.279 318.68 205.573 318.68C205.093 318.68 204.653 318.807 204.253 319.06C203.866 319.313 203.553 319.687 203.312 320.18C203.086 320.673 202.973 321.273 202.973 321.98V328H201.293V321.5C201.293 320.553 201.086 319.847 200.673 319.38C200.259 318.913 199.706 318.68 199.013 318.68C198.546 318.68 198.113 318.807 197.713 319.06C197.326 319.313 197.013 319.687 196.773 320.18C196.533 320.673 196.413 321.273 196.413 321.98V328H194.733ZM215.591 328.24C214.791 328.24 214.124 328.093 213.591 327.8C213.057 327.493 212.657 327.093 212.391 326.6C212.124 326.093 211.991 325.553 211.991 324.98C211.991 324.287 212.164 323.7 212.511 323.22C212.871 322.727 213.371 322.353 214.011 322.1C214.651 321.847 215.397 321.72 216.251 321.72H218.871C218.871 321.04 218.791 320.473 218.631 320.02C218.471 319.567 218.211 319.227 217.851 319C217.491 318.773 217.011 318.66 216.411 318.66C215.811 318.66 215.297 318.813 214.871 319.12C214.444 319.413 214.177 319.853 214.071 320.44H212.351C212.431 319.747 212.664 319.167 213.051 318.7C213.437 318.22 213.924 317.86 214.511 317.62C215.111 317.367 215.744 317.24 216.411 317.24C217.357 317.24 218.137 317.413 218.751 317.76C219.364 318.093 219.817 318.567 220.111 319.18C220.404 319.78 220.551 320.493 220.551 321.32V328H219.051L218.951 326.2C218.817 326.48 218.644 326.747 218.431 327C218.231 327.24 217.991 327.453 217.711 327.64C217.431 327.827 217.111 327.973 216.751 328.08C216.404 328.187 216.017 328.24 215.591 328.24ZM215.831 326.82C216.271 326.82 216.677 326.72 217.051 326.52C217.424 326.32 217.744 326.053 218.011 325.72C218.291 325.373 218.504 324.987 218.651 324.56C218.797 324.133 218.871 323.687 218.871 323.22V323.02H216.391C215.764 323.02 215.251 323.1 214.851 323.26C214.464 323.42 214.184 323.647 214.011 323.94C213.837 324.22 213.751 324.54 213.751 324.9C213.751 325.287 213.831 325.627 213.991 325.92C214.151 326.2 214.384 326.42 214.691 326.58C215.011 326.74 215.391 326.82 215.831 326.82ZM223.326 328V317.48H224.846L224.966 319.4C225.206 318.92 225.52 318.52 225.906 318.2C226.293 317.88 226.76 317.64 227.306 317.48C227.866 317.32 228.493 317.24 229.186 317.24V319H228.146C227.746 319 227.36 319.053 226.986 319.16C226.613 319.267 226.273 319.44 225.966 319.68C225.673 319.92 225.44 320.247 225.266 320.66C225.093 321.073 225.006 321.593 225.006 322.22V328H223.326ZM235.199 328C234.599 328 234.079 327.907 233.639 327.72C233.199 327.533 232.859 327.22 232.619 326.78C232.393 326.327 232.279 325.72 232.279 324.96V318.9H230.439V317.48H232.279L232.499 314.86H233.959V317.48H236.939V318.9H233.959V324.96C233.959 325.587 234.086 326.013 234.339 326.24C234.593 326.453 235.039 326.56 235.679 326.56H236.899V328H235.199ZM241.424 328L238.324 317.48H240.004L242.304 325.86L244.744 317.48H246.644L249.104 325.84L251.384 317.48H253.084L249.984 328H248.264L245.704 319.24L243.144 328H241.424ZM257.934 328.24C257.134 328.24 256.468 328.093 255.934 327.8C255.401 327.493 255.001 327.093 254.734 326.6C254.468 326.093 254.334 325.553 254.334 324.98C254.334 324.287 254.508 323.7 254.854 323.22C255.214 322.727 255.714 322.353 256.354 322.1C256.994 321.847 257.741 321.72 258.594 321.72H261.214C261.214 321.04 261.134 320.473 260.974 320.02C260.814 319.567 260.554 319.227 260.194 319C259.834 318.773 259.354 318.66 258.754 318.66C258.154 318.66 257.641 318.813 257.214 319.12C256.788 319.413 256.521 319.853 256.414 320.44H254.694C254.774 319.747 255.008 319.167 255.394 318.7C255.781 318.22 256.268 317.86 256.854 317.62C257.454 317.367 258.088 317.24 258.754 317.24C259.701 317.24 260.481 317.413 261.094 317.76C261.708 318.093 262.161 318.567 262.454 319.18C262.748 319.78 262.894 320.493 262.894 321.32V328H261.394L261.294 326.2C261.161 326.48 260.988 326.747 260.774 327C260.574 327.24 260.334 327.453 260.054 327.64C259.774 327.827 259.454 327.973 259.094 328.08C258.748 328.187 258.361 328.24 257.934 328.24ZM258.174 326.82C258.614 326.82 259.021 326.72 259.394 326.52C259.768 326.32 260.088 326.053 260.354 325.72C260.634 325.373 260.848 324.987 260.994 324.56C261.141 324.133 261.214 323.687 261.214 323.22V323.02H258.734C258.108 323.02 257.594 323.1 257.194 323.26C256.808 323.42 256.528 323.647 256.354 323.94C256.181 324.22 256.094 324.54 256.094 324.9C256.094 325.287 256.174 325.627 256.334 325.92C256.494 326.2 256.728 326.42 257.034 326.58C257.354 326.74 257.734 326.82 258.174 326.82ZM269.477 328C268.877 328 268.357 327.907 267.917 327.72C267.477 327.533 267.137 327.22 266.897 326.78C266.67 326.327 266.557 325.72 266.557 324.96V318.9H264.717V317.48H266.557L266.777 314.86H268.237V317.48H271.217V318.9H268.237V324.96C268.237 325.587 268.363 326.013 268.617 326.24C268.87 326.453 269.317 326.56 269.957 326.56H271.177V328H269.477ZM277.788 328.24C276.828 328.24 275.975 328.013 275.228 327.56C274.481 327.093 273.895 326.447 273.468 325.62C273.041 324.793 272.828 323.833 272.828 322.74C272.828 321.633 273.041 320.673 273.468 319.86C273.895 319.033 274.481 318.393 275.228 317.94C275.975 317.473 276.828 317.24 277.788 317.24C278.988 317.24 279.988 317.56 280.788 318.2C281.601 318.84 282.121 319.7 282.348 320.78H280.628C280.481 320.113 280.141 319.6 279.608 319.24C279.088 318.867 278.475 318.68 277.768 318.68C277.155 318.68 276.601 318.833 276.108 319.14C275.628 319.447 275.248 319.9 274.968 320.5C274.688 321.1 274.548 321.847 274.548 322.74C274.548 323.407 274.628 324 274.788 324.52C274.948 325.027 275.168 325.453 275.448 325.8C275.741 326.133 276.081 326.387 276.468 326.56C276.868 326.733 277.301 326.82 277.768 326.82C278.248 326.82 278.681 326.74 279.068 326.58C279.468 326.407 279.801 326.16 280.068 325.84C280.348 325.52 280.535 325.14 280.628 324.7H282.348C282.135 325.753 281.615 326.607 280.788 327.26C279.975 327.913 278.975 328.24 277.788 328.24ZM284.791 328V313.6H286.471V319.18C286.818 318.58 287.291 318.107 287.891 317.76C288.491 317.413 289.138 317.24 289.831 317.24C290.644 317.24 291.331 317.393 291.891 317.7C292.464 317.993 292.898 318.447 293.191 319.06C293.498 319.673 293.651 320.453 293.651 321.4V328H291.991V321.58C291.991 320.62 291.764 319.9 291.311 319.42C290.858 318.927 290.244 318.68 289.471 318.68C288.924 318.68 288.424 318.813 287.971 319.08C287.518 319.333 287.151 319.713 286.871 320.22C286.604 320.727 286.471 321.34 286.471 322.06V328H284.791ZM305.083 328.24C304.283 328.24 303.616 328.093 303.083 327.8C302.549 327.493 302.149 327.093 301.883 326.6C301.616 326.093 301.483 325.553 301.483 324.98C301.483 324.287 301.656 323.7 302.003 323.22C302.363 322.727 302.863 322.353 303.503 322.1C304.143 321.847 304.889 321.72 305.743 321.72H308.363C308.363 321.04 308.283 320.473 308.123 320.02C307.963 319.567 307.703 319.227 307.343 319C306.983 318.773 306.503 318.66 305.903 318.66C305.303 318.66 304.789 318.813 304.363 319.12C303.936 319.413 303.669 319.853 303.563 320.44H301.843C301.923 319.747 302.156 319.167 302.543 318.7C302.929 318.22 303.416 317.86 304.003 317.62C304.603 317.367 305.236 317.24 305.903 317.24C306.849 317.24 307.629 317.413 308.243 317.76C308.856 318.093 309.309 318.567 309.603 319.18C309.896 319.78 310.043 320.493 310.043 321.32V328H308.543L308.443 326.2C308.309 326.48 308.136 326.747 307.923 327C307.723 327.24 307.483 327.453 307.203 327.64C306.923 327.827 306.603 327.973 306.243 328.08C305.896 328.187 305.509 328.24 305.083 328.24ZM305.323 326.82C305.763 326.82 306.169 326.72 306.543 326.52C306.916 326.32 307.236 326.053 307.503 325.72C307.783 325.373 307.996 324.987 308.143 324.56C308.289 324.133 308.363 323.687 308.363 323.22V323.02H305.883C305.256 323.02 304.743 323.1 304.343 323.26C303.956 323.42 303.676 323.647 303.503 323.94C303.329 324.22 303.243 324.54 303.243 324.9C303.243 325.287 303.323 325.627 303.483 325.92C303.643 326.2 303.876 326.42 304.183 326.58C304.503 326.74 304.883 326.82 305.323 326.82ZM312.818 328V317.48H314.338L314.418 319.14C314.725 318.54 315.165 318.073 315.738 317.74C316.325 317.407 316.998 317.24 317.758 317.24C318.532 317.24 319.205 317.387 319.778 317.68C320.352 317.973 320.798 318.42 321.118 319.02C321.438 319.62 321.598 320.38 321.598 321.3V328H319.918V321.48C319.918 320.547 319.685 319.847 319.218 319.38C318.765 318.913 318.152 318.68 317.378 318.68C316.858 318.68 316.378 318.807 315.938 319.06C315.498 319.3 315.145 319.66 314.878 320.14C314.625 320.62 314.498 321.207 314.498 321.9V328H312.818ZM328.721 328.24C327.788 328.24 326.961 328 326.241 327.52C325.521 327.04 324.961 326.387 324.561 325.56C324.161 324.72 323.961 323.773 323.961 322.72C323.961 321.653 324.161 320.713 324.561 319.9C324.961 319.073 325.521 318.427 326.241 317.96C326.961 317.48 327.794 317.24 328.741 317.24C329.568 317.24 330.274 317.407 330.861 317.74C331.461 318.073 331.934 318.54 332.281 319.14V313.6H333.961V328H332.441L332.301 326.32C332.101 326.653 331.834 326.967 331.501 327.26C331.181 327.553 330.788 327.793 330.321 327.98C329.868 328.153 329.334 328.24 328.721 328.24ZM328.941 326.78C329.608 326.78 330.188 326.62 330.681 326.3C331.174 325.967 331.554 325.5 331.821 324.9C332.088 324.287 332.221 323.567 332.221 322.74C332.221 321.913 332.088 321.2 331.821 320.6C331.554 319.987 331.174 319.52 330.681 319.2C330.188 318.867 329.608 318.7 328.941 318.7C328.314 318.7 327.754 318.867 327.261 319.2C326.768 319.52 326.381 319.987 326.101 320.6C325.821 321.2 325.681 321.913 325.681 322.74C325.681 323.567 325.821 324.287 326.101 324.9C326.381 325.5 326.768 325.967 327.261 326.3C327.754 326.62 328.314 326.78 328.941 326.78ZM346.254 328C345.654 328 345.134 327.907 344.694 327.72C344.254 327.533 343.914 327.22 343.674 326.78C343.447 326.327 343.334 325.72 343.334 324.96V318.9H341.494V317.48H343.334L343.554 314.86H345.014V317.48H347.994V318.9H345.014V324.96C345.014 325.587 345.141 326.013 345.394 326.24C345.647 326.453 346.094 326.56 346.734 326.56H347.954V328H346.254ZM350.299 328V317.48H351.819L351.939 319.4C352.179 318.92 352.492 318.52 352.879 318.2C353.266 317.88 353.732 317.64 354.279 317.48C354.839 317.32 355.466 317.24 356.159 317.24V319H355.119C354.719 319 354.332 319.053 353.959 319.16C353.586 319.267 353.246 319.44 352.939 319.68C352.646 319.92 352.412 320.247 352.239 320.66C352.066 321.073 351.979 321.593 351.979 322.22V328H350.299ZM361.372 328.24C360.572 328.24 359.905 328.093 359.372 327.8C358.839 327.493 358.439 327.093 358.172 326.6C357.905 326.093 357.772 325.553 357.772 324.98C357.772 324.287 357.945 323.7 358.292 323.22C358.652 322.727 359.152 322.353 359.792 322.1C360.432 321.847 361.179 321.72 362.032 321.72H364.652C364.652 321.04 364.572 320.473 364.412 320.02C364.252 319.567 363.992 319.227 363.632 319C363.272 318.773 362.792 318.66 362.192 318.66C361.592 318.66 361.079 318.813 360.652 319.12C360.225 319.413 359.959 319.853 359.852 320.44H358.132C358.212 319.747 358.445 319.167 358.832 318.7C359.219 318.22 359.705 317.86 360.292 317.62C360.892 317.367 361.525 317.24 362.192 317.24C363.139 317.24 363.919 317.413 364.532 317.76C365.145 318.093 365.599 318.567 365.892 319.18C366.185 319.78 366.332 320.493 366.332 321.32V328H364.832L364.732 326.2C364.599 326.48 364.425 326.747 364.212 327C364.012 327.24 363.772 327.453 363.492 327.64C363.212 327.827 362.892 327.973 362.532 328.08C362.185 328.187 361.799 328.24 361.372 328.24ZM361.612 326.82C362.052 326.82 362.459 326.72 362.832 326.52C363.205 326.32 363.525 326.053 363.792 325.72C364.072 325.373 364.285 324.987 364.432 324.56C364.579 324.133 364.652 323.687 364.652 323.22V323.02H362.172C361.545 323.02 361.032 323.1 360.632 323.26C360.245 323.42 359.965 323.647 359.792 323.94C359.619 324.22 359.532 324.54 359.532 324.9C359.532 325.287 359.612 325.627 359.772 325.92C359.932 326.2 360.165 326.42 360.472 326.58C360.792 326.74 361.172 326.82 361.612 326.82ZM373.648 328.24C372.688 328.24 371.834 328.013 371.088 327.56C370.341 327.093 369.754 326.447 369.328 325.62C368.901 324.793 368.688 323.833 368.688 322.74C368.688 321.633 368.901 320.673 369.328 319.86C369.754 319.033 370.341 318.393 371.088 317.94C371.834 317.473 372.688 317.24 373.648 317.24C374.848 317.24 375.848 317.56 376.648 318.2C377.461 318.84 377.981 319.7 378.208 320.78H376.488C376.341 320.113 376.001 319.6 375.468 319.24C374.948 318.867 374.334 318.68 373.628 318.68C373.014 318.68 372.461 318.833 371.968 319.14C371.488 319.447 371.108 319.9 370.828 320.5C370.548 321.1 370.408 321.847 370.408 322.74C370.408 323.407 370.488 324 370.648 324.52C370.808 325.027 371.028 325.453 371.308 325.8C371.601 326.133 371.941 326.387 372.328 326.56C372.728 326.733 373.161 326.82 373.628 326.82C374.108 326.82 374.541 326.74 374.928 326.58C375.328 326.407 375.661 326.16 375.928 325.84C376.208 325.52 376.394 325.14 376.488 324.7H378.208C377.994 325.753 377.474 326.607 376.648 327.26C375.834 327.913 374.834 328.24 373.648 328.24ZM386.83 328L382.05 322.32L386.55 317.48H388.61L383.47 322.92L383.49 321.72L388.97 328H386.83ZM380.65 328V313.6H382.33V328H380.65ZM397.299 332.4L399.679 326.88H399.099L395.159 317.48H396.979L400.239 325.58L403.639 317.48H405.379L399.039 332.4H397.299ZM410.835 328.24C409.861 328.24 409.001 328.013 408.255 327.56C407.508 327.107 406.928 326.467 406.515 325.64C406.101 324.813 405.895 323.847 405.895 322.74C405.895 321.62 406.101 320.653 406.515 319.84C406.941 319.013 407.528 318.373 408.275 317.92C409.035 317.467 409.901 317.24 410.875 317.24C411.861 317.24 412.721 317.467 413.455 317.92C414.201 318.373 414.781 319.013 415.195 319.84C415.608 320.653 415.815 321.62 415.815 322.74C415.815 323.847 415.601 324.813 415.175 325.64C414.761 326.467 414.181 327.107 413.435 327.56C412.688 328.013 411.821 328.24 410.835 328.24ZM410.835 326.8C411.448 326.8 412.001 326.653 412.495 326.36C412.988 326.053 413.375 325.6 413.655 325C413.948 324.387 414.095 323.633 414.095 322.74C414.095 321.833 413.955 321.08 413.675 320.48C413.395 319.88 413.008 319.433 412.515 319.14C412.035 318.833 411.488 318.68 410.875 318.68C410.275 318.68 409.728 318.833 409.235 319.14C408.741 319.433 408.348 319.88 408.055 320.48C407.761 321.08 407.615 321.833 407.615 322.74C407.615 323.633 407.755 324.387 408.035 325C408.328 325.6 408.715 326.053 409.195 326.36C409.688 326.653 410.235 326.8 410.835 326.8ZM422.028 328.24C421.255 328.24 420.581 328.093 420.008 327.8C419.435 327.507 418.988 327.06 418.668 326.46C418.348 325.847 418.188 325.087 418.188 324.18V317.48H419.868V324C419.868 324.933 420.095 325.633 420.548 326.1C421.015 326.567 421.635 326.8 422.408 326.8C422.941 326.8 423.421 326.68 423.848 326.44C424.275 326.187 424.615 325.82 424.868 325.34C425.135 324.86 425.268 324.273 425.268 323.58V317.48H426.948V328H425.428L425.328 326.32C425.048 326.933 424.615 327.407 424.028 327.74C423.455 328.073 422.788 328.24 422.028 328.24ZM429.791 328V317.48H431.311L431.431 319.4C431.671 318.92 431.984 318.52 432.371 318.2C432.758 317.88 433.224 317.64 433.771 317.48C434.331 317.32 434.958 317.24 435.651 317.24V319H434.611C434.211 319 433.824 319.053 433.451 319.16C433.078 319.267 432.738 319.44 432.431 319.68C432.138 319.92 431.904 320.247 431.731 320.66C431.558 321.073 431.471 321.593 431.471 322.22V328H429.791ZM196.07 354V339.6H197.75V345.18C198.097 344.58 198.57 344.107 199.17 343.76C199.77 343.413 200.417 343.24 201.11 343.24C201.924 343.24 202.61 343.393 203.17 343.7C203.744 343.993 204.177 344.447 204.47 345.06C204.777 345.673 204.93 346.453 204.93 347.4V354H203.27V347.58C203.27 346.62 203.044 345.9 202.59 345.42C202.137 344.927 201.524 344.68 200.75 344.68C200.204 344.68 199.704 344.813 199.25 345.08C198.797 345.333 198.43 345.713 198.15 346.22C197.884 346.727 197.75 347.34 197.75 348.06V354H196.07ZM212.071 354.24C211.138 354.24 210.311 354.013 209.591 353.56C208.871 353.107 208.304 352.467 207.891 351.64C207.491 350.813 207.291 349.847 207.291 348.74C207.291 347.633 207.491 346.667 207.891 345.84C208.304 345.013 208.871 344.373 209.591 343.92C210.324 343.467 211.164 343.24 212.111 343.24C213.124 343.24 213.971 343.467 214.651 343.92C215.331 344.373 215.844 344.98 216.191 345.74C216.538 346.5 216.711 347.333 216.711 348.24C216.711 348.373 216.711 348.507 216.711 348.64C216.711 348.773 216.704 348.933 216.691 349.12H208.551V347.82H215.071C215.044 346.793 214.744 346.013 214.171 345.48C213.611 344.933 212.911 344.66 212.071 344.66C211.511 344.66 210.991 344.8 210.511 345.08C210.044 345.347 209.664 345.747 209.371 346.28C209.078 346.813 208.931 347.48 208.931 348.28V348.84C208.931 349.72 209.078 350.46 209.371 351.06C209.664 351.647 210.044 352.087 210.511 352.38C210.991 352.673 211.511 352.82 212.071 352.82C212.818 352.82 213.404 352.68 213.831 352.4C214.258 352.107 214.571 351.693 214.771 351.16H216.431C216.271 351.747 215.991 352.273 215.591 352.74C215.204 353.207 214.711 353.573 214.111 353.84C213.524 354.107 212.844 354.24 212.071 354.24ZM222.319 354.24C221.519 354.24 220.852 354.093 220.319 353.8C219.786 353.493 219.386 353.093 219.119 352.6C218.852 352.093 218.719 351.553 218.719 350.98C218.719 350.287 218.892 349.7 219.239 349.22C219.599 348.727 220.099 348.353 220.739 348.1C221.379 347.847 222.126 347.72 222.979 347.72H225.599C225.599 347.04 225.519 346.473 225.359 346.02C225.199 345.567 224.939 345.227 224.579 345C224.219 344.773 223.739 344.66 223.139 344.66C222.539 344.66 222.026 344.813 221.599 345.12C221.172 345.413 220.906 345.853 220.799 346.44H219.079C219.159 345.747 219.392 345.167 219.779 344.7C220.166 344.22 220.652 343.86 221.239 343.62C221.839 343.367 222.472 343.24 223.139 343.24C224.086 343.24 224.866 343.413 225.479 343.76C226.092 344.093 226.546 344.567 226.839 345.18C227.132 345.78 227.279 346.493 227.279 347.32V354H225.779L225.679 352.2C225.546 352.48 225.372 352.747 225.159 353C224.959 353.24 224.719 353.453 224.439 353.64C224.159 353.827 223.839 353.973 223.479 354.08C223.132 354.187 222.746 354.24 222.319 354.24ZM222.559 352.82C222.999 352.82 223.406 352.72 223.779 352.52C224.152 352.32 224.472 352.053 224.739 351.72C225.019 351.373 225.232 350.987 225.379 350.56C225.526 350.133 225.599 349.687 225.599 349.22V349.02H223.119C222.492 349.02 221.979 349.1 221.579 349.26C221.192 349.42 220.912 349.647 220.739 349.94C220.566 350.22 220.479 350.54 220.479 350.9C220.479 351.287 220.559 351.627 220.719 351.92C220.879 352.2 221.112 352.42 221.419 352.58C221.739 352.74 222.119 352.82 222.559 352.82ZM230.055 354V343.48H231.575L231.695 345.4C231.935 344.92 232.248 344.52 232.635 344.2C233.021 343.88 233.488 343.64 234.035 343.48C234.595 343.32 235.221 343.24 235.915 343.24V345H234.875C234.475 345 234.088 345.053 233.715 345.16C233.341 345.267 233.001 345.44 232.695 345.68C232.401 345.92 232.168 346.247 231.995 346.66C231.821 347.073 231.735 347.593 231.735 348.22V354H230.055ZM241.928 354C241.328 354 240.808 353.907 240.368 353.72C239.928 353.533 239.588 353.22 239.348 352.78C239.121 352.327 239.008 351.72 239.008 350.96V344.9H237.168V343.48H239.008L239.228 340.86H240.688V343.48H243.668V344.9H240.688V350.96C240.688 351.587 240.814 352.013 241.068 352.24C241.321 352.453 241.768 352.56 242.408 352.56H243.628V354H241.928ZM251.213 354.24C250.573 354.24 250.019 354.147 249.553 353.96C249.099 353.76 248.713 353.513 248.393 353.22C248.086 352.927 247.833 352.64 247.633 352.36L247.493 354H245.973V339.6H247.653V345.14C247.973 344.513 248.446 344.04 249.073 343.72C249.699 343.4 250.399 343.24 251.173 343.24C252.133 343.24 252.973 343.473 253.693 343.94C254.413 344.407 254.973 345.053 255.373 345.88C255.773 346.693 255.973 347.633 255.973 348.7C255.973 349.753 255.773 350.7 255.373 351.54C254.973 352.38 254.413 353.04 253.693 353.52C252.986 354 252.159 354.24 251.213 354.24ZM250.993 352.78C251.619 352.78 252.173 352.62 252.653 352.3C253.146 351.967 253.533 351.5 253.813 350.9C254.106 350.287 254.253 349.567 254.253 348.74C254.253 347.913 254.106 347.2 253.813 346.6C253.533 345.987 253.146 345.52 252.653 345.2C252.173 344.867 251.619 344.7 250.993 344.7C250.326 344.7 249.746 344.867 249.253 345.2C248.759 345.52 248.379 345.987 248.113 346.6C247.846 347.2 247.713 347.913 247.713 348.74C247.713 349.567 247.846 350.287 248.113 350.9C248.379 351.5 248.759 351.967 249.253 352.3C249.746 352.62 250.326 352.78 250.993 352.78ZM262.774 354.24C261.841 354.24 261.014 354.013 260.294 353.56C259.574 353.107 259.007 352.467 258.594 351.64C258.194 350.813 257.994 349.847 257.994 348.74C257.994 347.633 258.194 346.667 258.594 345.84C259.007 345.013 259.574 344.373 260.294 343.92C261.027 343.467 261.867 343.24 262.814 343.24C263.827 343.24 264.674 343.467 265.354 343.92C266.034 344.373 266.547 344.98 266.894 345.74C267.241 346.5 267.414 347.333 267.414 348.24C267.414 348.373 267.414 348.507 267.414 348.64C267.414 348.773 267.407 348.933 267.394 349.12H259.254V347.82H265.774C265.747 346.793 265.447 346.013 264.874 345.48C264.314 344.933 263.614 344.66 262.774 344.66C262.214 344.66 261.694 344.8 261.214 345.08C260.747 345.347 260.367 345.747 260.074 346.28C259.781 346.813 259.634 347.48 259.634 348.28V348.84C259.634 349.72 259.781 350.46 260.074 351.06C260.367 351.647 260.747 352.087 261.214 352.38C261.694 352.673 262.214 352.82 262.774 352.82C263.521 352.82 264.107 352.68 264.534 352.4C264.961 352.107 265.274 351.693 265.474 351.16H267.134C266.974 351.747 266.694 352.273 266.294 352.74C265.907 353.207 265.414 353.573 264.814 353.84C264.227 354.107 263.547 354.24 262.774 354.24ZM273.022 354.24C272.222 354.24 271.556 354.093 271.022 353.8C270.489 353.493 270.089 353.093 269.822 352.6C269.556 352.093 269.422 351.553 269.422 350.98C269.422 350.287 269.596 349.7 269.942 349.22C270.302 348.727 270.802 348.353 271.442 348.1C272.082 347.847 272.829 347.72 273.682 347.72H276.302C276.302 347.04 276.222 346.473 276.062 346.02C275.902 345.567 275.642 345.227 275.282 345C274.922 344.773 274.442 344.66 273.842 344.66C273.242 344.66 272.729 344.813 272.302 345.12C271.876 345.413 271.609 345.853 271.502 346.44H269.782C269.862 345.747 270.096 345.167 270.482 344.7C270.869 344.22 271.356 343.86 271.942 343.62C272.542 343.367 273.176 343.24 273.842 343.24C274.789 343.24 275.569 343.413 276.182 343.76C276.796 344.093 277.249 344.567 277.542 345.18C277.836 345.78 277.982 346.493 277.982 347.32V354H276.482L276.382 352.2C276.249 352.48 276.076 352.747 275.862 353C275.662 353.24 275.422 353.453 275.142 353.64C274.862 353.827 274.542 353.973 274.182 354.08C273.836 354.187 273.449 354.24 273.022 354.24ZM273.262 352.82C273.702 352.82 274.109 352.72 274.482 352.52C274.856 352.32 275.176 352.053 275.442 351.72C275.722 351.373 275.936 350.987 276.082 350.56C276.229 350.133 276.302 349.687 276.302 349.22V349.02H273.822C273.196 349.02 272.682 349.1 272.282 349.26C271.896 349.42 271.616 349.647 271.442 349.94C271.269 350.22 271.182 350.54 271.182 350.9C271.182 351.287 271.262 351.627 271.422 351.92C271.582 352.2 271.816 352.42 272.122 352.58C272.442 352.74 272.822 352.82 273.262 352.82ZM284.564 354C283.964 354 283.444 353.907 283.004 353.72C282.564 353.533 282.224 353.22 281.984 352.78C281.758 352.327 281.644 351.72 281.644 350.96V344.9H279.804V343.48H281.644L281.864 340.86H283.324V343.48H286.304V344.9H283.324V350.96C283.324 351.587 283.451 352.013 283.704 352.24C283.958 352.453 284.404 352.56 285.044 352.56H286.264V354H284.564ZM289.269 354.1C288.949 354.1 288.676 353.993 288.449 353.78C288.236 353.553 288.129 353.28 288.129 352.96C288.129 352.64 288.236 352.373 288.449 352.16C288.676 351.933 288.949 351.82 289.269 351.82C289.616 351.82 289.889 351.933 290.089 352.16C290.303 352.373 290.409 352.64 290.409 352.96C290.409 353.28 290.303 353.553 290.089 353.78C289.889 353.993 289.616 354.1 289.269 354.1Z" fill="white"/>
<defs>
<filter id="filter0_b_0_1" x="-39" y="-39" width="563" height="563" filterUnits="userSpaceOnUse" color-interpolation-filters="sRGB">
<feFlood flood-opacity="0" result="BackgroundImageFix"/>
<feGaussianBlur in="BackgroundImageFix" stdDeviation="19.5"/>
<feComposite in2="SourceAlpha" operator="in" result="effect1_backgroundBlur_0_1"/>
<feBlend mode="normal" in="SourceGraphic" in2="effect1_backgroundBlur_0_1" result="shape"/>
</filter>
<linearGradient id="paint0_linear_0_1" x1="312.209" y1="242.527" x2="320.416" y2="241.453" gradientUnits="userSpaceOnUse">
<stop stop-color="#45F5A9"/>
<stop offset="1" stop-color="#00ECFD"/>
</linearGradient>
<linearGradient id="paint1_linear_0_1" x1="294.474" y1="192.78" x2="318.503" y2="181.838" gradientUnits="userSpaceOnUse">
<stop stop-color="#45F5A9"/>
<stop offset="1" stop-color="#00ECFD"/>
</linearGradient>
<linearGradient id="paint2_linear_0_1" x1="203.828" y1="238.487" x2="345.107" y2="217.45" gradientUnits="userSpaceOnUse">
<stop stop-color="#45F5A9"/>
<stop offset="1" stop-color="#00ECFD"/>
</linearGradient>
<linearGradient id="paint3_linear_0_1" x1="145.337" y1="246.262" x2="172.869" y2="230.429" gradientUnits="userSpaceOnUse">
<stop stop-color="#45F5A9"/>
<stop offset="1" stop-color="#00ECFD"/>
</linearGradient>
<linearGradient id="paint4_linear_0_1" x1="145.331" y1="163.345" x2="172.8" y2="147.62" gradientUnits="userSpaceOnUse">
<stop stop-color="#45F5A9"/>
<stop offset="1" stop-color="#00ECFD"/>
</linearGradient>
<linearGradient id="paint5_linear_0_1" x1="278.414" y1="242.53" x2="308.045" y2="222.367" gradientUnits="userSpaceOnUse">
<stop stop-color="#45F5A9"/>
<stop offset="1" stop-color="#00ECFD"/>
</linearGradient>
<linearGradient id="paint6_linear_0_1" x1="294.772" y1="217.655" x2="322.505" y2="201.472" gradientUnits="userSpaceOnUse">
<stop stop-color="#45F5A9"/>
<stop offset="1" stop-color="#00ECFD"/>
</linearGradient>
<linearGradient id="paint7_linear_0_1" x1="162.7" y1="217.702" x2="219.879" y2="210.758" gradientUnits="userSpaceOnUse">
<stop stop-color="#45F5A9"/>
<stop offset="1" stop-color="#00ECFD"/>
</linearGradient>
<linearGradient id="paint8_linear_0_1" x1="171.15" y1="172.097" x2="209.29" y2="164.156" gradientUnits="userSpaceOnUse">
<stop stop-color="#45F5A9"/>
<stop offset="1" stop-color="#00ECFD"/>
</linearGradient>
<linearGradient id="paint9_linear_0_1" x1="171.154" y1="245.799" x2="209.717" y2="238.92" gradientUnits="userSpaceOnUse">
<stop stop-color="#45F5A9"/>
<stop offset="1" stop-color="#00ECFD"/>
</linearGradient>
<clipPath id="clip0_0_1">
<rect width="199" height="199" fill="white" transform="translate(144 103)"/>
</clipPath>
</defs>
</svg>
