<svg viewBox="0 0 485 485" fill="none" xmlns="http://www.w3.org/2000/svg">
<g filter="url(#filter0_b_0_1)">
<circle cx="242.5" cy="242.5" r="242.5" fill="#002224" fill-opacity="0.44"/>
<circle cx="242.5" cy="242.5" r="242" stroke="#2EC09E"/>
</g>
<circle cx="173.5" cy="203.5" r="74" stroke="url(#paint0_linear_0_1)" stroke-width="3"/>
<path d="M122.099 212.684L122.1 212.686C123.495 215.8 125.56 218.564 128.148 220.779L128.154 220.785L128.16 220.79C130.114 222.522 132.376 223.868 134.827 224.756L134.831 224.758C137.312 225.669 139.935 226.132 142.577 226.125L142.584 226.125C145.957 226.138 149.293 225.412 152.358 223.999L152.366 223.996L152.366 223.996C155.413 222.62 158.077 220.513 160.121 217.858L160.134 217.841L160.148 217.824C161.869 215.779 163.205 213.435 164.091 210.909L164.092 210.906C164.984 208.392 165.439 205.743 165.437 203.074L165.437 203.069C165.456 199.003 164.402 195.005 162.382 191.481L162.364 191.448L162.347 191.414C162.287 191.288 162.192 191.182 162.073 191.109C161.957 191.037 161.823 191 161.687 191.002C161.52 191.01 161.358 191.062 161.217 191.152L159.296 192.487L159.293 192.489L159.23 192.533C158.309 193.168 157.631 193.636 157.23 193.879C157.129 193.962 157.045 194.066 156.984 194.184C156.919 194.311 156.883 194.451 156.879 194.594C156.883 194.902 156.956 195.206 157.092 195.483C158.274 197.808 158.886 200.382 158.875 202.992M122.099 212.684L157.875 202.988M122.099 212.684C119.608 207.157 119.323 200.88 121.304 195.148L121.305 195.147M122.099 212.684L121.305 195.147M158.875 202.992L157.875 202.988M158.875 202.992C158.875 202.992 158.875 202.992 158.875 202.992L157.875 202.988M158.875 202.992C158.868 204.891 158.54 206.776 157.905 208.565M157.875 202.988C157.869 204.776 157.56 206.549 156.962 208.233M157.905 208.565C157.906 208.564 157.906 208.563 157.907 208.562L156.962 208.233M157.905 208.565C157.271 210.39 156.306 212.083 155.06 213.557M157.905 208.565C157.905 208.566 157.905 208.567 157.904 208.568L156.962 208.233M156.962 208.233L155.06 213.557M155.06 213.557C155.064 213.552 155.067 213.548 155.071 213.543L154.285 212.924L155.048 213.571C155.052 213.566 155.056 213.562 155.06 213.557ZM155.06 213.557C153.584 215.427 151.685 216.918 149.52 217.905M155.06 213.557L142.729 218.404L142.728 219.404C145.074 219.406 147.392 218.895 149.52 217.905M149.52 217.905C149.521 217.905 149.522 217.904 149.524 217.904L149.102 216.997L149.516 217.907C149.518 217.906 149.519 217.906 149.52 217.905ZM121.305 195.147C122.174 192.62 123.503 190.278 125.224 188.238L125.232 188.229M121.305 195.147L125.232 188.229M125.232 188.229L125.239 188.219M125.232 188.229L125.239 188.219M125.239 188.219C127.219 185.75 129.707 183.74 132.533 182.326C135.284 180.954 138.286 180.163 141.353 180.001H141.454H141.47M125.239 188.219L141.47 180.001M141.47 180.001L141.486 180M141.47 180.001L141.486 180M141.486 180C141.507 179.999 141.528 180.003 141.548 180.012C141.567 180.02 141.585 180.033 141.599 180.049L141.604 180.055M141.486 180L141.604 180.055M141.604 180.055L141.609 180.06M141.604 180.055L141.609 180.06M141.609 180.06C141.707 180.167 141.771 180.301 141.792 180.445M141.609 180.06L141.792 180.445M141.792 180.445V186.186C141.792 186.31 141.775 186.383 141.762 186.421C141.75 186.454 141.739 186.466 141.734 186.472C141.723 186.483 141.63 186.567 141.301 186.598C139.168 186.787 137.096 187.405 135.207 188.416C133.303 189.42 131.633 190.817 130.306 192.514L141.792 180.445ZM127.988 209.904C127.989 209.905 127.99 209.907 127.99 209.908L128.899 209.491L127.986 209.899C127.987 209.9 127.987 209.902 127.988 209.904Z" stroke="url(#paint1_linear_0_1)" stroke-width="2"/>
<path d="M171.895 225.322L171.924 225.354C171.938 225.369 171.955 225.38 171.973 225.388C171.99 225.396 172.009 225.4 172.028 225.4H178.588H178.6L178.612 225.4C178.64 225.401 178.668 225.396 178.695 225.385C178.721 225.374 178.745 225.358 178.766 225.337L178.788 225.315L178.812 225.293C178.827 225.28 178.84 225.263 178.848 225.244C178.856 225.227 178.861 225.208 178.862 225.189V209.149C178.852 208.848 178.906 208.548 179.021 208.27C179.139 207.984 179.318 207.728 179.545 207.52C179.956 207.138 180.497 206.929 181.058 206.935H187.765H187.774V206.935C187.807 206.935 187.84 206.929 187.871 206.917C187.897 206.906 187.922 206.89 187.944 206.871C187.992 206.815 188.019 206.743 188.018 206.668L188.018 206.656H188.018V200.407C188.015 200.353 187.992 200.304 187.954 200.267L187.953 200.266C187.929 200.242 187.901 200.224 187.871 200.211L188.247 199.285L187.871 200.211C187.84 200.199 187.807 200.192 187.774 200.193L187.765 200.193L172.023 200.193H172.013L172.004 200.193C171.987 200.192 171.97 200.195 171.955 200.202M171.895 225.322L187.765 199.193H172.023C171.869 199.19 171.716 199.219 171.574 199.277C171.431 199.336 171.302 199.423 171.195 199.534C171.071 199.638 170.972 199.768 170.905 199.916M171.895 225.322L171.863 225.293C171.847 225.28 171.835 225.263 171.826 225.244C171.818 225.227 171.814 225.208 171.812 225.189M171.895 225.322L171.812 225.189M171.955 200.202L171.595 199.328L171.955 200.202C171.955 200.202 171.955 200.202 171.955 200.202ZM171.955 200.202C171.939 200.208 171.924 200.218 171.912 200.231L171.876 200.268L171.836 200.302C171.828 200.308 171.822 200.316 171.818 200.325L170.905 199.916M170.905 199.916C170.839 200.064 170.807 200.225 170.812 200.387L171.812 225.183C171.812 225.185 171.812 225.187 171.812 225.189M170.905 199.916L171.818 200.325C171.814 200.335 171.812 200.345 171.812 200.356L171.812 200.371V200.387V225.189M156.547 186.72L156.522 186.696C156.508 186.682 156.496 186.665 156.487 186.646L155.57 187.044L156.487 186.646C156.479 186.627 156.475 186.607 156.475 186.587V180.922C156.475 180.847 156.504 180.775 156.554 180.72C156.59 180.685 156.636 180.665 156.685 180.662H193.926C193.975 180.665 194.021 180.685 194.057 180.72C194.107 180.775 194.136 180.847 194.136 180.922V186.591V186.601L194.136 186.611C194.137 186.629 194.133 186.647 194.127 186.664C194.12 186.681 194.11 186.696 194.097 186.708L194.069 186.736L194.043 186.765C194.037 186.773 194.029 186.778 194.02 186.782L194.413 187.702L194.02 186.782C194.012 186.785 194.003 186.787 193.995 186.787L193.971 186.785H193.947L156.664 186.785L156.662 186.785C156.645 186.785 156.629 186.782 156.613 186.775C156.597 186.768 156.583 186.758 156.571 186.745L156.547 186.72Z" stroke="url(#paint2_linear_0_1)" stroke-width="2"/>
<path d="M221.18 225.384L221.147 225.358L221.113 225.336C221.058 225.3 221.017 225.248 220.994 225.185L217.666 212.801L217.659 212.777L217.652 212.753C217.461 212.162 217.087 211.646 216.583 211.283C216.093 210.891 215.483 210.676 214.854 210.674H214.852H204.825H204.808L204.791 210.675C204.786 210.675 204.78 210.674 204.776 210.672C204.771 210.67 204.767 210.668 204.763 210.664V205.533H204.763L204.763 205.522C204.763 205.521 204.763 205.521 204.763 205.52L204.764 205.519L204.801 205.483L204.813 205.467H204.825H212.776C213.102 205.476 213.427 205.412 213.726 205.278C214.03 205.143 214.299 204.94 214.513 204.684C214.749 204.404 214.905 204.065 214.964 203.703C215.02 203.361 214.987 203.011 214.869 202.687L211.164 189.129L211.162 189.12L211.159 189.11C210.989 188.532 210.631 188.026 210.141 187.675C209.643 187.285 209.03 187.072 208.397 187.07H208.394H207.948V187.07L207.935 187.071C207.33 187.078 206.748 187.293 206.283 187.676C205.782 188.021 205.416 188.528 205.246 189.113L205.243 189.121L205.241 189.129L202.81 198.019C202.802 198.036 202.792 198.05 202.779 198.061C202.775 198.062 202.772 198.062 202.768 198.063C202.758 198.063 202.747 198.062 202.737 198.059L202.7 198.047L202.663 198.038L196.418 196.502L196.409 196.5L196.41 196.499L196.422 196.457L200.594 181.108C200.63 181.022 200.69 180.948 200.766 180.895L200.814 180.861L200.858 180.822C200.915 180.772 200.985 180.741 201.058 180.733H215.283C215.393 180.744 215.499 180.783 215.59 180.847L215.641 180.883L215.696 180.913C215.746 180.94 215.787 180.985 215.81 181.039L227.947 225.472H221.426C221.337 225.469 221.251 225.439 221.18 225.384ZM228.249 225.469C228.249 225.469 228.248 225.469 228.246 225.469C228.248 225.469 228.249 225.468 228.249 225.469ZM204.76 210.666L204.76 210.666L204.744 210.672L204.725 210.68L204.722 210.681L203.86 211.046L204.722 210.681L204.725 210.68L204.744 210.672L204.76 210.666Z" stroke="url(#paint3_linear_0_1)" stroke-width="2"/>
<path d="M57.5523 328L53.7123 314H55.5123L58.5323 326L61.9523 314H63.8323L67.1723 326.04L70.2323 314H72.0323L68.1123 328H66.1923L62.8523 316.42L59.4323 328H57.5523ZM74.1269 328V317.48H75.8069V328H74.1269ZM74.9669 315.48C74.6335 315.48 74.3535 315.373 74.1269 315.16C73.9135 314.933 73.8069 314.653 73.8069 314.32C73.8069 313.987 73.9135 313.72 74.1269 313.52C74.3535 313.307 74.6335 313.2 74.9669 313.2C75.2869 313.2 75.5602 313.307 75.7869 313.52C76.0135 313.72 76.1269 313.987 76.1269 314.32C76.1269 314.653 76.0135 314.933 75.7869 315.16C75.5602 315.373 75.2869 315.48 74.9669 315.48ZM82.8711 328C82.2711 328 81.7511 327.907 81.3111 327.72C80.8711 327.533 80.5311 327.22 80.2911 326.78C80.0644 326.327 79.9511 325.72 79.9511 324.96V318.9H78.1111V317.48H79.9511L80.1711 314.86H81.6311V317.48H84.6111V318.9H81.6311V324.96C81.6311 325.587 81.7578 326.013 82.0111 326.24C82.2644 326.453 82.7111 326.56 83.3511 326.56H84.5711V328H82.8711ZM86.9161 328V313.6H88.5961V319.18C88.9428 318.58 89.4161 318.107 90.0161 317.76C90.6161 317.413 91.2628 317.24 91.9561 317.24C92.7694 317.24 93.4561 317.393 94.0161 317.7C94.5894 317.993 95.0228 318.447 95.3161 319.06C95.6228 319.673 95.7761 320.453 95.7761 321.4V328H94.1161V321.58C94.1161 320.62 93.8894 319.9 93.4361 319.42C92.9828 318.927 92.3694 318.68 91.5961 318.68C91.0494 318.68 90.5494 318.813 90.0961 319.08C89.6428 319.333 89.2761 319.713 88.9961 320.22C88.7294 320.727 88.5961 321.34 88.5961 322.06V328H86.9161ZM102.897 328.24C101.963 328.24 101.137 328 100.417 327.52C99.6967 327.04 99.1367 326.387 98.7367 325.56C98.3367 324.72 98.1367 323.773 98.1367 322.72C98.1367 321.653 98.3367 320.713 98.7367 319.9C99.1367 319.073 99.6967 318.427 100.417 317.96C101.137 317.48 101.97 317.24 102.917 317.24C103.743 317.24 104.45 317.407 105.037 317.74C105.637 318.073 106.11 318.54 106.457 319.14V313.6H108.137V328H106.617L106.477 326.32C106.277 326.653 106.01 326.967 105.677 327.26C105.357 327.553 104.963 327.793 104.497 327.98C104.043 328.153 103.51 328.24 102.897 328.24ZM103.117 326.78C103.783 326.78 104.363 326.62 104.857 326.3C105.35 325.967 105.73 325.5 105.997 324.9C106.263 324.287 106.397 323.567 106.397 322.74C106.397 321.913 106.263 321.2 105.997 320.6C105.73 319.987 105.35 319.52 104.857 319.2C104.363 318.867 103.783 318.7 103.117 318.7C102.49 318.7 101.93 318.867 101.437 319.2C100.943 319.52 100.557 319.987 100.277 320.6C99.9967 321.2 99.8567 321.913 99.8567 322.74C99.8567 323.567 99.9967 324.287 100.277 324.9C100.557 325.5 100.943 325.967 101.437 326.3C101.93 326.62 102.49 326.78 103.117 326.78ZM110.979 328V317.48H112.499L112.619 319.4C112.859 318.92 113.172 318.52 113.559 318.2C113.945 317.88 114.412 317.64 114.959 317.48C115.519 317.32 116.145 317.24 116.839 317.24V319H115.799C115.399 319 115.012 319.053 114.639 319.16C114.265 319.267 113.925 319.44 113.619 319.68C113.325 319.92 113.092 320.247 112.919 320.66C112.745 321.073 112.659 321.593 112.659 322.22V328H110.979ZM122.052 328.24C121.252 328.24 120.585 328.093 120.052 327.8C119.518 327.493 119.118 327.093 118.852 326.6C118.585 326.093 118.452 325.553 118.452 324.98C118.452 324.287 118.625 323.7 118.972 323.22C119.332 322.727 119.832 322.353 120.472 322.1C121.112 321.847 121.858 321.72 122.712 321.72H125.332C125.332 321.04 125.252 320.473 125.092 320.02C124.932 319.567 124.672 319.227 124.312 319C123.952 318.773 123.472 318.66 122.872 318.66C122.272 318.66 121.758 318.813 121.332 319.12C120.905 319.413 120.638 319.853 120.532 320.44H118.812C118.892 319.747 119.125 319.167 119.512 318.7C119.898 318.22 120.385 317.86 120.972 317.62C121.572 317.367 122.205 317.24 122.872 317.24C123.818 317.24 124.598 317.413 125.212 317.76C125.825 318.093 126.278 318.567 126.572 319.18C126.865 319.78 127.012 320.493 127.012 321.32V328H125.512L125.412 326.2C125.278 326.48 125.105 326.747 124.892 327C124.692 327.24 124.452 327.453 124.172 327.64C123.892 327.827 123.572 327.973 123.212 328.08C122.865 328.187 122.478 328.24 122.052 328.24ZM122.292 326.82C122.732 326.82 123.138 326.72 123.512 326.52C123.885 326.32 124.205 326.053 124.472 325.72C124.752 325.373 124.965 324.987 125.112 324.56C125.258 324.133 125.332 323.687 125.332 323.22V323.02H122.852C122.225 323.02 121.712 323.1 121.312 323.26C120.925 323.42 120.645 323.647 120.472 323.94C120.298 324.22 120.212 324.54 120.212 324.9C120.212 325.287 120.292 325.627 120.452 325.92C120.612 326.2 120.845 326.42 121.152 326.58C121.472 326.74 121.852 326.82 122.292 326.82ZM131.772 328L128.672 317.48H130.352L132.652 325.86L135.092 317.48H136.992L139.452 325.84L141.732 317.48H143.432L140.332 328H138.612L136.052 319.24L133.492 328H131.772ZM154.805 328C154.205 328 153.685 327.907 153.245 327.72C152.805 327.533 152.465 327.22 152.225 326.78C151.998 326.327 151.885 325.72 151.885 324.96V318.9H150.045V317.48H151.885L152.105 314.86H153.565V317.48H156.545V318.9H153.565V324.96C153.565 325.587 153.691 326.013 153.945 326.24C154.198 326.453 154.645 326.56 155.285 326.56H156.505V328H154.805ZM163.096 328.24C162.123 328.24 161.263 328.013 160.516 327.56C159.77 327.107 159.19 326.467 158.776 325.64C158.363 324.813 158.156 323.847 158.156 322.74C158.156 321.62 158.363 320.653 158.776 319.84C159.203 319.013 159.79 318.373 160.536 317.92C161.296 317.467 162.163 317.24 163.136 317.24C164.123 317.24 164.983 317.467 165.716 317.92C166.463 318.373 167.043 319.013 167.456 319.84C167.87 320.653 168.076 321.62 168.076 322.74C168.076 323.847 167.863 324.813 167.436 325.64C167.023 326.467 166.443 327.107 165.696 327.56C164.95 328.013 164.083 328.24 163.096 328.24ZM163.096 326.8C163.71 326.8 164.263 326.653 164.756 326.36C165.25 326.053 165.636 325.6 165.916 325C166.21 324.387 166.356 323.633 166.356 322.74C166.356 321.833 166.216 321.08 165.936 320.48C165.656 319.88 165.27 319.433 164.776 319.14C164.296 318.833 163.75 318.68 163.136 318.68C162.536 318.68 161.99 318.833 161.496 319.14C161.003 319.433 160.61 319.88 160.316 320.48C160.023 321.08 159.876 321.833 159.876 322.74C159.876 323.633 160.016 324.387 160.296 325C160.59 325.6 160.976 326.053 161.456 326.36C161.95 326.653 162.496 326.8 163.096 326.8ZM179.161 328.24C178.361 328.24 177.694 328.093 177.161 327.8C176.628 327.493 176.228 327.093 175.961 326.6C175.694 326.093 175.561 325.553 175.561 324.98C175.561 324.287 175.734 323.7 176.081 323.22C176.441 322.727 176.941 322.353 177.581 322.1C178.221 321.847 178.968 321.72 179.821 321.72H182.441C182.441 321.04 182.361 320.473 182.201 320.02C182.041 319.567 181.781 319.227 181.421 319C181.061 318.773 180.581 318.66 179.981 318.66C179.381 318.66 178.868 318.813 178.441 319.12C178.014 319.413 177.748 319.853 177.641 320.44H175.921C176.001 319.747 176.234 319.167 176.621 318.7C177.008 318.22 177.494 317.86 178.081 317.62C178.681 317.367 179.314 317.24 179.981 317.24C180.928 317.24 181.708 317.413 182.321 317.76C182.934 318.093 183.388 318.567 183.681 319.18C183.974 319.78 184.121 320.493 184.121 321.32V328H182.621L182.521 326.2C182.388 326.48 182.214 326.747 182.001 327C181.801 327.24 181.561 327.453 181.281 327.64C181.001 327.827 180.681 327.973 180.321 328.08C179.974 328.187 179.588 328.24 179.161 328.24ZM179.401 326.82C179.841 326.82 180.248 326.72 180.621 326.52C180.994 326.32 181.314 326.053 181.581 325.72C181.861 325.373 182.074 324.987 182.221 324.56C182.368 324.133 182.441 323.687 182.441 323.22V323.02H179.961C179.334 323.02 178.821 323.1 178.421 323.26C178.034 323.42 177.754 323.647 177.581 323.94C177.408 324.22 177.321 324.54 177.321 324.9C177.321 325.287 177.401 325.627 177.561 325.92C177.721 326.2 177.954 326.42 178.261 326.58C178.581 326.74 178.961 326.82 179.401 326.82ZM196.808 328.24C195.848 328.24 194.994 328.013 194.248 327.56C193.501 327.093 192.914 326.447 192.488 325.62C192.061 324.793 191.848 323.833 191.848 322.74C191.848 321.633 192.061 320.673 192.488 319.86C192.914 319.033 193.501 318.393 194.248 317.94C194.994 317.473 195.848 317.24 196.808 317.24C198.008 317.24 199.008 317.56 199.808 318.2C200.621 318.84 201.141 319.7 201.368 320.78H199.648C199.501 320.113 199.161 319.6 198.628 319.24C198.108 318.867 197.494 318.68 196.788 318.68C196.174 318.68 195.621 318.833 195.128 319.14C194.648 319.447 194.268 319.9 193.988 320.5C193.708 321.1 193.568 321.847 193.568 322.74C193.568 323.407 193.648 324 193.808 324.52C193.968 325.027 194.188 325.453 194.468 325.8C194.761 326.133 195.101 326.387 195.488 326.56C195.888 326.733 196.321 326.82 196.788 326.82C197.268 326.82 197.701 326.74 198.088 326.58C198.488 326.407 198.821 326.16 199.088 325.84C199.368 325.52 199.554 325.14 199.648 324.7H201.368C201.154 325.753 200.634 326.607 199.808 327.26C198.994 327.913 197.994 328.24 196.808 328.24ZM203.811 328V317.48H205.331L205.451 319.4C205.691 318.92 206.004 318.52 206.391 318.2C206.777 317.88 207.244 317.64 207.791 317.48C208.351 317.32 208.977 317.24 209.671 317.24V319H208.631C208.231 319 207.844 319.053 207.471 319.16C207.097 319.267 206.757 319.44 206.451 319.68C206.157 319.92 205.924 320.247 205.751 320.66C205.577 321.073 205.491 321.593 205.491 322.22V328H203.811ZM212.784 332.4L215.164 326.88H214.584L210.644 317.48H212.464L215.724 325.58L219.124 317.48H220.864L214.524 332.4H212.784ZM222.736 332.4V317.48H224.256L224.396 319.12C224.61 318.773 224.876 318.46 225.196 318.18C225.53 317.9 225.923 317.673 226.376 317.5C226.843 317.327 227.376 317.24 227.976 317.24C228.923 317.24 229.75 317.48 230.456 317.96C231.176 318.44 231.736 319.093 232.136 319.92C232.536 320.747 232.736 321.693 232.736 322.76C232.736 323.813 232.536 324.753 232.136 325.58C231.736 326.407 231.176 327.06 230.456 327.54C229.736 328.007 228.903 328.24 227.956 328.24C227.143 328.24 226.43 328.073 225.816 327.74C225.203 327.407 224.736 326.94 224.416 326.34V332.4H222.736ZM227.756 326.78C228.383 326.78 228.936 326.62 229.416 326.3C229.91 325.967 230.296 325.5 230.576 324.9C230.87 324.287 231.016 323.567 231.016 322.74C231.016 321.913 230.87 321.2 230.576 320.6C230.296 319.987 229.91 319.52 229.416 319.2C228.936 318.867 228.383 318.7 227.756 318.7C227.09 318.7 226.51 318.867 226.016 319.2C225.523 319.52 225.143 319.987 224.876 320.6C224.61 321.2 224.476 321.913 224.476 322.74C224.476 323.567 224.61 324.287 224.876 324.9C225.143 325.5 225.523 325.967 226.016 326.3C226.51 326.62 227.09 326.78 227.756 326.78ZM238.867 328C238.267 328 237.747 327.907 237.307 327.72C236.867 327.533 236.527 327.22 236.287 326.78C236.061 326.327 235.947 325.72 235.947 324.96V318.9H234.107V317.48H235.947L236.167 314.86H237.627V317.48H240.607V318.9H237.627V324.96C237.627 325.587 237.754 326.013 238.007 326.24C238.261 326.453 238.707 326.56 239.347 326.56H240.567V328H238.867ZM247.159 328.24C246.185 328.24 245.325 328.013 244.579 327.56C243.832 327.107 243.252 326.467 242.839 325.64C242.425 324.813 242.219 323.847 242.219 322.74C242.219 321.62 242.425 320.653 242.839 319.84C243.265 319.013 243.852 318.373 244.599 317.92C245.359 317.467 246.225 317.24 247.199 317.24C248.185 317.24 249.045 317.467 249.779 317.92C250.525 318.373 251.105 319.013 251.519 319.84C251.932 320.653 252.139 321.62 252.139 322.74C252.139 323.847 251.925 324.813 251.499 325.64C251.085 326.467 250.505 327.107 249.759 327.56C249.012 328.013 248.145 328.24 247.159 328.24ZM247.159 326.8C247.772 326.8 248.325 326.653 248.819 326.36C249.312 326.053 249.699 325.6 249.979 325C250.272 324.387 250.419 323.633 250.419 322.74C250.419 321.833 250.279 321.08 249.999 320.48C249.719 319.88 249.332 319.433 248.839 319.14C248.359 318.833 247.812 318.68 247.199 318.68C246.599 318.68 246.052 318.833 245.559 319.14C245.065 319.433 244.672 319.88 244.379 320.48C244.085 321.08 243.939 321.833 243.939 322.74C243.939 323.633 244.079 324.387 244.359 325C244.652 325.6 245.039 326.053 245.519 326.36C246.012 326.653 246.559 326.8 247.159 326.8ZM259.112 328.24C258.152 328.24 257.299 328.013 256.552 327.56C255.806 327.093 255.219 326.447 254.792 325.62C254.366 324.793 254.152 323.833 254.152 322.74C254.152 321.633 254.366 320.673 254.792 319.86C255.219 319.033 255.806 318.393 256.552 317.94C257.299 317.473 258.152 317.24 259.112 317.24C260.312 317.24 261.312 317.56 262.112 318.2C262.926 318.84 263.446 319.7 263.672 320.78H261.952C261.806 320.113 261.466 319.6 260.932 319.24C260.412 318.867 259.799 318.68 259.092 318.68C258.479 318.68 257.926 318.833 257.432 319.14C256.952 319.447 256.572 319.9 256.292 320.5C256.012 321.1 255.872 321.847 255.872 322.74C255.872 323.407 255.952 324 256.112 324.52C256.272 325.027 256.492 325.453 256.772 325.8C257.066 326.133 257.406 326.387 257.792 326.56C258.192 326.733 258.626 326.82 259.092 326.82C259.572 326.82 260.006 326.74 260.392 326.58C260.792 326.407 261.126 326.16 261.392 325.84C261.672 325.52 261.859 325.14 261.952 324.7H263.672C263.459 325.753 262.939 326.607 262.112 327.26C261.299 327.913 260.299 328.24 259.112 328.24ZM269.895 328.24C269.122 328.24 268.449 328.093 267.875 327.8C267.302 327.507 266.855 327.06 266.535 326.46C266.215 325.847 266.055 325.087 266.055 324.18V317.48H267.735V324C267.735 324.933 267.962 325.633 268.415 326.1C268.882 326.567 269.502 326.8 270.275 326.8C270.809 326.8 271.289 326.68 271.715 326.44C272.142 326.187 272.482 325.82 272.735 325.34C273.002 324.86 273.135 324.273 273.135 323.58V317.48H274.815V328H273.295L273.195 326.32C272.915 326.933 272.482 327.407 271.895 327.74C271.322 328.073 270.655 328.24 269.895 328.24ZM277.658 328V317.48H279.178L279.298 319.4C279.538 318.92 279.852 318.52 280.238 318.2C280.625 317.88 281.092 317.64 281.638 317.48C282.198 317.32 282.825 317.24 283.518 317.24V319H282.478C282.078 319 281.692 319.053 281.318 319.16C280.945 319.267 280.605 319.44 280.298 319.68C280.005 319.92 279.772 320.247 279.598 320.66C279.425 321.073 279.338 321.593 279.338 322.22V328H277.658ZM285.451 328V317.48H286.971L287.091 319.4C287.331 318.92 287.645 318.52 288.031 318.2C288.418 317.88 288.885 317.64 289.431 317.48C289.991 317.32 290.618 317.24 291.311 317.24V319H290.271C289.871 319 289.485 319.053 289.111 319.16C288.738 319.267 288.398 319.44 288.091 319.68C287.798 319.92 287.565 320.247 287.391 320.66C287.218 321.073 287.131 321.593 287.131 322.22V328H285.451ZM297.233 328.24C296.3 328.24 295.473 328.013 294.753 327.56C294.033 327.107 293.466 326.467 293.053 325.64C292.653 324.813 292.453 323.847 292.453 322.74C292.453 321.633 292.653 320.667 293.053 319.84C293.466 319.013 294.033 318.373 294.753 317.92C295.486 317.467 296.326 317.24 297.273 317.24C298.286 317.24 299.133 317.467 299.813 317.92C300.493 318.373 301.006 318.98 301.353 319.74C301.7 320.5 301.873 321.333 301.873 322.24C301.873 322.373 301.873 322.507 301.873 322.64C301.873 322.773 301.866 322.933 301.853 323.12H293.713V321.82H300.233C300.206 320.793 299.906 320.013 299.333 319.48C298.773 318.933 298.073 318.66 297.233 318.66C296.673 318.66 296.153 318.8 295.673 319.08C295.206 319.347 294.826 319.747 294.533 320.28C294.24 320.813 294.093 321.48 294.093 322.28V322.84C294.093 323.72 294.24 324.46 294.533 325.06C294.826 325.647 295.206 326.087 295.673 326.38C296.153 326.673 296.673 326.82 297.233 326.82C297.98 326.82 298.566 326.68 298.993 326.4C299.42 326.107 299.733 325.693 299.933 325.16H301.593C301.433 325.747 301.153 326.273 300.753 326.74C300.366 327.207 299.873 327.573 299.273 327.84C298.686 328.107 298.006 328.24 297.233 328.24ZM304.201 328V317.48H305.721L305.801 319.14C306.108 318.54 306.548 318.073 307.121 317.74C307.708 317.407 308.381 317.24 309.141 317.24C309.915 317.24 310.588 317.387 311.161 317.68C311.735 317.973 312.181 318.42 312.501 319.02C312.821 319.62 312.981 320.38 312.981 321.3V328H311.301V321.48C311.301 320.547 311.068 319.847 310.601 319.38C310.148 318.913 309.535 318.68 308.761 318.68C308.241 318.68 307.761 318.807 307.321 319.06C306.881 319.3 306.528 319.66 306.261 320.14C306.008 320.62 305.881 321.207 305.881 321.9V328H304.201ZM320.304 328.24C319.344 328.24 318.49 328.013 317.744 327.56C316.997 327.093 316.41 326.447 315.984 325.62C315.557 324.793 315.344 323.833 315.344 322.74C315.344 321.633 315.557 320.673 315.984 319.86C316.41 319.033 316.997 318.393 317.744 317.94C318.49 317.473 319.344 317.24 320.304 317.24C321.504 317.24 322.504 317.56 323.304 318.2C324.117 318.84 324.637 319.7 324.864 320.78H323.144C322.997 320.113 322.657 319.6 322.124 319.24C321.604 318.867 320.99 318.68 320.284 318.68C319.67 318.68 319.117 318.833 318.624 319.14C318.144 319.447 317.764 319.9 317.484 320.5C317.204 321.1 317.064 321.847 317.064 322.74C317.064 323.407 317.144 324 317.304 324.52C317.464 325.027 317.684 325.453 317.964 325.8C318.257 326.133 318.597 326.387 318.984 326.56C319.384 326.733 319.817 326.82 320.284 326.82C320.764 326.82 321.197 326.74 321.584 326.58C321.984 326.407 322.317 326.16 322.584 325.84C322.864 325.52 323.05 325.14 323.144 324.7H324.864C324.65 325.753 324.13 326.607 323.304 327.26C322.49 327.913 321.49 328.24 320.304 328.24ZM328.487 332.4L330.867 326.88H330.287L326.347 317.48H328.167L331.427 325.58L334.827 317.48H336.567L330.227 332.4H328.487ZM348.171 328.24C347.237 328.24 346.411 328.013 345.691 327.56C344.971 327.107 344.404 326.467 343.991 325.64C343.591 324.813 343.391 323.847 343.391 322.74C343.391 321.633 343.591 320.667 343.991 319.84C344.404 319.013 344.971 318.373 345.691 317.92C346.424 317.467 347.264 317.24 348.211 317.24C349.224 317.24 350.071 317.467 350.751 317.92C351.431 318.373 351.944 318.98 352.291 319.74C352.637 320.5 352.811 321.333 352.811 322.24C352.811 322.373 352.811 322.507 352.811 322.64C352.811 322.773 352.804 322.933 352.791 323.12H344.651V321.82H351.171C351.144 320.793 350.844 320.013 350.271 319.48C349.711 318.933 349.011 318.66 348.171 318.66C347.611 318.66 347.091 318.8 346.611 319.08C346.144 319.347 345.764 319.747 345.471 320.28C345.177 320.813 345.031 321.48 345.031 322.28V322.84C345.031 323.72 345.177 324.46 345.471 325.06C345.764 325.647 346.144 326.087 346.611 326.38C347.091 326.673 347.611 326.82 348.171 326.82C348.917 326.82 349.504 326.68 349.931 326.4C350.357 326.107 350.671 325.693 350.871 325.16H352.531C352.371 325.747 352.091 326.273 351.691 326.74C351.304 327.207 350.811 327.573 350.211 327.84C349.624 328.107 348.944 328.24 348.171 328.24ZM353.73 328L357.09 322.72L353.73 317.48H355.57L358.17 321.66L360.79 317.48H362.61L359.25 322.72L362.61 328H360.79L358.17 323.72L355.59 328H353.73ZM368.605 328.24C367.645 328.24 366.791 328.013 366.045 327.56C365.298 327.093 364.711 326.447 364.285 325.62C363.858 324.793 363.645 323.833 363.645 322.74C363.645 321.633 363.858 320.673 364.285 319.86C364.711 319.033 365.298 318.393 366.045 317.94C366.791 317.473 367.645 317.24 368.605 317.24C369.805 317.24 370.805 317.56 371.605 318.2C372.418 318.84 372.938 319.7 373.165 320.78H371.445C371.298 320.113 370.958 319.6 370.425 319.24C369.905 318.867 369.291 318.68 368.585 318.68C367.971 318.68 367.418 318.833 366.925 319.14C366.445 319.447 366.065 319.9 365.785 320.5C365.505 321.1 365.365 321.847 365.365 322.74C365.365 323.407 365.445 324 365.605 324.52C365.765 325.027 365.985 325.453 366.265 325.8C366.558 326.133 366.898 326.387 367.285 326.56C367.685 326.733 368.118 326.82 368.585 326.82C369.065 326.82 369.498 326.74 369.885 326.58C370.285 326.407 370.618 326.16 370.885 325.84C371.165 325.52 371.351 325.14 371.445 324.7H373.165C372.951 325.753 372.431 326.607 371.605 327.26C370.791 327.913 369.791 328.24 368.605 328.24ZM375.608 328V313.6H377.288V319.18C377.634 318.58 378.108 318.107 378.708 317.76C379.308 317.413 379.954 317.24 380.648 317.24C381.461 317.24 382.148 317.393 382.708 317.7C383.281 317.993 383.714 318.447 384.008 319.06C384.314 319.673 384.467 320.453 384.467 321.4V328H382.808V321.58C382.808 320.62 382.581 319.9 382.128 319.42C381.674 318.927 381.061 318.68 380.288 318.68C379.741 318.68 379.241 318.813 378.788 319.08C378.334 319.333 377.968 319.713 377.688 320.22C377.421 320.727 377.288 321.34 377.288 322.06V328H375.608ZM390.528 328.24C389.728 328.24 389.061 328.093 388.528 327.8C387.995 327.493 387.595 327.093 387.328 326.6C387.061 326.093 386.928 325.553 386.928 324.98C386.928 324.287 387.101 323.7 387.448 323.22C387.808 322.727 388.308 322.353 388.948 322.1C389.588 321.847 390.335 321.72 391.188 321.72H393.808C393.808 321.04 393.728 320.473 393.568 320.02C393.408 319.567 393.148 319.227 392.788 319C392.428 318.773 391.948 318.66 391.348 318.66C390.748 318.66 390.235 318.813 389.808 319.12C389.381 319.413 389.115 319.853 389.008 320.44H387.288C387.368 319.747 387.601 319.167 387.988 318.7C388.375 318.22 388.861 317.86 389.448 317.62C390.048 317.367 390.681 317.24 391.348 317.24C392.295 317.24 393.075 317.413 393.688 317.76C394.301 318.093 394.755 318.567 395.048 319.18C395.341 319.78 395.488 320.493 395.488 321.32V328H393.988L393.888 326.2C393.755 326.48 393.581 326.747 393.368 327C393.168 327.24 392.928 327.453 392.648 327.64C392.368 327.827 392.048 327.973 391.688 328.08C391.341 328.187 390.955 328.24 390.528 328.24ZM390.768 326.82C391.208 326.82 391.615 326.72 391.988 326.52C392.361 326.32 392.681 326.053 392.948 325.72C393.228 325.373 393.441 324.987 393.588 324.56C393.735 324.133 393.808 323.687 393.808 323.22V323.02H391.328C390.701 323.02 390.188 323.1 389.788 323.26C389.401 323.42 389.121 323.647 388.948 323.94C388.775 324.22 388.688 324.54 388.688 324.9C388.688 325.287 388.768 325.627 388.928 325.92C389.088 326.2 389.321 326.42 389.628 326.58C389.948 326.74 390.328 326.82 390.768 326.82ZM398.264 328V317.48H399.784L399.864 319.14C400.17 318.54 400.61 318.073 401.184 317.74C401.77 317.407 402.444 317.24 403.204 317.24C403.977 317.24 404.65 317.387 405.224 317.68C405.797 317.973 406.244 318.42 406.564 319.02C406.884 319.62 407.044 320.38 407.044 321.3V328H405.364V321.48C405.364 320.547 405.13 319.847 404.664 319.38C404.21 318.913 403.597 318.68 402.824 318.68C402.304 318.68 401.824 318.807 401.384 319.06C400.944 319.3 400.59 319.66 400.324 320.14C400.07 320.62 399.944 321.207 399.944 321.9V328H398.264ZM413.946 332.64C413 332.64 412.166 332.52 411.446 332.28C410.74 332.053 410.186 331.7 409.786 331.22C409.4 330.74 409.206 330.147 409.206 329.44C409.206 329.107 409.266 328.76 409.386 328.4C409.52 328.04 409.74 327.693 410.046 327.36C410.366 327.027 410.813 326.727 411.386 326.46L412.666 327.14C411.906 327.433 411.413 327.773 411.186 328.16C410.96 328.547 410.846 328.92 410.846 329.28C410.846 329.72 410.973 330.087 411.226 330.38C411.493 330.673 411.86 330.893 412.326 331.04C412.793 331.187 413.333 331.26 413.946 331.26C414.546 331.26 415.06 331.18 415.486 331.02C415.926 330.873 416.26 330.653 416.486 330.36C416.726 330.08 416.846 329.747 416.846 329.36C416.846 328.8 416.666 328.36 416.306 328.04C415.946 327.733 415.246 327.553 414.206 327.5C413.393 327.447 412.713 327.373 412.166 327.28C411.62 327.187 411.166 327.08 410.806 326.96C410.46 326.827 410.166 326.68 409.926 326.52C409.7 326.36 409.493 326.193 409.306 326.02V325.56L411.286 323.66L412.866 324.18L410.706 325.96L410.966 325.2C411.113 325.307 411.253 325.407 411.386 325.5C411.52 325.593 411.7 325.68 411.926 325.76C412.166 325.827 412.493 325.893 412.906 325.96C413.333 326.027 413.893 326.087 414.586 326.14C415.546 326.207 416.313 326.367 416.886 326.62C417.46 326.873 417.873 327.227 418.126 327.68C418.38 328.12 418.506 328.66 418.506 329.3C418.506 329.86 418.346 330.393 418.026 330.9C417.72 331.407 417.226 331.82 416.546 332.14C415.88 332.473 415.013 332.64 413.946 332.64ZM413.926 324.72C413.073 324.72 412.346 324.56 411.746 324.24C411.16 323.907 410.713 323.46 410.406 322.9C410.1 322.327 409.946 321.687 409.946 320.98C409.946 320.273 410.1 319.64 410.406 319.08C410.726 318.52 411.18 318.073 411.766 317.74C412.366 317.407 413.086 317.24 413.926 317.24C414.793 317.24 415.52 317.407 416.106 317.74C416.693 318.073 417.14 318.52 417.446 319.08C417.753 319.64 417.906 320.273 417.906 320.98C417.906 321.687 417.753 322.327 417.446 322.9C417.14 323.46 416.693 323.907 416.106 324.24C415.52 324.56 414.793 324.72 413.926 324.72ZM413.926 323.34C414.673 323.34 415.253 323.147 415.666 322.76C416.08 322.36 416.286 321.767 416.286 320.98C416.286 320.193 416.08 319.607 415.666 319.22C415.253 318.833 414.673 318.64 413.926 318.64C413.22 318.64 412.64 318.833 412.186 319.22C411.746 319.607 411.526 320.193 411.526 320.98C411.526 321.767 411.74 322.36 412.166 322.76C412.606 323.147 413.193 323.34 413.926 323.34ZM415.686 318.9L415.186 317.48H419.306V318.74L415.686 318.9ZM425.3 328.24C424.366 328.24 423.54 328.013 422.82 327.56C422.1 327.107 421.533 326.467 421.12 325.64C420.72 324.813 420.52 323.847 420.52 322.74C420.52 321.633 420.72 320.667 421.12 319.84C421.533 319.013 422.1 318.373 422.82 317.92C423.553 317.467 424.393 317.24 425.34 317.24C426.353 317.24 427.2 317.467 427.88 317.92C428.56 318.373 429.073 318.98 429.42 319.74C429.766 320.5 429.94 321.333 429.94 322.24C429.94 322.373 429.94 322.507 429.94 322.64C429.94 322.773 429.933 322.933 429.92 323.12H421.78V321.82H428.3C428.273 320.793 427.973 320.013 427.4 319.48C426.84 318.933 426.14 318.66 425.3 318.66C424.74 318.66 424.22 318.8 423.74 319.08C423.273 319.347 422.893 319.747 422.6 320.28C422.306 320.813 422.16 321.48 422.16 322.28V322.84C422.16 323.72 422.306 324.46 422.6 325.06C422.893 325.647 423.273 326.087 423.74 326.38C424.22 326.673 424.74 326.82 425.3 326.82C426.046 326.82 426.633 326.68 427.06 326.4C427.486 326.107 427.8 325.693 428 325.16H429.66C429.5 325.747 429.22 326.273 428.82 326.74C428.433 327.207 427.94 327.573 427.34 327.84C426.753 328.107 426.073 328.24 425.3 328.24ZM88.2792 354V342.36C88.2792 341.72 88.3859 341.2 88.5992 340.8C88.8126 340.387 89.1259 340.087 89.5392 339.9C89.9659 339.7 90.4859 339.6 91.0992 339.6H92.6392V341.04H91.3792C90.8726 341.04 90.5059 341.147 90.2792 341.36C90.0659 341.56 89.9592 341.913 89.9592 342.42V354H88.2792ZM86.6392 344.9V343.48H92.7592V344.9H86.6392ZM98.9752 354.24C98.0018 354.24 97.1418 354.013 96.3952 353.56C95.6485 353.107 95.0685 352.467 94.6552 351.64C94.2418 350.813 94.0352 349.847 94.0352 348.74C94.0352 347.62 94.2418 346.653 94.6552 345.84C95.0818 345.013 95.6685 344.373 96.4152 343.92C97.1752 343.467 98.0418 343.24 99.0152 343.24C100.002 343.24 100.862 343.467 101.595 343.92C102.342 344.373 102.922 345.013 103.335 345.84C103.748 346.653 103.955 347.62 103.955 348.74C103.955 349.847 103.742 350.813 103.315 351.64C102.902 352.467 102.322 353.107 101.575 353.56C100.828 354.013 99.9618 354.24 98.9752 354.24ZM98.9752 352.8C99.5885 352.8 100.142 352.653 100.635 352.36C101.128 352.053 101.515 351.6 101.795 351C102.088 350.387 102.235 349.633 102.235 348.74C102.235 347.833 102.095 347.08 101.815 346.48C101.535 345.88 101.148 345.433 100.655 345.14C100.175 344.833 99.6285 344.68 99.0152 344.68C98.4152 344.68 97.8685 344.833 97.3752 345.14C96.8818 345.433 96.4885 345.88 96.1952 346.48C95.9018 347.08 95.7552 347.833 95.7552 348.74C95.7552 349.633 95.8952 350.387 96.1752 351C96.4685 351.6 96.8552 352.053 97.3352 352.36C97.8285 352.653 98.3752 352.8 98.9752 352.8ZM106.389 354V343.48H107.909L108.029 345.4C108.269 344.92 108.582 344.52 108.969 344.2C109.355 343.88 109.822 343.64 110.369 343.48C110.929 343.32 111.555 343.24 112.249 343.24V345H111.209C110.809 345 110.422 345.053 110.049 345.16C109.675 345.267 109.335 345.44 109.029 345.68C108.735 345.92 108.502 346.247 108.329 346.66C108.155 347.073 108.069 347.593 108.069 348.22V354H106.389ZM123.633 354C123.033 354 122.513 353.907 122.073 353.72C121.633 353.533 121.293 353.22 121.053 352.78C120.826 352.327 120.713 351.72 120.713 350.96V344.9H118.873V343.48H120.713L120.933 340.86H122.393V343.48H125.373V344.9H122.393V350.96C122.393 351.587 122.519 352.013 122.773 352.24C123.026 352.453 123.473 352.56 124.113 352.56H125.333V354H123.633ZM127.678 354V343.48H129.198L129.318 345.4C129.558 344.92 129.871 344.52 130.258 344.2C130.644 343.88 131.111 343.64 131.658 343.48C132.218 343.32 132.844 343.24 133.538 343.24V345H132.498C132.098 345 131.711 345.053 131.338 345.16C130.964 345.267 130.624 345.44 130.318 345.68C130.024 345.92 129.791 346.247 129.618 346.66C129.444 347.073 129.358 347.593 129.358 348.22V354H127.678ZM138.751 354.24C137.951 354.24 137.284 354.093 136.751 353.8C136.217 353.493 135.817 353.093 135.551 352.6C135.284 352.093 135.151 351.553 135.151 350.98C135.151 350.287 135.324 349.7 135.671 349.22C136.031 348.727 136.531 348.353 137.171 348.1C137.811 347.847 138.557 347.72 139.411 347.72H142.031C142.031 347.04 141.951 346.473 141.791 346.02C141.631 345.567 141.371 345.227 141.011 345C140.651 344.773 140.171 344.66 139.571 344.66C138.971 344.66 138.457 344.813 138.031 345.12C137.604 345.413 137.337 345.853 137.231 346.44H135.511C135.591 345.747 135.824 345.167 136.211 344.7C136.597 344.22 137.084 343.86 137.671 343.62C138.271 343.367 138.904 343.24 139.571 343.24C140.517 343.24 141.297 343.413 141.911 343.76C142.524 344.093 142.977 344.567 143.271 345.18C143.564 345.78 143.711 346.493 143.711 347.32V354H142.211L142.111 352.2C141.977 352.48 141.804 352.747 141.591 353C141.391 353.24 141.151 353.453 140.871 353.64C140.591 353.827 140.271 353.973 139.911 354.08C139.564 354.187 139.177 354.24 138.751 354.24ZM138.991 352.82C139.431 352.82 139.837 352.72 140.211 352.52C140.584 352.32 140.904 352.053 141.171 351.72C141.451 351.373 141.664 350.987 141.811 350.56C141.957 350.133 142.031 349.687 142.031 349.22V349.02H139.551C138.924 349.02 138.411 349.1 138.011 349.26C137.624 349.42 137.344 349.647 137.171 349.94C136.997 350.22 136.911 350.54 136.911 350.9C136.911 351.287 136.991 351.627 137.151 351.92C137.311 352.2 137.544 352.42 137.851 352.58C138.171 352.74 138.551 352.82 138.991 352.82ZM150.826 354.24C149.893 354.24 149.066 354 148.346 353.52C147.626 353.04 147.066 352.387 146.666 351.56C146.266 350.72 146.066 349.773 146.066 348.72C146.066 347.653 146.266 346.713 146.666 345.9C147.066 345.073 147.626 344.427 148.346 343.96C149.066 343.48 149.9 343.24 150.846 343.24C151.673 343.24 152.38 343.407 152.966 343.74C153.566 344.073 154.04 344.54 154.386 345.14V339.6H156.066V354H154.546L154.406 352.32C154.206 352.653 153.94 352.967 153.606 353.26C153.286 353.553 152.893 353.793 152.426 353.98C151.973 354.153 151.44 354.24 150.826 354.24ZM151.046 352.78C151.713 352.78 152.293 352.62 152.786 352.3C153.28 351.967 153.66 351.5 153.926 350.9C154.193 350.287 154.326 349.567 154.326 348.74C154.326 347.913 154.193 347.2 153.926 346.6C153.66 345.987 153.28 345.52 152.786 345.2C152.293 344.867 151.713 344.7 151.046 344.7C150.42 344.7 149.86 344.867 149.366 345.2C148.873 345.52 148.486 345.987 148.206 346.6C147.926 347.2 147.786 347.913 147.786 348.74C147.786 349.567 147.926 350.287 148.206 350.9C148.486 351.5 148.873 351.967 149.366 352.3C149.86 352.62 150.42 352.78 151.046 352.78ZM159.068 354V343.48H160.748V354H159.068ZM159.908 341.48C159.575 341.48 159.295 341.373 159.068 341.16C158.855 340.933 158.748 340.653 158.748 340.32C158.748 339.987 158.855 339.72 159.068 339.52C159.295 339.307 159.575 339.2 159.908 339.2C160.228 339.2 160.502 339.307 160.728 339.52C160.955 339.72 161.068 339.987 161.068 340.32C161.068 340.653 160.955 340.933 160.728 341.16C160.502 341.373 160.228 341.48 159.908 341.48ZM163.733 354V343.48H165.252L165.333 345.14C165.639 344.54 166.079 344.073 166.653 343.74C167.239 343.407 167.913 343.24 168.673 343.24C169.446 343.24 170.119 343.387 170.693 343.68C171.266 343.973 171.713 344.42 172.033 345.02C172.353 345.62 172.513 346.38 172.513 347.3V354H170.833V347.48C170.833 346.547 170.599 345.847 170.133 345.38C169.679 344.913 169.066 344.68 168.293 344.68C167.773 344.68 167.293 344.807 166.853 345.06C166.413 345.3 166.059 345.66 165.793 346.14C165.539 346.62 165.413 347.207 165.413 347.9V354H163.733ZM179.415 358.64C178.468 358.64 177.635 358.52 176.915 358.28C176.208 358.053 175.655 357.7 175.255 357.22C174.868 356.74 174.675 356.147 174.675 355.44C174.675 355.107 174.735 354.76 174.855 354.4C174.988 354.04 175.208 353.693 175.515 353.36C175.835 353.027 176.282 352.727 176.855 352.46L178.135 353.14C177.375 353.433 176.882 353.773 176.655 354.16C176.428 354.547 176.315 354.92 176.315 355.28C176.315 355.72 176.442 356.087 176.695 356.38C176.962 356.673 177.328 356.893 177.795 357.04C178.262 357.187 178.802 357.26 179.415 357.26C180.015 357.26 180.528 357.18 180.955 357.02C181.395 356.873 181.728 356.653 181.955 356.36C182.195 356.08 182.315 355.747 182.315 355.36C182.315 354.8 182.135 354.36 181.775 354.04C181.415 353.733 180.715 353.553 179.675 353.5C178.862 353.447 178.182 353.373 177.635 353.28C177.088 353.187 176.635 353.08 176.275 352.96C175.928 352.827 175.635 352.68 175.395 352.52C175.168 352.36 174.962 352.193 174.775 352.02V351.56L176.755 349.66L178.335 350.18L176.175 351.96L176.435 351.2C176.582 351.307 176.722 351.407 176.855 351.5C176.988 351.593 177.168 351.68 177.395 351.76C177.635 351.827 177.962 351.893 178.375 351.96C178.802 352.027 179.362 352.087 180.055 352.14C181.015 352.207 181.782 352.367 182.355 352.62C182.928 352.873 183.342 353.227 183.595 353.68C183.848 354.12 183.975 354.66 183.975 355.3C183.975 355.86 183.815 356.393 183.495 356.9C183.188 357.407 182.695 357.82 182.015 358.14C181.348 358.473 180.482 358.64 179.415 358.64ZM179.395 350.72C178.542 350.72 177.815 350.56 177.215 350.24C176.628 349.907 176.182 349.46 175.875 348.9C175.568 348.327 175.415 347.687 175.415 346.98C175.415 346.273 175.568 345.64 175.875 345.08C176.195 344.52 176.648 344.073 177.235 343.74C177.835 343.407 178.555 343.24 179.395 343.24C180.262 343.24 180.988 343.407 181.575 343.74C182.162 344.073 182.608 344.52 182.915 345.08C183.222 345.64 183.375 346.273 183.375 346.98C183.375 347.687 183.222 348.327 182.915 348.9C182.608 349.46 182.162 349.907 181.575 350.24C180.988 350.56 180.262 350.72 179.395 350.72ZM179.395 349.34C180.142 349.34 180.722 349.147 181.135 348.76C181.548 348.36 181.755 347.767 181.755 346.98C181.755 346.193 181.548 345.607 181.135 345.22C180.722 344.833 180.142 344.64 179.395 344.64C178.688 344.64 178.108 344.833 177.655 345.22C177.215 345.607 176.995 346.193 176.995 346.98C176.995 347.767 177.208 348.36 177.635 348.76C178.075 349.147 178.662 349.34 179.395 349.34ZM181.155 344.9L180.655 343.48H184.775V344.74L181.155 344.9ZM196.69 354.24C195.717 354.24 194.857 354.013 194.11 353.56C193.363 353.107 192.783 352.467 192.37 351.64C191.957 350.813 191.75 349.847 191.75 348.74C191.75 347.62 191.957 346.653 192.37 345.84C192.797 345.013 193.383 344.373 194.13 343.92C194.89 343.467 195.757 343.24 196.73 343.24C197.717 343.24 198.577 343.467 199.31 343.92C200.057 344.373 200.637 345.013 201.05 345.84C201.463 346.653 201.67 347.62 201.67 348.74C201.67 349.847 201.457 350.813 201.03 351.64C200.617 352.467 200.037 353.107 199.29 353.56C198.543 354.013 197.677 354.24 196.69 354.24ZM196.69 352.8C197.303 352.8 197.857 352.653 198.35 352.36C198.843 352.053 199.23 351.6 199.51 351C199.803 350.387 199.95 349.633 199.95 348.74C199.95 347.833 199.81 347.08 199.53 346.48C199.25 345.88 198.863 345.433 198.37 345.14C197.89 344.833 197.343 344.68 196.73 344.68C196.13 344.68 195.583 344.833 195.09 345.14C194.597 345.433 194.203 345.88 193.91 346.48C193.617 347.08 193.47 347.833 193.47 348.74C193.47 349.633 193.61 350.387 193.89 351C194.183 351.6 194.57 352.053 195.05 352.36C195.543 352.653 196.09 352.8 196.69 352.8ZM204.104 354V343.48H205.624L205.744 345.4C205.984 344.92 206.297 344.52 206.684 344.2C207.07 343.88 207.537 343.64 208.084 343.48C208.644 343.32 209.27 343.24 209.964 343.24V345H208.924C208.524 345 208.137 345.053 207.764 345.16C207.39 345.267 207.05 345.44 206.744 345.68C206.45 345.92 206.217 346.247 206.044 346.66C205.87 347.073 205.784 347.593 205.784 348.22V354H204.104ZM217.268 358.4V343.48H218.788L218.928 345.12C219.141 344.773 219.408 344.46 219.728 344.18C220.061 343.9 220.454 343.673 220.908 343.5C221.374 343.327 221.908 343.24 222.508 343.24C223.454 343.24 224.281 343.48 224.988 343.96C225.708 344.44 226.268 345.093 226.668 345.92C227.068 346.747 227.268 347.693 227.268 348.76C227.268 349.813 227.068 350.753 226.668 351.58C226.268 352.407 225.708 353.06 224.988 353.54C224.268 354.007 223.434 354.24 222.488 354.24C221.674 354.24 220.961 354.073 220.348 353.74C219.734 353.407 219.268 352.94 218.948 352.34V358.4H217.268ZM222.288 352.78C222.914 352.78 223.468 352.62 223.948 352.3C224.441 351.967 224.828 351.5 225.108 350.9C225.401 350.287 225.548 349.567 225.548 348.74C225.548 347.913 225.401 347.2 225.108 346.6C224.828 345.987 224.441 345.52 223.948 345.2C223.468 344.867 222.914 344.7 222.288 344.7C221.621 344.7 221.041 344.867 220.548 345.2C220.054 345.52 219.674 345.987 219.408 346.6C219.141 347.2 219.008 347.913 219.008 348.74C219.008 349.567 219.141 350.287 219.408 350.9C219.674 351.5 220.054 351.967 220.548 352.3C221.041 352.62 221.621 352.78 222.288 352.78ZM234.069 354.24C233.136 354.24 232.309 354.013 231.589 353.56C230.869 353.107 230.302 352.467 229.889 351.64C229.489 350.813 229.289 349.847 229.289 348.74C229.289 347.633 229.489 346.667 229.889 345.84C230.302 345.013 230.869 344.373 231.589 343.92C232.322 343.467 233.162 343.24 234.109 343.24C235.122 343.24 235.969 343.467 236.649 343.92C237.329 344.373 237.842 344.98 238.189 345.74C238.536 346.5 238.709 347.333 238.709 348.24C238.709 348.373 238.709 348.507 238.709 348.64C238.709 348.773 238.702 348.933 238.689 349.12H230.549V347.82H237.069C237.042 346.793 236.742 346.013 236.169 345.48C235.609 344.933 234.909 344.66 234.069 344.66C233.509 344.66 232.989 344.8 232.509 345.08C232.042 345.347 231.662 345.747 231.369 346.28C231.076 346.813 230.929 347.48 230.929 348.28V348.84C230.929 349.72 231.076 350.46 231.369 351.06C231.662 351.647 232.042 352.087 232.509 352.38C232.989 352.673 233.509 352.82 234.069 352.82C234.816 352.82 235.402 352.68 235.829 352.4C236.256 352.107 236.569 351.693 236.769 351.16H238.429C238.269 351.747 237.989 352.273 237.589 352.74C237.202 353.207 236.709 353.573 236.109 353.84C235.522 354.107 234.842 354.24 234.069 354.24ZM245.397 354.24C244.464 354.24 243.637 354.013 242.917 353.56C242.197 353.107 241.631 352.467 241.217 351.64C240.817 350.813 240.617 349.847 240.617 348.74C240.617 347.633 240.817 346.667 241.217 345.84C241.631 345.013 242.197 344.373 242.917 343.92C243.651 343.467 244.491 343.24 245.437 343.24C246.451 343.24 247.297 343.467 247.977 343.92C248.657 344.373 249.171 344.98 249.517 345.74C249.864 346.5 250.037 347.333 250.037 348.24C250.037 348.373 250.037 348.507 250.037 348.64C250.037 348.773 250.031 348.933 250.017 349.12H241.877V347.82H248.397C248.371 346.793 248.071 346.013 247.497 345.48C246.937 344.933 246.237 344.66 245.397 344.66C244.837 344.66 244.317 344.8 243.837 345.08C243.371 345.347 242.991 345.747 242.697 346.28C242.404 346.813 242.257 347.48 242.257 348.28V348.84C242.257 349.72 242.404 350.46 242.697 351.06C242.991 351.647 243.371 352.087 243.837 352.38C244.317 352.673 244.837 352.82 245.397 352.82C246.144 352.82 246.731 352.68 247.157 352.4C247.584 352.107 247.897 351.693 248.097 351.16H249.757C249.597 351.747 249.317 352.273 248.917 352.74C248.531 353.207 248.037 353.573 247.437 353.84C246.851 354.107 246.171 354.24 245.397 354.24ZM252.365 354V343.48H253.885L254.005 345.4C254.245 344.92 254.559 344.52 254.945 344.2C255.332 343.88 255.799 343.64 256.345 343.48C256.905 343.32 257.532 343.24 258.225 343.24V345H257.185C256.785 345 256.399 345.053 256.025 345.16C255.652 345.267 255.312 345.44 255.005 345.68C254.712 345.92 254.479 346.247 254.305 346.66C254.132 347.073 254.045 347.593 254.045 348.22V354H252.365ZM260.158 348.5V347.08H268.078V348.5H260.158ZM275 354C274.4 354 273.88 353.907 273.44 353.72C273 353.533 272.66 353.22 272.42 352.78C272.193 352.327 272.08 351.72 272.08 350.96V344.9H270.24V343.48H272.08L272.3 340.86H273.76V343.48H276.74V344.9H273.76V350.96C273.76 351.587 273.887 352.013 274.14 352.24C274.393 352.453 274.84 352.56 275.48 352.56H276.7V354H275ZM283.292 354.24C282.318 354.24 281.458 354.013 280.712 353.56C279.965 353.107 279.385 352.467 278.972 351.64C278.558 350.813 278.352 349.847 278.352 348.74C278.352 347.62 278.558 346.653 278.972 345.84C279.398 345.013 279.985 344.373 280.732 343.92C281.492 343.467 282.358 343.24 283.332 343.24C284.318 343.24 285.178 343.467 285.912 343.92C286.658 344.373 287.238 345.013 287.652 345.84C288.065 346.653 288.272 347.62 288.272 348.74C288.272 349.847 288.058 350.813 287.632 351.64C287.218 352.467 286.638 353.107 285.892 353.56C285.145 354.013 284.278 354.24 283.292 354.24ZM283.292 352.8C283.905 352.8 284.458 352.653 284.952 352.36C285.445 352.053 285.832 351.6 286.112 351C286.405 350.387 286.552 349.633 286.552 348.74C286.552 347.833 286.412 347.08 286.132 346.48C285.852 345.88 285.465 345.433 284.972 345.14C284.492 344.833 283.945 344.68 283.332 344.68C282.732 344.68 282.185 344.833 281.692 345.14C281.198 345.433 280.805 345.88 280.512 346.48C280.218 347.08 280.072 347.833 280.072 348.74C280.072 349.633 280.212 350.387 280.492 351C280.785 351.6 281.172 352.053 281.652 352.36C282.145 352.653 282.692 352.8 283.292 352.8ZM290.705 348.5V347.08H298.625V348.5H290.705ZM301.467 358.4V343.48H302.987L303.127 345.12C303.34 344.773 303.607 344.46 303.927 344.18C304.26 343.9 304.654 343.673 305.107 343.5C305.574 343.327 306.107 343.24 306.707 343.24C307.654 343.24 308.48 343.48 309.187 343.96C309.907 344.44 310.467 345.093 310.867 345.92C311.267 346.747 311.467 347.693 311.467 348.76C311.467 349.813 311.267 350.753 310.867 351.58C310.467 352.407 309.907 353.06 309.187 353.54C308.467 354.007 307.634 354.24 306.687 354.24C305.874 354.24 305.16 354.073 304.547 353.74C303.934 353.407 303.467 352.94 303.147 352.34V358.4H301.467ZM306.487 352.78C307.114 352.78 307.667 352.62 308.147 352.3C308.64 351.967 309.027 351.5 309.307 350.9C309.6 350.287 309.747 349.567 309.747 348.74C309.747 347.913 309.6 347.2 309.307 346.6C309.027 345.987 308.64 345.52 308.147 345.2C307.667 344.867 307.114 344.7 306.487 344.7C305.82 344.7 305.24 344.867 304.747 345.2C304.254 345.52 303.874 345.987 303.607 346.6C303.34 347.2 303.207 347.913 303.207 348.74C303.207 349.567 303.34 350.287 303.607 350.9C303.874 351.5 304.254 351.967 304.747 352.3C305.24 352.62 305.82 352.78 306.487 352.78ZM318.268 354.24C317.335 354.24 316.508 354.013 315.788 353.56C315.068 353.107 314.502 352.467 314.088 351.64C313.688 350.813 313.488 349.847 313.488 348.74C313.488 347.633 313.688 346.667 314.088 345.84C314.502 345.013 315.068 344.373 315.788 343.92C316.522 343.467 317.362 343.24 318.308 343.24C319.322 343.24 320.168 343.467 320.848 343.92C321.528 344.373 322.042 344.98 322.388 345.74C322.735 346.5 322.908 347.333 322.908 348.24C322.908 348.373 322.908 348.507 322.908 348.64C322.908 348.773 322.902 348.933 322.888 349.12H314.748V347.82H321.268C321.242 346.793 320.942 346.013 320.368 345.48C319.808 344.933 319.108 344.66 318.268 344.66C317.708 344.66 317.188 344.8 316.708 345.08C316.242 345.347 315.862 345.747 315.568 346.28C315.275 346.813 315.128 347.48 315.128 348.28V348.84C315.128 349.72 315.275 350.46 315.568 351.06C315.862 351.647 316.242 352.087 316.708 352.38C317.188 352.673 317.708 352.82 318.268 352.82C319.015 352.82 319.602 352.68 320.028 352.4C320.455 352.107 320.768 351.693 320.968 351.16H322.628C322.468 351.747 322.188 352.273 321.788 352.74C321.402 353.207 320.908 353.573 320.308 353.84C319.722 354.107 319.042 354.24 318.268 354.24ZM329.596 354.24C328.663 354.24 327.836 354.013 327.116 353.56C326.396 353.107 325.83 352.467 325.416 351.64C325.016 350.813 324.816 349.847 324.816 348.74C324.816 347.633 325.016 346.667 325.416 345.84C325.83 345.013 326.396 344.373 327.116 343.92C327.85 343.467 328.69 343.24 329.636 343.24C330.65 343.24 331.496 343.467 332.176 343.92C332.856 344.373 333.37 344.98 333.716 345.74C334.063 346.5 334.236 347.333 334.236 348.24C334.236 348.373 334.236 348.507 334.236 348.64C334.236 348.773 334.23 348.933 334.216 349.12H326.076V347.82H332.596C332.57 346.793 332.27 346.013 331.696 345.48C331.136 344.933 330.436 344.66 329.596 344.66C329.036 344.66 328.516 344.8 328.036 345.08C327.57 345.347 327.19 345.747 326.896 346.28C326.603 346.813 326.456 347.48 326.456 348.28V348.84C326.456 349.72 326.603 350.46 326.896 351.06C327.19 351.647 327.57 352.087 328.036 352.38C328.516 352.673 329.036 352.82 329.596 352.82C330.343 352.82 330.93 352.68 331.356 352.4C331.783 352.107 332.096 351.693 332.296 351.16H333.956C333.796 351.747 333.516 352.273 333.116 352.74C332.73 353.207 332.236 353.573 331.636 353.84C331.05 354.107 330.37 354.24 329.596 354.24ZM336.565 354V343.48H338.085L338.205 345.4C338.445 344.92 338.758 344.52 339.145 344.2C339.531 343.88 339.998 343.64 340.545 343.48C341.105 343.32 341.731 343.24 342.425 343.24V345H341.385C340.985 345 340.598 345.053 340.225 345.16C339.851 345.267 339.511 345.44 339.205 345.68C338.911 345.92 338.678 346.247 338.505 346.66C338.331 347.073 338.245 347.593 338.245 348.22V354H336.565ZM353.309 356.9C352.589 356.207 351.922 355.38 351.309 354.42C350.695 353.473 350.202 352.407 349.829 351.22C349.469 350.033 349.289 348.74 349.289 347.34C349.289 345.94 349.469 344.647 349.829 343.46C350.202 342.273 350.695 341.2 351.309 340.24C351.922 339.28 352.589 338.46 353.309 337.78H355.029V337.94C354.215 338.74 353.502 339.633 352.889 340.62C352.289 341.607 351.815 342.667 351.469 343.8C351.135 344.92 350.969 346.1 350.969 347.34C350.969 348.58 351.135 349.767 351.469 350.9C351.815 352.02 352.295 353.073 352.909 354.06C353.522 355.047 354.229 355.94 355.029 356.74V356.9H353.309ZM357.329 354V340H361.829C362.949 340 363.869 340.187 364.589 340.56C365.309 340.933 365.842 341.44 366.189 342.08C366.536 342.707 366.709 343.42 366.709 344.22C366.709 345.007 366.536 345.72 366.189 346.36C365.842 347 365.309 347.507 364.589 347.88C363.882 348.253 362.962 348.44 361.829 348.44H359.009V354H357.329ZM359.009 347.02H361.809C362.982 347.02 363.802 346.767 364.269 346.26C364.749 345.74 364.989 345.06 364.989 344.22C364.989 343.34 364.749 342.653 364.269 342.16C363.802 341.653 362.982 341.4 361.809 341.4H359.009V347.02ZM368.769 354V352.82C369.755 352.073 370.689 351.32 371.569 350.56C372.449 349.8 373.229 349.047 373.909 348.3C374.589 347.54 375.122 346.8 375.509 346.08C375.895 345.36 376.089 344.667 376.089 344C376.089 343.507 375.995 343.053 375.809 342.64C375.635 342.213 375.349 341.867 374.949 341.6C374.562 341.333 374.035 341.2 373.369 341.2C372.729 341.2 372.195 341.34 371.769 341.62C371.342 341.887 371.022 342.247 370.809 342.7C370.595 343.14 370.489 343.627 370.489 344.16H368.869C368.882 343.24 369.082 342.453 369.469 341.8C369.855 341.133 370.389 340.627 371.069 340.28C371.749 339.933 372.522 339.76 373.389 339.76C374.242 339.76 374.995 339.92 375.649 340.24C376.302 340.547 376.815 341.013 377.189 341.64C377.575 342.253 377.769 343.02 377.769 343.94C377.769 344.593 377.629 345.247 377.349 345.9C377.082 346.553 376.715 347.193 376.249 347.82C375.782 348.433 375.262 349.027 374.689 349.6C374.129 350.173 373.549 350.713 372.949 351.22C372.349 351.727 371.782 352.187 371.249 352.6H378.249V354H368.769ZM380.786 354V340H385.286C386.406 340 387.326 340.187 388.046 340.56C388.766 340.933 389.299 341.44 389.646 342.08C389.993 342.707 390.166 343.42 390.166 344.22C390.166 345.007 389.993 345.72 389.646 346.36C389.299 347 388.766 347.507 388.046 347.88C387.339 348.253 386.419 348.44 385.286 348.44H382.466V354H380.786ZM382.466 347.02H385.266C386.439 347.02 387.259 346.767 387.726 346.26C388.206 345.74 388.446 345.06 388.446 344.22C388.446 343.34 388.206 342.653 387.726 342.16C387.259 341.653 386.439 341.4 385.266 341.4H382.466V347.02ZM392.8 356.9H391.08V356.74C391.894 355.94 392.6 355.047 393.2 354.06C393.814 353.073 394.287 352.02 394.62 350.9C394.967 349.767 395.14 348.58 395.14 347.34C395.14 346.1 394.967 344.92 394.62 343.8C394.287 342.667 393.814 341.607 393.2 340.62C392.6 339.633 391.894 338.74 391.08 337.94V337.78H392.8C393.534 338.46 394.2 339.28 394.8 340.24C395.414 341.2 395.9 342.273 396.26 343.46C396.634 344.647 396.82 345.94 396.82 347.34C396.82 348.74 396.634 350.033 396.26 351.22C395.9 352.407 395.414 353.473 394.8 354.42C394.2 355.38 393.534 356.207 392.8 356.9ZM186.631 380C186.031 380 185.511 379.907 185.071 379.72C184.631 379.533 184.291 379.22 184.051 378.78C183.824 378.327 183.711 377.72 183.711 376.96V370.9H181.871V369.48H183.711L183.931 366.86H185.391V369.48H188.371V370.9H185.391V376.96C185.391 377.587 185.518 378.013 185.771 378.24C186.024 378.453 186.471 378.56 187.111 378.56H188.331V380H186.631ZM190.676 380V369.48H192.196L192.316 371.4C192.556 370.92 192.869 370.52 193.256 370.2C193.643 369.88 194.109 369.64 194.656 369.48C195.216 369.32 195.843 369.24 196.536 369.24V371H195.496C195.096 371 194.709 371.053 194.336 371.16C193.963 371.267 193.623 371.44 193.316 371.68C193.023 371.92 192.789 372.247 192.616 372.66C192.443 373.073 192.356 373.593 192.356 374.22V380H190.676ZM201.749 380.24C200.949 380.24 200.282 380.093 199.749 379.8C199.215 379.493 198.815 379.093 198.549 378.6C198.282 378.093 198.149 377.553 198.149 376.98C198.149 376.287 198.322 375.7 198.669 375.22C199.029 374.727 199.529 374.353 200.169 374.1C200.809 373.847 201.555 373.72 202.409 373.72H205.029C205.029 373.04 204.949 372.473 204.789 372.02C204.629 371.567 204.369 371.227 204.009 371C203.649 370.773 203.169 370.66 202.569 370.66C201.969 370.66 201.455 370.813 201.029 371.12C200.602 371.413 200.335 371.853 200.229 372.44H198.509C198.589 371.747 198.822 371.167 199.209 370.7C199.595 370.22 200.082 369.86 200.669 369.62C201.269 369.367 201.902 369.24 202.569 369.24C203.515 369.24 204.295 369.413 204.909 369.76C205.522 370.093 205.975 370.567 206.269 371.18C206.562 371.78 206.709 372.493 206.709 373.32V380H205.209L205.109 378.2C204.975 378.48 204.802 378.747 204.589 379C204.389 379.24 204.149 379.453 203.869 379.64C203.589 379.827 203.269 379.973 202.909 380.08C202.562 380.187 202.175 380.24 201.749 380.24ZM201.989 378.82C202.429 378.82 202.835 378.72 203.209 378.52C203.582 378.32 203.902 378.053 204.169 377.72C204.449 377.373 204.662 376.987 204.809 376.56C204.955 376.133 205.029 375.687 205.029 375.22V375.02H202.549C201.922 375.02 201.409 375.1 201.009 375.26C200.622 375.42 200.342 375.647 200.169 375.94C199.995 376.22 199.909 376.54 199.909 376.9C199.909 377.287 199.989 377.627 200.149 377.92C200.309 378.2 200.542 378.42 200.849 378.58C201.169 378.74 201.549 378.82 201.989 378.82ZM209.484 380V369.48H211.004L211.084 371.14C211.391 370.54 211.831 370.073 212.404 369.74C212.991 369.407 213.664 369.24 214.424 369.24C215.198 369.24 215.871 369.387 216.444 369.68C217.018 369.973 217.464 370.42 217.784 371.02C218.104 371.62 218.264 372.38 218.264 373.3V380H216.584V373.48C216.584 372.547 216.351 371.847 215.884 371.38C215.431 370.913 214.818 370.68 214.044 370.68C213.524 370.68 213.044 370.807 212.604 371.06C212.164 371.3 211.811 371.66 211.544 372.14C211.291 372.62 211.164 373.207 211.164 373.9V380H209.484ZM224.847 380.24C223.9 380.24 223.114 380.1 222.487 379.82C221.874 379.527 221.407 379.127 221.087 378.62C220.767 378.1 220.574 377.5 220.507 376.82H222.227C222.28 377.18 222.4 377.513 222.587 377.82C222.787 378.113 223.074 378.353 223.447 378.54C223.82 378.727 224.294 378.82 224.867 378.82C225.32 378.82 225.707 378.753 226.027 378.62C226.347 378.473 226.587 378.273 226.747 378.02C226.92 377.767 227.007 377.473 227.007 377.14C227.007 376.7 226.907 376.36 226.707 376.12C226.52 375.867 226.24 375.68 225.867 375.56C225.507 375.427 225.054 375.327 224.507 375.26C223.92 375.18 223.4 375.067 222.947 374.92C222.494 374.773 222.107 374.58 221.787 374.34C221.48 374.1 221.247 373.8 221.087 373.44C220.927 373.08 220.847 372.653 220.847 372.16C220.847 371.587 221 371.08 221.307 370.64C221.614 370.2 222.047 369.86 222.607 369.62C223.18 369.367 223.854 369.24 224.627 369.24C225.76 369.24 226.654 369.5 227.307 370.02C227.974 370.54 228.367 371.28 228.487 372.24H226.827C226.76 371.747 226.534 371.36 226.147 371.08C225.76 370.8 225.247 370.66 224.607 370.66C223.927 370.66 223.414 370.787 223.067 371.04C222.72 371.293 222.547 371.627 222.547 372.04C222.547 372.347 222.62 372.627 222.767 372.88C222.927 373.12 223.194 373.327 223.567 373.5C223.94 373.66 224.44 373.78 225.067 373.86C225.854 373.953 226.52 374.107 227.067 374.32C227.614 374.52 228.027 374.833 228.307 375.26C228.6 375.687 228.74 376.267 228.727 377C228.727 377.693 228.56 378.28 228.227 378.76C227.907 379.24 227.454 379.607 226.867 379.86C226.294 380.113 225.62 380.24 224.847 380.24ZM234.503 380.24C233.703 380.24 233.036 380.093 232.503 379.8C231.969 379.493 231.569 379.093 231.303 378.6C231.036 378.093 230.903 377.553 230.903 376.98C230.903 376.287 231.076 375.7 231.423 375.22C231.783 374.727 232.283 374.353 232.923 374.1C233.563 373.847 234.309 373.72 235.163 373.72H237.783C237.783 373.04 237.703 372.473 237.543 372.02C237.383 371.567 237.123 371.227 236.763 371C236.403 370.773 235.923 370.66 235.323 370.66C234.723 370.66 234.209 370.813 233.783 371.12C233.356 371.413 233.089 371.853 232.983 372.44H231.263C231.343 371.747 231.576 371.167 231.963 370.7C232.349 370.22 232.836 369.86 233.423 369.62C234.023 369.367 234.656 369.24 235.323 369.24C236.269 369.24 237.049 369.413 237.663 369.76C238.276 370.093 238.729 370.567 239.023 371.18C239.316 371.78 239.463 372.493 239.463 373.32V380H237.963L237.863 378.2C237.729 378.48 237.556 378.747 237.343 379C237.143 379.24 236.903 379.453 236.623 379.64C236.343 379.827 236.023 379.973 235.663 380.08C235.316 380.187 234.929 380.24 234.503 380.24ZM234.743 378.82C235.183 378.82 235.589 378.72 235.963 378.52C236.336 378.32 236.656 378.053 236.923 377.72C237.203 377.373 237.416 376.987 237.563 376.56C237.709 376.133 237.783 375.687 237.783 375.22V375.02H235.303C234.676 375.02 234.163 375.1 233.763 375.26C233.376 375.42 233.096 375.647 232.923 375.94C232.749 376.22 232.663 376.54 232.663 376.9C232.663 377.287 232.743 377.627 232.903 377.92C233.063 378.2 233.296 378.42 233.603 378.58C233.923 378.74 234.303 378.82 234.743 378.82ZM246.778 380.24C245.818 380.24 244.965 380.013 244.218 379.56C243.472 379.093 242.885 378.447 242.458 377.62C242.032 376.793 241.818 375.833 241.818 374.74C241.818 373.633 242.032 372.673 242.458 371.86C242.885 371.033 243.472 370.393 244.218 369.94C244.965 369.473 245.818 369.24 246.778 369.24C247.978 369.24 248.978 369.56 249.778 370.2C250.592 370.84 251.112 371.7 251.338 372.78H249.618C249.472 372.113 249.132 371.6 248.598 371.24C248.078 370.867 247.465 370.68 246.758 370.68C246.145 370.68 245.592 370.833 245.098 371.14C244.618 371.447 244.238 371.9 243.958 372.5C243.678 373.1 243.538 373.847 243.538 374.74C243.538 375.407 243.618 376 243.778 376.52C243.938 377.027 244.158 377.453 244.438 377.8C244.732 378.133 245.072 378.387 245.458 378.56C245.858 378.733 246.292 378.82 246.758 378.82C247.238 378.82 247.672 378.74 248.058 378.58C248.458 378.407 248.792 378.16 249.058 377.84C249.338 377.52 249.525 377.14 249.618 376.7H251.338C251.125 377.753 250.605 378.607 249.778 379.26C248.965 379.913 247.965 380.24 246.778 380.24ZM257.588 380C256.988 380 256.468 379.907 256.028 379.72C255.588 379.533 255.248 379.22 255.008 378.78C254.781 378.327 254.668 377.72 254.668 376.96V370.9H252.828V369.48H254.668L254.888 366.86H256.348V369.48H259.328V370.9H256.348V376.96C256.348 377.587 256.475 378.013 256.728 378.24C256.981 378.453 257.428 378.56 258.068 378.56H259.288V380H257.588ZM261.793 380V369.48H263.473V380H261.793ZM262.633 367.48C262.3 367.48 262.02 367.373 261.793 367.16C261.58 366.933 261.473 366.653 261.473 366.32C261.473 365.987 261.58 365.72 261.793 365.52C262.02 365.307 262.3 365.2 262.633 365.2C262.953 365.2 263.226 365.307 263.453 365.52C263.68 365.72 263.793 365.987 263.793 366.32C263.793 366.653 263.68 366.933 263.453 367.16C263.226 367.373 262.953 367.48 262.633 367.48ZM270.977 380.24C270.004 380.24 269.144 380.013 268.397 379.56C267.65 379.107 267.07 378.467 266.657 377.64C266.244 376.813 266.037 375.847 266.037 374.74C266.037 373.62 266.244 372.653 266.657 371.84C267.084 371.013 267.67 370.373 268.417 369.92C269.177 369.467 270.044 369.24 271.017 369.24C272.004 369.24 272.864 369.467 273.597 369.92C274.344 370.373 274.924 371.013 275.337 371.84C275.75 372.653 275.957 373.62 275.957 374.74C275.957 375.847 275.744 376.813 275.317 377.64C274.904 378.467 274.324 379.107 273.577 379.56C272.83 380.013 271.964 380.24 270.977 380.24ZM270.977 378.8C271.59 378.8 272.144 378.653 272.637 378.36C273.13 378.053 273.517 377.6 273.797 377C274.09 376.387 274.237 375.633 274.237 374.74C274.237 373.833 274.097 373.08 273.817 372.48C273.537 371.88 273.15 371.433 272.657 371.14C272.177 370.833 271.63 370.68 271.017 370.68C270.417 370.68 269.87 370.833 269.377 371.14C268.884 371.433 268.49 371.88 268.197 372.48C267.904 373.08 267.757 373.833 267.757 374.74C267.757 375.633 267.897 376.387 268.177 377C268.47 377.6 268.857 378.053 269.337 378.36C269.83 378.653 270.377 378.8 270.977 378.8ZM278.391 380V369.48H279.911L279.991 371.14C280.297 370.54 280.737 370.073 281.311 369.74C281.897 369.407 282.571 369.24 283.331 369.24C284.104 369.24 284.777 369.387 285.351 369.68C285.924 369.973 286.371 370.42 286.691 371.02C287.011 371.62 287.171 372.38 287.171 373.3V380H285.491V373.48C285.491 372.547 285.257 371.847 284.791 371.38C284.337 370.913 283.724 370.68 282.951 370.68C282.431 370.68 281.951 370.807 281.511 371.06C281.071 371.3 280.717 371.66 280.451 372.14C280.197 372.62 280.071 373.207 280.071 373.9V380H278.391ZM293.753 380.24C292.807 380.24 292.02 380.1 291.393 379.82C290.78 379.527 290.313 379.127 289.993 378.62C289.673 378.1 289.48 377.5 289.413 376.82H291.133C291.187 377.18 291.307 377.513 291.493 377.82C291.693 378.113 291.98 378.353 292.353 378.54C292.727 378.727 293.2 378.82 293.773 378.82C294.227 378.82 294.613 378.753 294.933 378.62C295.253 378.473 295.493 378.273 295.653 378.02C295.827 377.767 295.913 377.473 295.913 377.14C295.913 376.7 295.813 376.36 295.613 376.12C295.427 375.867 295.147 375.68 294.773 375.56C294.413 375.427 293.96 375.327 293.413 375.26C292.827 375.18 292.307 375.067 291.853 374.92C291.4 374.773 291.013 374.58 290.693 374.34C290.387 374.1 290.153 373.8 289.993 373.44C289.833 373.08 289.753 372.653 289.753 372.16C289.753 371.587 289.907 371.08 290.213 370.64C290.52 370.2 290.953 369.86 291.513 369.62C292.087 369.367 292.76 369.24 293.533 369.24C294.667 369.24 295.56 369.5 296.213 370.02C296.88 370.54 297.273 371.28 297.393 372.24H295.733C295.667 371.747 295.44 371.36 295.053 371.08C294.667 370.8 294.153 370.66 293.513 370.66C292.833 370.66 292.32 370.787 291.973 371.04C291.627 371.293 291.453 371.627 291.453 372.04C291.453 372.347 291.527 372.627 291.673 372.88C291.833 373.12 292.1 373.327 292.473 373.5C292.847 373.66 293.347 373.78 293.973 373.86C294.76 373.953 295.427 374.107 295.973 374.32C296.52 374.52 296.933 374.833 297.213 375.26C297.507 375.687 297.647 376.267 297.633 377C297.633 377.693 297.467 378.28 297.133 378.76C296.813 379.24 296.36 379.607 295.773 379.86C295.2 380.113 294.527 380.24 293.753 380.24ZM300.789 380.1C300.469 380.1 300.196 379.993 299.969 379.78C299.756 379.553 299.649 379.28 299.649 378.96C299.649 378.64 299.756 378.373 299.969 378.16C300.196 377.933 300.469 377.82 300.789 377.82C301.136 377.82 301.409 377.933 301.609 378.16C301.822 378.373 301.929 378.64 301.929 378.96C301.929 379.28 301.822 379.553 301.609 379.78C301.409 379.993 301.136 380.1 300.789 380.1Z" fill="white"/>
<circle cx="310.5" cy="203.5" r="74" stroke="url(#paint4_linear_0_1)" stroke-width="3"/>
<path d="M303.092 233.22L303.106 233.277L303.126 233.333C303.321 233.902 303.414 234.455 303.414 234.996V238.939C303.414 239.871 303.715 240.763 304.423 241.449C305.108 242.114 305.966 242.5 306.945 242.5H312.301C313.277 242.5 314.181 242.155 314.863 241.41C315.523 240.751 315.924 239.912 315.924 238.939V234.853C315.992 234.828 316.091 234.8 316.228 234.776C321.553 234.025 326.09 232.172 329.776 229.17C333.582 226.071 335.5 221.966 335.5 216.986C335.5 214.899 335.241 212.918 334.712 211.049C334.201 208.949 332.995 206.946 331.222 205.034L331.216 205.028C329.796 203.511 327.78 202.246 325.273 201.184C322.828 200.089 319.839 198.912 316.314 197.652L316.285 197.641L316.254 197.632L313.946 196.915L313.946 196.915L313.939 196.913C311.803 196.262 310.114 195.705 308.862 195.242C307.758 194.813 306.743 194.282 305.813 193.651C305.055 193.022 304.751 192.342 304.751 191.538C304.751 190.957 304.952 190.298 305.491 189.537C305.979 188.849 306.683 188.273 307.67 187.831C309.701 187.161 311.39 186.855 312.762 186.855C314.236 186.855 316.117 187.148 318.434 187.78C320.26 188.353 322.155 189.1 324.12 190.024C324.817 190.36 325.561 190.529 326.336 190.529C327.357 190.529 328.383 190.231 329.122 189.394L329.148 189.366L329.171 189.336C331.267 186.704 332.722 184.612 333.419 183.124L333.453 183.051L333.48 182.975C333.629 182.54 333.746 182.064 333.746 181.591C333.746 180.206 333.058 179.088 331.986 178.272C330.738 177.205 328.838 176.046 326.371 174.789L326.358 174.782L326.344 174.776C323.71 173.498 320.685 172.653 317.293 172.218L317.283 172.217L317.272 172.216C316.789 172.161 316.422 172.096 316.154 172.028C316.07 172.007 316.003 171.987 315.951 171.97C315.937 171.902 315.924 171.797 315.924 171.645V168.061C315.924 167.071 315.55 166.173 314.782 165.512C314.104 164.871 313.26 164.5 312.301 164.5H306.945C305.966 164.5 305.108 164.886 304.423 165.551C303.715 166.237 303.414 167.129 303.414 168.061V172.452C303.414 172.813 303.325 172.976 303.258 173.059C303.184 173.153 303.007 173.305 302.574 173.425L302.543 173.434L302.513 173.444C297.866 174.947 294.131 177.295 291.395 180.534C288.654 183.777 287.303 187.419 287.44 191.41L287.441 191.442L287.444 191.474C287.645 194.08 288.416 196.528 289.748 198.803L289.914 199.124L289.936 199.166L289.96 199.207C291.843 202.357 294.122 204.815 296.819 206.516L296.826 206.52L296.833 206.525C299.507 208.17 302.875 209.562 306.899 210.721L306.93 210.73L306.961 210.737L307.314 209.28L306.961 210.737L306.961 210.737L306.961 210.737L306.961 210.737L306.964 210.738L306.972 210.74L307.007 210.748L307.145 210.782L307.699 210.916L309.916 211.454L309.957 211.464L309.998 211.472C312.239 211.883 314.008 212.316 315.33 212.762L315.339 212.765L315.348 212.768C316.666 213.194 317.383 213.715 317.741 214.201L317.77 214.241L317.802 214.279C318.741 215.392 319.111 216.406 319.111 217.344C319.111 218.201 318.72 218.991 317.518 219.739C316.371 220.433 314.626 220.86 312.132 220.862L308.086 220.773L308.07 220.772H308.053C307.314 220.772 306.496 220.904 305.826 221.388C305.064 221.874 304.719 222.674 304.559 223.371C304.316 224.436 304.01 225.711 303.642 227.199L303.635 227.228L303.629 227.256C303.321 228.753 303.073 229.984 302.887 230.948L302.884 230.964L302.881 230.979C302.763 231.668 302.898 232.467 303.092 233.22ZM286.071 222.955L286.053 222.987L286.036 223.019C285.73 223.612 285.5 224.273 285.5 224.961C285.5 226.094 285.996 227.062 286.786 227.829C288.101 229.105 290.153 230.232 292.777 231.267C293.488 231.594 294.244 231.626 294.972 231.424L295.062 231.399L295.148 231.363C295.926 231.04 296.523 230.467 296.867 229.688L296.882 229.656L296.894 229.623C298.488 225.499 299.44 222.957 299.688 222.125C299.952 221.407 299.844 220.699 299.571 220.105C299.383 219.54 299.017 218.864 298.274 218.504L298.18 218.458L298.081 218.426C296.891 218.041 295.563 217.484 294.095 216.746C293.458 216.369 292.747 216.113 291.986 216.113C291.388 216.113 290.792 216.248 290.252 216.569C289.715 216.887 289.313 217.34 289.022 217.855L286.071 222.955Z" stroke="url(#paint5_linear_0_1)" stroke-width="3"/>
<defs>
<filter id="filter0_b_0_1" x="-39" y="-39" width="563" height="563" filterUnits="userSpaceOnUse" color-interpolation-filters="sRGB">
<feFlood flood-opacity="0" result="BackgroundImageFix"/>
<feGaussianBlur in="BackgroundImageFix" stdDeviation="19.5"/>
<feComposite in2="SourceAlpha" operator="in" result="effect1_backgroundBlur_0_1"/>
<feBlend mode="normal" in="SourceGraphic" in2="effect1_backgroundBlur_0_1" result="shape"/>
</filter>
<linearGradient id="paint0_linear_0_1" x1="103.507" y1="245.444" x2="251.945" y2="226.132" gradientUnits="userSpaceOnUse">
<stop stop-color="#45F5A9"/>
<stop offset="1" stop-color="#00ECFD"/>
</linearGradient>
<linearGradient id="paint1_linear_0_1" x1="120.73" y1="216.431" x2="167.384" y2="210.448" gradientUnits="userSpaceOnUse">
<stop stop-color="#45F5A9"/>
<stop offset="1" stop-color="#00ECFD"/>
</linearGradient>
<linearGradient id="paint2_linear_0_1" x1="156.921" y1="216.014" x2="196.092" y2="211.689" gradientUnits="userSpaceOnUse">
<stop stop-color="#45F5A9"/>
<stop offset="1" stop-color="#00ECFD"/>
</linearGradient>
<linearGradient id="paint3_linear_0_1" x1="196.625" y1="216.086" x2="229.923" y2="212.971" gradientUnits="userSpaceOnUse">
<stop stop-color="#45F5A9"/>
<stop offset="1" stop-color="#00ECFD"/>
</linearGradient>
<linearGradient id="paint4_linear_0_1" x1="240.507" y1="245.444" x2="388.945" y2="226.132" gradientUnits="userSpaceOnUse">
<stop stop-color="#45F5A9"/>
<stop offset="1" stop-color="#00ECFD"/>
</linearGradient>
<linearGradient id="paint5_linear_0_1" x1="288.714" y1="224.333" x2="335.388" y2="220.528" gradientUnits="userSpaceOnUse">
<stop stop-color="#45F5A9"/>
<stop offset="1" stop-color="#00ECFD"/>
</linearGradient>
</defs>
</svg>
