<svg viewBox="0 0 485 485" fill="none" xmlns="http://www.w3.org/2000/svg">
<g filter="url(#filter0_b_0_1)">
<circle cx="242.5" cy="242.5" r="242.5" fill="#002224" fill-opacity="0.44"/>
<circle cx="242.5" cy="242.5" r="242" stroke="#2EC09E"/>
</g>
<path d="M52.8271 328V314H61.4871V315.38H54.5071V320.26H60.8871V321.62H54.5071V326.62H61.4871V328H52.8271ZM64.7538 328V316.36C64.7538 315.72 64.8605 315.2 65.0738 314.8C65.2872 314.387 65.6005 314.087 66.0138 313.9C66.4405 313.7 66.9605 313.6 67.5738 313.6H69.1138V315.04H67.8538C67.3472 315.04 66.9805 315.147 66.7538 315.36C66.5405 315.56 66.4338 315.913 66.4338 316.42V328H64.7538ZM63.1138 318.9V317.48H69.2338V318.9H63.1138ZM71.9804 328V316.36C71.9804 315.72 72.0871 315.2 72.3004 314.8C72.5137 314.387 72.8271 314.087 73.2404 313.9C73.6671 313.7 74.1871 313.6 74.8004 313.6H76.3404V315.04H75.0804C74.5737 315.04 74.2071 315.147 73.9804 315.36C73.7671 315.56 73.6604 315.913 73.6604 316.42V328H71.9804ZM70.3404 318.9V317.48H76.4604V318.9H70.3404ZM82.6763 328.24C81.703 328.24 80.843 328.013 80.0963 327.56C79.3497 327.107 78.7697 326.467 78.3563 325.64C77.943 324.813 77.7363 323.847 77.7363 322.74C77.7363 321.62 77.943 320.653 78.3563 319.84C78.783 319.013 79.3697 318.373 80.1163 317.92C80.8763 317.467 81.743 317.24 82.7163 317.24C83.703 317.24 84.563 317.467 85.2963 317.92C86.043 318.373 86.623 319.013 87.0363 319.84C87.4497 320.653 87.6563 321.62 87.6563 322.74C87.6563 323.847 87.443 324.813 87.0163 325.64C86.603 326.467 86.023 327.107 85.2763 327.56C84.5297 328.013 83.663 328.24 82.6763 328.24ZM82.6763 326.8C83.2897 326.8 83.843 326.653 84.3363 326.36C84.8297 326.053 85.2163 325.6 85.4963 325C85.7897 324.387 85.9363 323.633 85.9363 322.74C85.9363 321.833 85.7963 321.08 85.5163 320.48C85.2363 319.88 84.8497 319.433 84.3563 319.14C83.8763 318.833 83.3297 318.68 82.7163 318.68C82.1163 318.68 81.5697 318.833 81.0763 319.14C80.583 319.433 80.1897 319.88 79.8963 320.48C79.603 321.08 79.4563 321.833 79.4563 322.74C79.4563 323.633 79.5963 324.387 79.8763 325C80.1697 325.6 80.5563 326.053 81.0363 326.36C81.5297 326.653 82.0763 326.8 82.6763 326.8ZM90.0899 328V317.48H91.6099L91.7299 319.4C91.9699 318.92 92.2833 318.52 92.6699 318.2C93.0566 317.88 93.5233 317.64 94.0699 317.48C94.6299 317.32 95.2566 317.24 95.9499 317.24V319H94.9099C94.5099 319 94.1233 319.053 93.7499 319.16C93.3766 319.267 93.0366 319.44 92.7299 319.68C92.4366 319.92 92.2033 320.247 92.0299 320.66C91.8566 321.073 91.7699 321.593 91.7699 322.22V328H90.0899ZM101.963 328C101.363 328 100.843 327.907 100.403 327.72C99.9629 327.533 99.6229 327.22 99.3829 326.78C99.1562 326.327 99.0429 325.72 99.0429 324.96V318.9H97.2029V317.48H99.0429L99.2629 314.86H100.723V317.48H103.703V318.9H100.723V324.96C100.723 325.587 100.85 326.013 101.103 326.24C101.356 326.453 101.803 326.56 102.443 326.56H103.663V328H101.963ZM106.008 328V313.6H107.688V328H106.008ZM114.88 328.24C113.946 328.24 113.12 328.013 112.4 327.56C111.68 327.107 111.113 326.467 110.7 325.64C110.3 324.813 110.1 323.847 110.1 322.74C110.1 321.633 110.3 320.667 110.7 319.84C111.113 319.013 111.68 318.373 112.4 317.92C113.133 317.467 113.973 317.24 114.92 317.24C115.933 317.24 116.78 317.467 117.46 317.92C118.14 318.373 118.653 318.98 119 319.74C119.346 320.5 119.52 321.333 119.52 322.24C119.52 322.373 119.52 322.507 119.52 322.64C119.52 322.773 119.513 322.933 119.5 323.12H111.36V321.82H117.88C117.853 320.793 117.553 320.013 116.98 319.48C116.42 318.933 115.72 318.66 114.88 318.66C114.32 318.66 113.8 318.8 113.32 319.08C112.853 319.347 112.473 319.747 112.18 320.28C111.886 320.813 111.74 321.48 111.74 322.28V322.84C111.74 323.72 111.886 324.46 112.18 325.06C112.473 325.647 112.853 326.087 113.32 326.38C113.8 326.673 114.32 326.82 114.88 326.82C115.626 326.82 116.213 326.68 116.64 326.4C117.066 326.107 117.38 325.693 117.58 325.16H119.24C119.08 325.747 118.8 326.273 118.4 326.74C118.013 327.207 117.52 327.573 116.92 327.84C116.333 328.107 115.653 328.24 114.88 328.24ZM125.648 328.24C124.701 328.24 123.914 328.1 123.288 327.82C122.674 327.527 122.208 327.127 121.888 326.62C121.568 326.1 121.374 325.5 121.308 324.82H123.028C123.081 325.18 123.201 325.513 123.388 325.82C123.588 326.113 123.874 326.353 124.248 326.54C124.621 326.727 125.094 326.82 125.668 326.82C126.121 326.82 126.508 326.753 126.828 326.62C127.148 326.473 127.388 326.273 127.548 326.02C127.721 325.767 127.808 325.473 127.808 325.14C127.808 324.7 127.708 324.36 127.508 324.12C127.321 323.867 127.041 323.68 126.668 323.56C126.308 323.427 125.854 323.327 125.308 323.26C124.721 323.18 124.201 323.067 123.748 322.92C123.294 322.773 122.908 322.58 122.588 322.34C122.281 322.1 122.048 321.8 121.888 321.44C121.728 321.08 121.648 320.653 121.648 320.16C121.648 319.587 121.801 319.08 122.108 318.64C122.414 318.2 122.848 317.86 123.408 317.62C123.981 317.367 124.654 317.24 125.428 317.24C126.561 317.24 127.454 317.5 128.108 318.02C128.774 318.54 129.168 319.28 129.288 320.24H127.628C127.561 319.747 127.334 319.36 126.948 319.08C126.561 318.8 126.048 318.66 125.408 318.66C124.728 318.66 124.214 318.787 123.868 319.04C123.521 319.293 123.348 319.627 123.348 320.04C123.348 320.347 123.421 320.627 123.568 320.88C123.728 321.12 123.994 321.327 124.368 321.5C124.741 321.66 125.241 321.78 125.868 321.86C126.654 321.953 127.321 322.107 127.868 322.32C128.414 322.52 128.828 322.833 129.108 323.26C129.401 323.687 129.541 324.267 129.528 325C129.528 325.693 129.361 326.28 129.028 326.76C128.708 327.24 128.254 327.607 127.668 327.86C127.094 328.113 126.421 328.24 125.648 328.24ZM135.824 328.24C134.877 328.24 134.09 328.1 133.464 327.82C132.85 327.527 132.384 327.127 132.064 326.62C131.744 326.1 131.55 325.5 131.484 324.82H133.204C133.257 325.18 133.377 325.513 133.564 325.82C133.764 326.113 134.05 326.353 134.424 326.54C134.797 326.727 135.27 326.82 135.844 326.82C136.297 326.82 136.684 326.753 137.004 326.62C137.324 326.473 137.564 326.273 137.724 326.02C137.897 325.767 137.984 325.473 137.984 325.14C137.984 324.7 137.884 324.36 137.684 324.12C137.497 323.867 137.217 323.68 136.844 323.56C136.484 323.427 136.03 323.327 135.484 323.26C134.897 323.18 134.377 323.067 133.924 322.92C133.47 322.773 133.084 322.58 132.764 322.34C132.457 322.1 132.224 321.8 132.064 321.44C131.904 321.08 131.824 320.653 131.824 320.16C131.824 319.587 131.977 319.08 132.284 318.64C132.59 318.2 133.024 317.86 133.584 317.62C134.157 317.367 134.83 317.24 135.604 317.24C136.737 317.24 137.63 317.5 138.284 318.02C138.95 318.54 139.344 319.28 139.464 320.24H137.804C137.737 319.747 137.51 319.36 137.124 319.08C136.737 318.8 136.224 318.66 135.584 318.66C134.904 318.66 134.39 318.787 134.044 319.04C133.697 319.293 133.524 319.627 133.524 320.04C133.524 320.347 133.597 320.627 133.744 320.88C133.904 321.12 134.17 321.327 134.544 321.5C134.917 321.66 135.417 321.78 136.044 321.86C136.83 321.953 137.497 322.107 138.044 322.32C138.59 322.52 139.004 322.833 139.284 323.26C139.577 323.687 139.717 324.267 139.704 325C139.704 325.693 139.537 326.28 139.204 326.76C138.884 327.24 138.43 327.607 137.844 327.86C137.27 328.113 136.597 328.24 135.824 328.24ZM142.199 328V313.6H143.879V328H142.199ZM147.891 332.4L150.271 326.88H149.691L145.751 317.48H147.571L150.831 325.58L154.231 317.48H155.971L149.631 332.4H147.891ZM167.015 328.24C166.068 328.24 165.282 328.1 164.655 327.82C164.042 327.527 163.575 327.127 163.255 326.62C162.935 326.1 162.742 325.5 162.675 324.82H164.395C164.448 325.18 164.568 325.513 164.755 325.82C164.955 326.113 165.242 326.353 165.615 326.54C165.988 326.727 166.462 326.82 167.035 326.82C167.488 326.82 167.875 326.753 168.195 326.62C168.515 326.473 168.755 326.273 168.915 326.02C169.088 325.767 169.175 325.473 169.175 325.14C169.175 324.7 169.075 324.36 168.875 324.12C168.688 323.867 168.408 323.68 168.035 323.56C167.675 323.427 167.222 323.327 166.675 323.26C166.088 323.18 165.568 323.067 165.115 322.92C164.662 322.773 164.275 322.58 163.955 322.34C163.648 322.1 163.415 321.8 163.255 321.44C163.095 321.08 163.015 320.653 163.015 320.16C163.015 319.587 163.168 319.08 163.475 318.64C163.782 318.2 164.215 317.86 164.775 317.62C165.348 317.367 166.022 317.24 166.795 317.24C167.928 317.24 168.822 317.5 169.475 318.02C170.142 318.54 170.535 319.28 170.655 320.24H168.995C168.928 319.747 168.702 319.36 168.315 319.08C167.928 318.8 167.415 318.66 166.775 318.66C166.095 318.66 165.582 318.787 165.235 319.04C164.888 319.293 164.715 319.627 164.715 320.04C164.715 320.347 164.788 320.627 164.935 320.88C165.095 321.12 165.362 321.327 165.735 321.5C166.108 321.66 166.608 321.78 167.235 321.86C168.022 321.953 168.688 322.107 169.235 322.32C169.782 322.52 170.195 322.833 170.475 323.26C170.768 323.687 170.908 324.267 170.895 325C170.895 325.693 170.728 326.28 170.395 326.76C170.075 327.24 169.622 327.607 169.035 327.86C168.462 328.113 167.788 328.24 167.015 328.24ZM175.2 328L172.1 317.48H173.78L176.08 325.86L178.52 317.48H180.42L182.88 325.84L185.16 317.48H186.86L183.76 328H182.04L179.48 319.24L176.92 328H175.2ZM191.71 328.24C190.91 328.24 190.243 328.093 189.71 327.8C189.176 327.493 188.776 327.093 188.51 326.6C188.243 326.093 188.11 325.553 188.11 324.98C188.11 324.287 188.283 323.7 188.63 323.22C188.99 322.727 189.49 322.353 190.13 322.1C190.77 321.847 191.516 321.72 192.37 321.72H194.99C194.99 321.04 194.91 320.473 194.75 320.02C194.59 319.567 194.33 319.227 193.97 319C193.61 318.773 193.13 318.66 192.53 318.66C191.93 318.66 191.416 318.813 190.99 319.12C190.563 319.413 190.296 319.853 190.19 320.44H188.47C188.55 319.747 188.783 319.167 189.17 318.7C189.556 318.22 190.043 317.86 190.63 317.62C191.23 317.367 191.863 317.24 192.53 317.24C193.476 317.24 194.256 317.413 194.87 317.76C195.483 318.093 195.936 318.567 196.23 319.18C196.523 319.78 196.67 320.493 196.67 321.32V328H195.17L195.07 326.2C194.936 326.48 194.763 326.747 194.55 327C194.35 327.24 194.11 327.453 193.83 327.64C193.55 327.827 193.23 327.973 192.87 328.08C192.523 328.187 192.136 328.24 191.71 328.24ZM191.95 326.82C192.39 326.82 192.796 326.72 193.17 326.52C193.543 326.32 193.863 326.053 194.13 325.72C194.41 325.373 194.623 324.987 194.77 324.56C194.916 324.133 194.99 323.687 194.99 323.22V323.02H192.51C191.883 323.02 191.37 323.1 190.97 323.26C190.583 323.42 190.303 323.647 190.13 323.94C189.956 324.22 189.87 324.54 189.87 324.9C189.87 325.287 189.95 325.627 190.11 325.92C190.27 326.2 190.503 326.42 190.81 326.58C191.13 326.74 191.51 326.82 191.95 326.82ZM199.445 332.4V317.48H200.965L201.105 319.12C201.319 318.773 201.585 318.46 201.905 318.18C202.239 317.9 202.632 317.673 203.085 317.5C203.552 317.327 204.085 317.24 204.685 317.24C205.632 317.24 206.459 317.48 207.165 317.96C207.885 318.44 208.445 319.093 208.845 319.92C209.245 320.747 209.445 321.693 209.445 322.76C209.445 323.813 209.245 324.753 208.845 325.58C208.445 326.407 207.885 327.06 207.165 327.54C206.445 328.007 205.612 328.24 204.665 328.24C203.852 328.24 203.139 328.073 202.525 327.74C201.912 327.407 201.445 326.94 201.125 326.34V332.4H199.445ZM204.465 326.78C205.092 326.78 205.645 326.62 206.125 326.3C206.619 325.967 207.005 325.5 207.285 324.9C207.579 324.287 207.725 323.567 207.725 322.74C207.725 321.913 207.579 321.2 207.285 320.6C207.005 319.987 206.619 319.52 206.125 319.2C205.645 318.867 205.092 318.7 204.465 318.7C203.799 318.7 203.219 318.867 202.725 319.2C202.232 319.52 201.852 319.987 201.585 320.6C201.319 321.2 201.185 321.913 201.185 322.74C201.185 323.567 201.319 324.287 201.585 324.9C201.852 325.5 202.232 325.967 202.725 326.3C203.219 326.62 203.799 326.78 204.465 326.78ZM218.438 332.4L220.818 326.88H220.238L216.298 317.48H218.118L221.378 325.58L224.778 317.48H226.518L220.178 332.4H218.438ZM231.973 328.24C231 328.24 230.14 328.013 229.393 327.56C228.647 327.107 228.067 326.467 227.653 325.64C227.24 324.813 227.033 323.847 227.033 322.74C227.033 321.62 227.24 320.653 227.653 319.84C228.08 319.013 228.667 318.373 229.413 317.92C230.173 317.467 231.04 317.24 232.013 317.24C233 317.24 233.86 317.467 234.593 317.92C235.34 318.373 235.92 319.013 236.333 319.84C236.747 320.653 236.953 321.62 236.953 322.74C236.953 323.847 236.74 324.813 236.313 325.64C235.9 326.467 235.32 327.107 234.573 327.56C233.827 328.013 232.96 328.24 231.973 328.24ZM231.973 326.8C232.587 326.8 233.14 326.653 233.633 326.36C234.127 326.053 234.513 325.6 234.793 325C235.087 324.387 235.233 323.633 235.233 322.74C235.233 321.833 235.093 321.08 234.813 320.48C234.533 319.88 234.147 319.433 233.653 319.14C233.173 318.833 232.627 318.68 232.013 318.68C231.413 318.68 230.867 318.833 230.373 319.14C229.88 319.433 229.487 319.88 229.193 320.48C228.9 321.08 228.753 321.833 228.753 322.74C228.753 323.633 228.893 324.387 229.173 325C229.467 325.6 229.853 326.053 230.333 326.36C230.827 326.653 231.373 326.8 231.973 326.8ZM243.167 328.24C242.393 328.24 241.72 328.093 241.147 327.8C240.573 327.507 240.127 327.06 239.807 326.46C239.487 325.847 239.327 325.087 239.327 324.18V317.48H241.007V324C241.007 324.933 241.233 325.633 241.687 326.1C242.153 326.567 242.773 326.8 243.547 326.8C244.08 326.8 244.56 326.68 244.987 326.44C245.413 326.187 245.753 325.82 246.007 325.34C246.273 324.86 246.407 324.273 246.407 323.58V317.48H248.087V328H246.567L246.467 326.32C246.187 326.933 245.753 327.407 245.167 327.74C244.593 328.073 243.927 328.24 243.167 328.24ZM250.93 328V317.48H252.45L252.57 319.4C252.81 318.92 253.123 318.52 253.51 318.2C253.896 317.88 254.363 317.64 254.91 317.48C255.47 317.32 256.096 317.24 256.79 317.24V319H255.75C255.35 319 254.963 319.053 254.59 319.16C254.216 319.267 253.876 319.44 253.57 319.68C253.276 319.92 253.043 320.247 252.87 320.66C252.696 321.073 252.61 321.593 252.61 322.22V328H250.93ZM268.174 328C267.574 328 267.054 327.907 266.614 327.72C266.174 327.533 265.834 327.22 265.594 326.78C265.367 326.327 265.254 325.72 265.254 324.96V318.9H263.414V317.48H265.254L265.474 314.86H266.934V317.48H269.914V318.9H266.934V324.96C266.934 325.587 267.06 326.013 267.314 326.24C267.567 326.453 268.014 326.56 268.654 326.56H269.874V328H268.174ZM276.465 328.24C275.492 328.24 274.632 328.013 273.885 327.56C273.139 327.107 272.559 326.467 272.145 325.64C271.732 324.813 271.525 323.847 271.525 322.74C271.525 321.62 271.732 320.653 272.145 319.84C272.572 319.013 273.159 318.373 273.905 317.92C274.665 317.467 275.532 317.24 276.505 317.24C277.492 317.24 278.352 317.467 279.085 317.92C279.832 318.373 280.412 319.013 280.825 319.84C281.239 320.653 281.445 321.62 281.445 322.74C281.445 323.847 281.232 324.813 280.805 325.64C280.392 326.467 279.812 327.107 279.065 327.56C278.319 328.013 277.452 328.24 276.465 328.24ZM276.465 326.8C277.079 326.8 277.632 326.653 278.125 326.36C278.619 326.053 279.005 325.6 279.285 325C279.579 324.387 279.725 323.633 279.725 322.74C279.725 321.833 279.585 321.08 279.305 320.48C279.025 319.88 278.639 319.433 278.145 319.14C277.665 318.833 277.119 318.68 276.505 318.68C275.905 318.68 275.359 318.833 274.865 319.14C274.372 319.433 273.979 319.88 273.685 320.48C273.392 321.08 273.245 321.833 273.245 322.74C273.245 323.633 273.385 324.387 273.665 325C273.959 325.6 274.345 326.053 274.825 326.36C275.319 326.653 275.865 326.8 276.465 326.8ZM287.568 328C286.968 328 286.448 327.907 286.008 327.72C285.568 327.533 285.228 327.22 284.988 326.78C284.762 326.327 284.648 325.72 284.648 324.96V318.9H282.808V317.48H284.648L284.868 314.86H286.328V317.48H289.308V318.9H286.328V324.96C286.328 325.587 286.455 326.013 286.708 326.24C286.962 326.453 287.408 326.56 288.048 326.56H289.268V328H287.568ZM294.893 328.24C294.093 328.24 293.427 328.093 292.893 327.8C292.36 327.493 291.96 327.093 291.693 326.6C291.427 326.093 291.293 325.553 291.293 324.98C291.293 324.287 291.467 323.7 291.813 323.22C292.173 322.727 292.673 322.353 293.313 322.1C293.953 321.847 294.7 321.72 295.553 321.72H298.173C298.173 321.04 298.093 320.473 297.933 320.02C297.773 319.567 297.513 319.227 297.153 319C296.793 318.773 296.313 318.66 295.713 318.66C295.113 318.66 294.6 318.813 294.173 319.12C293.747 319.413 293.48 319.853 293.373 320.44H291.653C291.733 319.747 291.967 319.167 292.353 318.7C292.74 318.22 293.227 317.86 293.813 317.62C294.413 317.367 295.047 317.24 295.713 317.24C296.66 317.24 297.44 317.413 298.053 317.76C298.667 318.093 299.12 318.567 299.413 319.18C299.707 319.78 299.853 320.493 299.853 321.32V328H298.353L298.253 326.2C298.12 326.48 297.947 326.747 297.733 327C297.533 327.24 297.293 327.453 297.013 327.64C296.733 327.827 296.413 327.973 296.053 328.08C295.707 328.187 295.32 328.24 294.893 328.24ZM295.133 326.82C295.573 326.82 295.98 326.72 296.353 326.52C296.727 326.32 297.047 326.053 297.313 325.72C297.593 325.373 297.807 324.987 297.953 324.56C298.1 324.133 298.173 323.687 298.173 323.22V323.02H295.693C295.067 323.02 294.553 323.1 294.153 323.26C293.767 323.42 293.487 323.647 293.313 323.94C293.14 324.22 293.053 324.54 293.053 324.9C293.053 325.287 293.133 325.627 293.293 325.92C293.453 326.2 293.687 326.42 293.993 326.58C294.313 326.74 294.693 326.82 295.133 326.82ZM302.629 328V313.6H304.309V328H302.629ZM315.792 328.24C314.992 328.24 314.325 328.093 313.792 327.8C313.258 327.493 312.858 327.093 312.592 326.6C312.325 326.093 312.192 325.553 312.192 324.98C312.192 324.287 312.365 323.7 312.712 323.22C313.072 322.727 313.572 322.353 314.212 322.1C314.852 321.847 315.598 321.72 316.452 321.72H319.072C319.072 321.04 318.992 320.473 318.832 320.02C318.672 319.567 318.412 319.227 318.052 319C317.692 318.773 317.212 318.66 316.612 318.66C316.012 318.66 315.498 318.813 315.072 319.12C314.645 319.413 314.378 319.853 314.272 320.44H312.552C312.632 319.747 312.865 319.167 313.252 318.7C313.638 318.22 314.125 317.86 314.712 317.62C315.312 317.367 315.945 317.24 316.612 317.24C317.558 317.24 318.338 317.413 318.952 317.76C319.565 318.093 320.018 318.567 320.312 319.18C320.605 319.78 320.752 320.493 320.752 321.32V328H319.252L319.152 326.2C319.018 326.48 318.845 326.747 318.632 327C318.432 327.24 318.192 327.453 317.912 327.64C317.632 327.827 317.312 327.973 316.952 328.08C316.605 328.187 316.218 328.24 315.792 328.24ZM316.032 326.82C316.472 326.82 316.878 326.72 317.252 326.52C317.625 326.32 317.945 326.053 318.212 325.72C318.492 325.373 318.705 324.987 318.852 324.56C318.998 324.133 319.072 323.687 319.072 323.22V323.02H316.592C315.965 323.02 315.452 323.1 315.052 323.26C314.665 323.42 314.385 323.647 314.212 323.94C314.038 324.22 313.952 324.54 313.952 324.9C313.952 325.287 314.032 325.627 314.192 325.92C314.352 326.2 314.585 326.42 314.892 326.58C315.212 326.74 315.592 326.82 316.032 326.82ZM328.067 328.24C327.107 328.24 326.254 328.013 325.507 327.56C324.761 327.093 324.174 326.447 323.747 325.62C323.321 324.793 323.107 323.833 323.107 322.74C323.107 321.633 323.321 320.673 323.747 319.86C324.174 319.033 324.761 318.393 325.507 317.94C326.254 317.473 327.107 317.24 328.067 317.24C329.267 317.24 330.267 317.56 331.067 318.2C331.881 318.84 332.401 319.7 332.627 320.78H330.907C330.761 320.113 330.421 319.6 329.887 319.24C329.367 318.867 328.754 318.68 328.047 318.68C327.434 318.68 326.881 318.833 326.387 319.14C325.907 319.447 325.527 319.9 325.247 320.5C324.967 321.1 324.827 321.847 324.827 322.74C324.827 323.407 324.907 324 325.067 324.52C325.227 325.027 325.447 325.453 325.727 325.8C326.021 326.133 326.361 326.387 326.747 326.56C327.147 326.733 327.581 326.82 328.047 326.82C328.527 326.82 328.961 326.74 329.347 326.58C329.747 326.407 330.081 326.16 330.347 325.84C330.627 325.52 330.814 325.14 330.907 324.7H332.627C332.414 325.753 331.894 326.607 331.067 327.26C330.254 327.913 329.254 328.24 328.067 328.24ZM339.61 328.24C338.65 328.24 337.797 328.013 337.05 327.56C336.304 327.093 335.717 326.447 335.29 325.62C334.864 324.793 334.65 323.833 334.65 322.74C334.65 321.633 334.864 320.673 335.29 319.86C335.717 319.033 336.304 318.393 337.05 317.94C337.797 317.473 338.65 317.24 339.61 317.24C340.81 317.24 341.81 317.56 342.61 318.2C343.424 318.84 343.944 319.7 344.17 320.78H342.45C342.304 320.113 341.964 319.6 341.43 319.24C340.91 318.867 340.297 318.68 339.59 318.68C338.977 318.68 338.424 318.833 337.93 319.14C337.45 319.447 337.07 319.9 336.79 320.5C336.51 321.1 336.37 321.847 336.37 322.74C336.37 323.407 336.45 324 336.61 324.52C336.77 325.027 336.99 325.453 337.27 325.8C337.564 326.133 337.904 326.387 338.29 326.56C338.69 326.733 339.124 326.82 339.59 326.82C340.07 326.82 340.504 326.74 340.89 326.58C341.29 326.407 341.624 326.16 341.89 325.84C342.17 325.52 342.357 325.14 342.45 324.7H344.17C343.957 325.753 343.437 326.607 342.61 327.26C341.797 327.913 340.797 328.24 339.61 328.24ZM350.393 328.24C349.62 328.24 348.947 328.093 348.373 327.8C347.8 327.507 347.353 327.06 347.033 326.46C346.713 325.847 346.553 325.087 346.553 324.18V317.48H348.233V324C348.233 324.933 348.46 325.633 348.913 326.1C349.38 326.567 350 326.8 350.773 326.8C351.307 326.8 351.787 326.68 352.213 326.44C352.64 326.187 352.98 325.82 353.233 325.34C353.5 324.86 353.633 324.273 353.633 323.58V317.48H355.313V328H353.793L353.693 326.32C353.413 326.933 352.98 327.407 352.393 327.74C351.82 328.073 351.153 328.24 350.393 328.24ZM358.156 328V317.48H359.676L359.756 318.92C360.076 318.4 360.51 317.993 361.056 317.7C361.603 317.393 362.176 317.24 362.776 317.24C363.283 317.24 363.736 317.313 364.136 317.46C364.55 317.593 364.91 317.807 365.216 318.1C365.523 318.38 365.77 318.733 365.956 319.16C366.303 318.533 366.77 318.06 367.356 317.74C367.956 317.407 368.583 317.24 369.236 317.24C370.01 317.24 370.67 317.393 371.216 317.7C371.776 317.993 372.203 318.447 372.496 319.06C372.803 319.66 372.956 320.413 372.956 321.32V328H371.296V321.5C371.296 320.553 371.09 319.847 370.676 319.38C370.263 318.913 369.703 318.68 368.996 318.68C368.516 318.68 368.076 318.807 367.676 319.06C367.29 319.313 366.976 319.687 366.736 320.18C366.51 320.673 366.396 321.273 366.396 321.98V328H364.716V321.5C364.716 320.553 364.51 319.847 364.096 319.38C363.683 318.913 363.13 318.68 362.436 318.68C361.97 318.68 361.536 318.807 361.136 319.06C360.75 319.313 360.436 319.687 360.196 320.18C359.956 320.673 359.836 321.273 359.836 321.98V328H358.156ZM379.514 328.24C378.741 328.24 378.068 328.093 377.494 327.8C376.921 327.507 376.474 327.06 376.154 326.46C375.834 325.847 375.674 325.087 375.674 324.18V317.48H377.354V324C377.354 324.933 377.581 325.633 378.034 326.1C378.501 326.567 379.121 326.8 379.894 326.8C380.428 326.8 380.908 326.68 381.334 326.44C381.761 326.187 382.101 325.82 382.354 325.34C382.621 324.86 382.754 324.273 382.754 323.58V317.48H384.434V328H382.914L382.814 326.32C382.534 326.933 382.101 327.407 381.514 327.74C380.941 328.073 380.274 328.24 379.514 328.24ZM387.277 328V313.6H388.957V328H387.277ZM395.069 328.24C394.269 328.24 393.602 328.093 393.069 327.8C392.536 327.493 392.136 327.093 391.869 326.6C391.602 326.093 391.469 325.553 391.469 324.98C391.469 324.287 391.642 323.7 391.989 323.22C392.349 322.727 392.849 322.353 393.489 322.1C394.129 321.847 394.876 321.72 395.729 321.72H398.349C398.349 321.04 398.269 320.473 398.109 320.02C397.949 319.567 397.689 319.227 397.329 319C396.969 318.773 396.489 318.66 395.889 318.66C395.289 318.66 394.776 318.813 394.349 319.12C393.922 319.413 393.656 319.853 393.549 320.44H391.829C391.909 319.747 392.142 319.167 392.529 318.7C392.916 318.22 393.402 317.86 393.989 317.62C394.589 317.367 395.222 317.24 395.889 317.24C396.836 317.24 397.616 317.413 398.229 317.76C398.842 318.093 399.296 318.567 399.589 319.18C399.882 319.78 400.029 320.493 400.029 321.32V328H398.529L398.429 326.2C398.296 326.48 398.122 326.747 397.909 327C397.709 327.24 397.469 327.453 397.189 327.64C396.909 327.827 396.589 327.973 396.229 328.08C395.882 328.187 395.496 328.24 395.069 328.24ZM395.309 326.82C395.749 326.82 396.156 326.72 396.529 326.52C396.902 326.32 397.222 326.053 397.489 325.72C397.769 325.373 397.982 324.987 398.129 324.56C398.276 324.133 398.349 323.687 398.349 323.22V323.02H395.869C395.242 323.02 394.729 323.1 394.329 323.26C393.942 323.42 393.662 323.647 393.489 323.94C393.316 324.22 393.229 324.54 393.229 324.9C393.229 325.287 393.309 325.627 393.469 325.92C393.629 326.2 393.862 326.42 394.169 326.58C394.489 326.74 394.869 326.82 395.309 326.82ZM406.611 328C406.011 328 405.491 327.907 405.051 327.72C404.611 327.533 404.271 327.22 404.031 326.78C403.805 326.327 403.691 325.72 403.691 324.96V318.9H401.851V317.48H403.691L403.911 314.86H405.371V317.48H408.351V318.9H405.371V324.96C405.371 325.587 405.498 326.013 405.751 326.24C406.005 326.453 406.451 326.56 407.091 326.56H408.311V328H406.611ZM414.743 328.24C413.81 328.24 412.983 328.013 412.263 327.56C411.543 327.107 410.976 326.467 410.563 325.64C410.163 324.813 409.963 323.847 409.963 322.74C409.963 321.633 410.163 320.667 410.563 319.84C410.976 319.013 411.543 318.373 412.263 317.92C412.996 317.467 413.836 317.24 414.783 317.24C415.796 317.24 416.643 317.467 417.323 317.92C418.003 318.373 418.516 318.98 418.863 319.74C419.21 320.5 419.383 321.333 419.383 322.24C419.383 322.373 419.383 322.507 419.383 322.64C419.383 322.773 419.376 322.933 419.363 323.12H411.223V321.82H417.743C417.716 320.793 417.416 320.013 416.843 319.48C416.283 318.933 415.583 318.66 414.743 318.66C414.183 318.66 413.663 318.8 413.183 319.08C412.716 319.347 412.336 319.747 412.043 320.28C411.75 320.813 411.603 321.48 411.603 322.28V322.84C411.603 323.72 411.75 324.46 412.043 325.06C412.336 325.647 412.716 326.087 413.183 326.38C413.663 326.673 414.183 326.82 414.743 326.82C415.49 326.82 416.076 326.68 416.503 326.4C416.93 326.107 417.243 325.693 417.443 325.16H419.103C418.943 325.747 418.663 326.273 418.263 326.74C417.876 327.207 417.383 327.573 416.783 327.84C416.196 328.107 415.516 328.24 414.743 328.24ZM426.051 328.24C425.118 328.24 424.291 328 423.571 327.52C422.851 327.04 422.291 326.387 421.891 325.56C421.491 324.72 421.291 323.773 421.291 322.72C421.291 321.653 421.491 320.713 421.891 319.9C422.291 319.073 422.851 318.427 423.571 317.96C424.291 317.48 425.124 317.24 426.071 317.24C426.898 317.24 427.604 317.407 428.191 317.74C428.791 318.073 429.264 318.54 429.611 319.14V313.6H431.291V328H429.771L429.631 326.32C429.431 326.653 429.164 326.967 428.831 327.26C428.511 327.553 428.118 327.793 427.651 327.98C427.198 328.153 426.664 328.24 426.051 328.24ZM426.271 326.78C426.938 326.78 427.518 326.62 428.011 326.3C428.504 325.967 428.884 325.5 429.151 324.9C429.418 324.287 429.551 323.567 429.551 322.74C429.551 321.913 429.418 321.2 429.151 320.6C428.884 319.987 428.504 319.52 428.011 319.2C427.518 318.867 426.938 318.7 426.271 318.7C425.644 318.7 425.084 318.867 424.591 319.2C424.098 319.52 423.711 319.987 423.431 320.6C423.151 321.2 423.011 321.913 423.011 322.74C423.011 323.567 423.151 324.287 423.431 324.9C423.711 325.5 424.098 325.967 424.591 326.3C425.084 326.62 425.644 326.78 426.271 326.78ZM129.023 354V340H130.703V354H129.023ZM120.083 354V340H121.763V354H120.083ZM121.443 347.56V346.18H129.443V347.56H121.443ZM138.014 354.24C137.081 354.24 136.254 354.013 135.534 353.56C134.814 353.107 134.248 352.467 133.834 351.64C133.434 350.813 133.234 349.847 133.234 348.74C133.234 347.633 133.434 346.667 133.834 345.84C134.248 345.013 134.814 344.373 135.534 343.92C136.268 343.467 137.108 343.24 138.054 343.24C139.068 343.24 139.914 343.467 140.594 343.92C141.274 344.373 141.788 344.98 142.134 345.74C142.481 346.5 142.654 347.333 142.654 348.24C142.654 348.373 142.654 348.507 142.654 348.64C142.654 348.773 142.648 348.933 142.634 349.12H134.494V347.82H141.014C140.988 346.793 140.688 346.013 140.114 345.48C139.554 344.933 138.854 344.66 138.014 344.66C137.454 344.66 136.934 344.8 136.454 345.08C135.988 345.347 135.608 345.747 135.314 346.28C135.021 346.813 134.874 347.48 134.874 348.28V348.84C134.874 349.72 135.021 350.46 135.314 351.06C135.608 351.647 135.988 352.087 136.454 352.38C136.934 352.673 137.454 352.82 138.014 352.82C138.761 352.82 139.348 352.68 139.774 352.4C140.201 352.107 140.514 351.693 140.714 351.16H142.374C142.214 351.747 141.934 352.273 141.534 352.74C141.148 353.207 140.654 353.573 140.054 353.84C139.468 354.107 138.788 354.24 138.014 354.24ZM148.263 354.24C147.463 354.24 146.796 354.093 146.263 353.8C145.729 353.493 145.329 353.093 145.063 352.6C144.796 352.093 144.663 351.553 144.663 350.98C144.663 350.287 144.836 349.7 145.183 349.22C145.543 348.727 146.043 348.353 146.683 348.1C147.323 347.847 148.069 347.72 148.923 347.72H151.543C151.543 347.04 151.463 346.473 151.303 346.02C151.143 345.567 150.883 345.227 150.523 345C150.163 344.773 149.683 344.66 149.083 344.66C148.483 344.66 147.969 344.813 147.543 345.12C147.116 345.413 146.849 345.853 146.743 346.44H145.023C145.103 345.747 145.336 345.167 145.723 344.7C146.109 344.22 146.596 343.86 147.183 343.62C147.783 343.367 148.416 343.24 149.083 343.24C150.029 343.24 150.809 343.413 151.423 343.76C152.036 344.093 152.489 344.567 152.783 345.18C153.076 345.78 153.223 346.493 153.223 347.32V354H151.723L151.623 352.2C151.489 352.48 151.316 352.747 151.103 353C150.903 353.24 150.663 353.453 150.383 353.64C150.103 353.827 149.783 353.973 149.423 354.08C149.076 354.187 148.689 354.24 148.263 354.24ZM148.503 352.82C148.943 352.82 149.349 352.72 149.723 352.52C150.096 352.32 150.416 352.053 150.683 351.72C150.963 351.373 151.176 350.987 151.323 350.56C151.469 350.133 151.543 349.687 151.543 349.22V349.02H149.063C148.436 349.02 147.923 349.1 147.523 349.26C147.136 349.42 146.856 349.647 146.683 349.94C146.509 350.22 146.423 350.54 146.423 350.9C146.423 351.287 146.503 351.627 146.663 351.92C146.823 352.2 147.056 352.42 147.363 352.58C147.683 352.74 148.063 352.82 148.503 352.82ZM155.998 354V343.48H157.518L157.638 345.4C157.878 344.92 158.191 344.52 158.578 344.2C158.965 343.88 159.431 343.64 159.978 343.48C160.538 343.32 161.165 343.24 161.858 343.24V345H160.818C160.418 345 160.031 345.053 159.658 345.16C159.285 345.267 158.945 345.44 158.638 345.68C158.345 345.92 158.111 346.247 157.938 346.66C157.765 347.073 157.678 347.593 157.678 348.22V354H155.998ZM167.871 354C167.271 354 166.751 353.907 166.311 353.72C165.871 353.533 165.531 353.22 165.291 352.78C165.064 352.327 164.951 351.72 164.951 350.96V344.9H163.111V343.48H164.951L165.171 340.86H166.631V343.48H169.611V344.9H166.631V350.96C166.631 351.587 166.758 352.013 167.011 352.24C167.264 352.453 167.711 352.56 168.351 352.56H169.571V354H167.871ZM177.407 354V340H182.327C183.314 340 184.127 340.16 184.767 340.48C185.421 340.787 185.907 341.213 186.227 341.76C186.547 342.293 186.707 342.893 186.707 343.56C186.707 344.28 186.547 344.88 186.227 345.36C185.921 345.84 185.514 346.207 185.007 346.46C184.514 346.713 183.987 346.867 183.427 346.92L183.707 346.72C184.307 346.733 184.861 346.893 185.367 347.2C185.874 347.507 186.274 347.92 186.567 348.44C186.874 348.96 187.027 349.54 187.027 350.18C187.027 350.887 186.854 351.533 186.507 352.12C186.161 352.693 185.647 353.153 184.967 353.5C184.301 353.833 183.474 354 182.487 354H177.407ZM179.087 352.6H182.307C183.254 352.6 183.987 352.38 184.507 351.94C185.041 351.487 185.307 350.86 185.307 350.06C185.307 349.273 185.034 348.647 184.487 348.18C183.954 347.7 183.214 347.46 182.267 347.46H179.087V352.6ZM179.087 346.12H182.207C183.114 346.12 183.801 345.907 184.267 345.48C184.747 345.053 184.987 344.473 184.987 343.74C184.987 343.033 184.747 342.467 184.267 342.04C183.801 341.613 183.094 341.4 182.147 341.4H179.087V346.12ZM193.776 354.24C192.843 354.24 192.016 354.013 191.296 353.56C190.576 353.107 190.009 352.467 189.596 351.64C189.196 350.813 188.996 349.847 188.996 348.74C188.996 347.633 189.196 346.667 189.596 345.84C190.009 345.013 190.576 344.373 191.296 343.92C192.029 343.467 192.869 343.24 193.816 343.24C194.829 343.24 195.676 343.467 196.356 343.92C197.036 344.373 197.549 344.98 197.896 345.74C198.243 346.5 198.416 347.333 198.416 348.24C198.416 348.373 198.416 348.507 198.416 348.64C198.416 348.773 198.409 348.933 198.396 349.12H190.256V347.82H196.776C196.749 346.793 196.449 346.013 195.876 345.48C195.316 344.933 194.616 344.66 193.776 344.66C193.216 344.66 192.696 344.8 192.216 345.08C191.749 345.347 191.369 345.747 191.076 346.28C190.783 346.813 190.636 347.48 190.636 348.28V348.84C190.636 349.72 190.783 350.46 191.076 351.06C191.369 351.647 191.749 352.087 192.216 352.38C192.696 352.673 193.216 352.82 193.776 352.82C194.523 352.82 195.109 352.68 195.536 352.4C195.963 352.107 196.276 351.693 196.476 351.16H198.136C197.976 351.747 197.696 352.273 197.296 352.74C196.909 353.207 196.416 353.573 195.816 353.84C195.229 354.107 194.549 354.24 193.776 354.24ZM204.024 354.24C203.224 354.24 202.558 354.093 202.024 353.8C201.491 353.493 201.091 353.093 200.824 352.6C200.558 352.093 200.424 351.553 200.424 350.98C200.424 350.287 200.598 349.7 200.944 349.22C201.304 348.727 201.804 348.353 202.444 348.1C203.084 347.847 203.831 347.72 204.684 347.72H207.304C207.304 347.04 207.224 346.473 207.064 346.02C206.904 345.567 206.644 345.227 206.284 345C205.924 344.773 205.444 344.66 204.844 344.66C204.244 344.66 203.731 344.813 203.304 345.12C202.878 345.413 202.611 345.853 202.504 346.44H200.784C200.864 345.747 201.098 345.167 201.484 344.7C201.871 344.22 202.358 343.86 202.944 343.62C203.544 343.367 204.178 343.24 204.844 343.24C205.791 343.24 206.571 343.413 207.184 343.76C207.798 344.093 208.251 344.567 208.544 345.18C208.838 345.78 208.984 346.493 208.984 347.32V354H207.484L207.384 352.2C207.251 352.48 207.078 352.747 206.864 353C206.664 353.24 206.424 353.453 206.144 353.64C205.864 353.827 205.544 353.973 205.184 354.08C204.838 354.187 204.451 354.24 204.024 354.24ZM204.264 352.82C204.704 352.82 205.111 352.72 205.484 352.52C205.858 352.32 206.178 352.053 206.444 351.72C206.724 351.373 206.938 350.987 207.084 350.56C207.231 350.133 207.304 349.687 207.304 349.22V349.02H204.824C204.198 349.02 203.684 349.1 203.284 349.26C202.898 349.42 202.618 349.647 202.444 349.94C202.271 350.22 202.184 350.54 202.184 350.9C202.184 351.287 202.264 351.627 202.424 351.92C202.584 352.2 202.818 352.42 203.124 352.58C203.444 352.74 203.824 352.82 204.264 352.82ZM215.566 354C214.966 354 214.446 353.907 214.006 353.72C213.566 353.533 213.226 353.22 212.986 352.78C212.76 352.327 212.646 351.72 212.646 350.96V344.9H210.806V343.48H212.646L212.866 340.86H214.326V343.48H217.306V344.9H214.326V350.96C214.326 351.587 214.453 352.013 214.706 352.24C214.96 352.453 215.406 352.56 216.046 352.56H217.266V354H215.566ZM223.411 354.24C222.465 354.24 221.678 354.1 221.051 353.82C220.438 353.527 219.971 353.127 219.651 352.62C219.331 352.1 219.138 351.5 219.071 350.82H220.791C220.845 351.18 220.965 351.513 221.151 351.82C221.351 352.113 221.638 352.353 222.011 352.54C222.385 352.727 222.858 352.82 223.431 352.82C223.885 352.82 224.271 352.753 224.591 352.62C224.911 352.473 225.151 352.273 225.311 352.02C225.485 351.767 225.571 351.473 225.571 351.14C225.571 350.7 225.471 350.36 225.271 350.12C225.085 349.867 224.805 349.68 224.431 349.56C224.071 349.427 223.618 349.327 223.071 349.26C222.485 349.18 221.965 349.067 221.511 348.92C221.058 348.773 220.671 348.58 220.351 348.34C220.045 348.1 219.811 347.8 219.651 347.44C219.491 347.08 219.411 346.653 219.411 346.16C219.411 345.587 219.565 345.08 219.871 344.64C220.178 344.2 220.611 343.86 221.171 343.62C221.745 343.367 222.418 343.24 223.191 343.24C224.325 343.24 225.218 343.5 225.871 344.02C226.538 344.54 226.931 345.28 227.051 346.24H225.391C225.325 345.747 225.098 345.36 224.711 345.08C224.325 344.8 223.811 344.66 223.171 344.66C222.491 344.66 221.978 344.787 221.631 345.04C221.285 345.293 221.111 345.627 221.111 346.04C221.111 346.347 221.185 346.627 221.331 346.88C221.491 347.12 221.758 347.327 222.131 347.5C222.505 347.66 223.005 347.78 223.631 347.86C224.418 347.953 225.085 348.107 225.631 348.32C226.178 348.52 226.591 348.833 226.871 349.26C227.165 349.687 227.305 350.267 227.291 351C227.291 351.693 227.125 352.28 226.791 352.76C226.471 353.24 226.018 353.607 225.431 353.86C224.858 354.113 224.185 354.24 223.411 354.24ZM235.818 354V342.36C235.818 341.72 235.925 341.2 236.138 340.8C236.352 340.387 236.665 340.087 237.078 339.9C237.505 339.7 238.025 339.6 238.638 339.6H240.178V341.04H238.918C238.412 341.04 238.045 341.147 237.818 341.36C237.605 341.56 237.498 341.913 237.498 342.42V354H235.818ZM234.178 344.9V343.48H240.298V344.9H234.178ZM246.514 354.24C245.541 354.24 244.681 354.013 243.934 353.56C243.188 353.107 242.608 352.467 242.194 351.64C241.781 350.813 241.574 349.847 241.574 348.74C241.574 347.62 241.781 346.653 242.194 345.84C242.621 345.013 243.208 344.373 243.954 343.92C244.714 343.467 245.581 343.24 246.554 343.24C247.541 343.24 248.401 343.467 249.134 343.92C249.881 344.373 250.461 345.013 250.874 345.84C251.288 346.653 251.494 347.62 251.494 348.74C251.494 349.847 251.281 350.813 250.854 351.64C250.441 352.467 249.861 353.107 249.114 353.56C248.368 354.013 247.501 354.24 246.514 354.24ZM246.514 352.8C247.128 352.8 247.681 352.653 248.174 352.36C248.668 352.053 249.054 351.6 249.334 351C249.628 350.387 249.774 349.633 249.774 348.74C249.774 347.833 249.634 347.08 249.354 346.48C249.074 345.88 248.688 345.433 248.194 345.14C247.714 344.833 247.168 344.68 246.554 344.68C245.954 344.68 245.408 344.833 244.914 345.14C244.421 345.433 244.028 345.88 243.734 346.48C243.441 347.08 243.294 347.833 243.294 348.74C243.294 349.633 243.434 350.387 243.714 351C244.008 351.6 244.394 352.053 244.874 352.36C245.368 352.653 245.914 352.8 246.514 352.8ZM253.928 354V343.48H255.448L255.568 345.4C255.808 344.92 256.121 344.52 256.508 344.2C256.894 343.88 257.361 343.64 257.908 343.48C258.468 343.32 259.094 343.24 259.788 343.24V345H258.748C258.348 345 257.961 345.053 257.588 345.16C257.214 345.267 256.874 345.44 256.568 345.68C256.274 345.92 256.041 346.247 255.868 346.66C255.694 347.073 255.608 347.593 255.608 348.22V354H253.928ZM273.132 354.24C271.852 354.24 270.725 353.94 269.752 353.34C268.779 352.727 268.019 351.88 267.472 350.8C266.925 349.707 266.652 348.44 266.652 347C266.652 345.573 266.925 344.32 267.472 343.24C268.019 342.147 268.779 341.293 269.752 340.68C270.725 340.067 271.852 339.76 273.132 339.76C274.439 339.76 275.579 340.067 276.552 340.68C277.525 341.293 278.279 342.147 278.812 343.24C279.345 344.32 279.612 345.573 279.612 347C279.612 348.44 279.345 349.707 278.812 350.8C278.279 351.88 277.525 352.727 276.552 353.34C275.579 353.94 274.439 354.24 273.132 354.24ZM273.132 352.76C274.092 352.76 274.925 352.533 275.632 352.08C276.352 351.613 276.905 350.953 277.292 350.1C277.692 349.233 277.892 348.2 277.892 347C277.892 345.8 277.692 344.773 277.292 343.92C276.905 343.053 276.352 342.393 275.632 341.94C274.925 341.487 274.092 341.26 273.132 341.26C272.185 341.26 271.352 341.487 270.632 341.94C269.925 342.393 269.372 343.053 268.972 343.92C268.572 344.773 268.372 345.8 268.372 347C268.372 348.2 268.572 349.233 268.972 350.1C269.372 350.953 269.925 351.613 270.632 352.08C271.352 352.533 272.185 352.76 273.132 352.76ZM282.134 354V340H290.654V341.38H283.814V346.3H289.634V347.66H283.814V354H282.134ZM290.569 354L295.729 340H297.509L302.649 354H300.849L296.609 342.1L292.329 354H290.569ZM292.929 350.4L293.409 349.04H299.749L300.229 350.4H292.929ZM316.061 354.24C314.741 354.24 313.594 353.94 312.621 353.34C311.661 352.727 310.914 351.88 310.381 350.8C309.861 349.707 309.601 348.44 309.601 347C309.601 345.56 309.861 344.3 310.381 343.22C310.914 342.127 311.661 341.28 312.621 340.68C313.594 340.067 314.741 339.76 316.061 339.76C317.648 339.76 318.934 340.14 319.921 340.9C320.908 341.66 321.541 342.733 321.821 344.12H320.001C319.774 343.253 319.334 342.56 318.681 342.04C318.041 341.507 317.168 341.24 316.061 341.24C315.101 341.24 314.261 341.473 313.541 341.94C312.834 342.393 312.288 343.053 311.901 343.92C311.514 344.773 311.321 345.8 311.321 347C311.321 348.2 311.514 349.233 311.901 350.1C312.288 350.953 312.834 351.613 313.541 352.08C314.261 352.533 315.101 352.76 316.061 352.76C317.168 352.76 318.041 352.507 318.681 352C319.334 351.48 319.774 350.793 320.001 349.94H321.821C321.541 351.287 320.908 352.34 319.921 353.1C318.934 353.86 317.648 354.24 316.061 354.24ZM328.741 354.24C327.767 354.24 326.907 354.013 326.161 353.56C325.414 353.107 324.834 352.467 324.421 351.64C324.007 350.813 323.801 349.847 323.801 348.74C323.801 347.62 324.007 346.653 324.421 345.84C324.847 345.013 325.434 344.373 326.181 343.92C326.941 343.467 327.807 343.24 328.781 343.24C329.767 343.24 330.627 343.467 331.361 343.92C332.107 344.373 332.687 345.013 333.101 345.84C333.514 346.653 333.721 347.62 333.721 348.74C333.721 349.847 333.507 350.813 333.081 351.64C332.667 352.467 332.087 353.107 331.341 353.56C330.594 354.013 329.727 354.24 328.741 354.24ZM328.741 352.8C329.354 352.8 329.907 352.653 330.401 352.36C330.894 352.053 331.281 351.6 331.561 351C331.854 350.387 332.001 349.633 332.001 348.74C332.001 347.833 331.861 347.08 331.581 346.48C331.301 345.88 330.914 345.433 330.421 345.14C329.941 344.833 329.394 344.68 328.781 344.68C328.181 344.68 327.634 344.833 327.141 345.14C326.647 345.433 326.254 345.88 325.961 346.48C325.667 347.08 325.521 347.833 325.521 348.74C325.521 349.633 325.661 350.387 325.941 351C326.234 351.6 326.621 352.053 327.101 352.36C327.594 352.653 328.141 352.8 328.741 352.8ZM336.314 354V343.48H337.994V354H336.314ZM337.154 341.48C336.821 341.48 336.541 341.373 336.314 341.16C336.101 340.933 335.994 340.653 335.994 340.32C335.994 339.987 336.101 339.72 336.314 339.52C336.541 339.307 336.821 339.2 337.154 339.2C337.474 339.2 337.748 339.307 337.974 339.52C338.201 339.72 338.314 339.987 338.314 340.32C338.314 340.653 338.201 340.933 337.974 341.16C337.748 341.373 337.474 341.48 337.154 341.48ZM340.979 354V343.48H342.499L342.579 345.14C342.885 344.54 343.325 344.073 343.899 343.74C344.485 343.407 345.159 343.24 345.919 343.24C346.692 343.24 347.365 343.387 347.939 343.68C348.512 343.973 348.959 344.42 349.279 345.02C349.599 345.62 349.759 346.38 349.759 347.3V354H348.079V347.48C348.079 346.547 347.845 345.847 347.379 345.38C346.925 344.913 346.312 344.68 345.539 344.68C345.019 344.68 344.539 344.807 344.099 345.06C343.659 345.3 343.305 345.66 343.039 346.14C342.785 346.62 342.659 347.207 342.659 347.9V354H340.979ZM356.341 354.24C355.394 354.24 354.608 354.1 353.981 353.82C353.368 353.527 352.901 353.127 352.581 352.62C352.261 352.1 352.068 351.5 352.001 350.82H353.721C353.774 351.18 353.894 351.513 354.081 351.82C354.281 352.113 354.568 352.353 354.941 352.54C355.314 352.727 355.788 352.82 356.361 352.82C356.814 352.82 357.201 352.753 357.521 352.62C357.841 352.473 358.081 352.273 358.241 352.02C358.414 351.767 358.501 351.473 358.501 351.14C358.501 350.7 358.401 350.36 358.201 350.12C358.014 349.867 357.734 349.68 357.361 349.56C357.001 349.427 356.548 349.327 356.001 349.26C355.414 349.18 354.894 349.067 354.441 348.92C353.988 348.773 353.601 348.58 353.281 348.34C352.974 348.1 352.741 347.8 352.581 347.44C352.421 347.08 352.341 346.653 352.341 346.16C352.341 345.587 352.494 345.08 352.801 344.64C353.108 344.2 353.541 343.86 354.101 343.62C354.674 343.367 355.348 343.24 356.121 343.24C357.254 343.24 358.148 343.5 358.801 344.02C359.468 344.54 359.861 345.28 359.981 346.24H358.321C358.254 345.747 358.028 345.36 357.641 345.08C357.254 344.8 356.741 344.66 356.101 344.66C355.421 344.66 354.908 344.787 354.561 345.04C354.214 345.293 354.041 345.627 354.041 346.04C354.041 346.347 354.114 346.627 354.261 346.88C354.421 347.12 354.688 347.327 355.061 347.5C355.434 347.66 355.934 347.78 356.561 347.86C357.348 347.953 358.014 348.107 358.561 348.32C359.108 348.52 359.521 348.833 359.801 349.26C360.094 349.687 360.234 350.267 360.221 351C360.221 351.693 360.054 352.28 359.721 352.76C359.401 353.24 358.948 353.607 358.361 353.86C357.788 354.113 357.114 354.24 356.341 354.24ZM363.377 354.1C363.057 354.1 362.784 353.993 362.557 353.78C362.344 353.553 362.237 353.28 362.237 352.96C362.237 352.64 362.344 352.373 362.557 352.16C362.784 351.933 363.057 351.82 363.377 351.82C363.724 351.82 363.997 351.933 364.197 352.16C364.41 352.373 364.517 352.64 364.517 352.96C364.517 353.28 364.41 353.553 364.197 353.78C363.997 353.993 363.724 354.1 363.377 354.1Z" fill="white"/>
<circle cx="310.5" cy="203.5" r="74" stroke="url(#paint0_linear_0_1)" stroke-width="3"/>
<circle cx="174.5" cy="203.5" r="74" stroke="url(#paint1_linear_0_1)" stroke-width="3"/>
<mask id="mask0_0_1" style="mask-type:luminance" maskUnits="userSpaceOnUse" x="133" y="166" width="84" height="84">
<path d="M215.5 248.5V167.5H134.5V248.5H215.5Z" fill="white" stroke="white" stroke-width="3"/>
</mask>
<g mask="url(#mask0_0_1)">
<path d="M199.236 173.759C190.675 170.707 181.38 172.833 175 178.684C168.256 172.499 158.254 170.476 149.306 174.332C137.151 179.569 131.124 193.857 136.781 205.822C145.273 223.784 175 243.63 175 243.63" stroke="url(#paint2_linear_0_1)" stroke-width="3" stroke-miterlimit="10" stroke-linecap="round" stroke-linejoin="round"/>
<path d="M175 243.63C175 243.63 204.727 223.784 213.219 205.822C216.917 198 215.622 189.185 210.885 182.555" stroke="url(#paint3_linear_0_1)" stroke-width="3" stroke-miterlimit="10" stroke-linecap="round" stroke-linejoin="round"/>
<path d="M134.641 209.938H159.641L163.274 201.933L168.691 212.976L173.646 190.098L178.358 225.903L184.524 204.628L189.104 209.938H215.359" stroke="url(#paint4_linear_0_1)" stroke-width="3" stroke-miterlimit="10" stroke-linecap="round" stroke-linejoin="round"/>
</g>
<path d="M259.099 212.684L259.1 212.686C260.495 215.8 262.56 218.564 265.148 220.779L265.154 220.785L265.16 220.79C267.114 222.522 269.376 223.868 271.827 224.756L271.831 224.758C274.312 225.669 276.935 226.132 279.577 226.125L279.584 226.125C282.957 226.138 286.293 225.412 289.358 223.999L289.366 223.996L289.366 223.996C292.413 222.62 295.077 220.513 297.121 217.858L297.134 217.841L297.148 217.824C298.869 215.779 300.205 213.435 301.091 210.909L301.092 210.906C301.984 208.392 302.439 205.743 302.437 203.074L302.437 203.069C302.456 199.003 301.402 195.005 299.382 191.481L299.364 191.448L299.347 191.414C299.287 191.288 299.192 191.182 299.073 191.109C298.957 191.037 298.823 191 298.687 191.002C298.52 191.01 298.358 191.062 298.217 191.152L296.296 192.487L296.293 192.489L296.23 192.533C295.309 193.168 294.631 193.636 294.23 193.879C294.129 193.962 294.045 194.066 293.984 194.184C293.919 194.311 293.883 194.451 293.879 194.594C293.883 194.902 293.956 195.206 294.092 195.483C295.274 197.808 295.886 200.382 295.875 202.992M259.099 212.684L294.875 202.988M259.099 212.684C256.608 207.157 256.323 200.88 258.304 195.148L258.305 195.147M259.099 212.684L258.305 195.147M295.875 202.992L294.875 202.988M295.875 202.992C295.875 202.992 295.875 202.992 295.875 202.992L294.875 202.988M295.875 202.992C295.868 204.891 295.54 206.776 294.905 208.565M294.875 202.988C294.869 204.776 294.56 206.549 293.962 208.233M294.905 208.565C294.906 208.564 294.906 208.563 294.907 208.562L293.962 208.233M294.905 208.565C294.271 210.39 293.306 212.083 292.06 213.557M294.905 208.565C294.905 208.566 294.905 208.567 294.904 208.568L293.962 208.233M293.962 208.233L292.06 213.557M292.06 213.557C292.064 213.552 292.067 213.548 292.071 213.543L291.285 212.924L292.048 213.571C292.052 213.566 292.056 213.562 292.06 213.557ZM292.06 213.557C290.584 215.427 288.685 216.918 286.52 217.905M292.06 213.557L279.729 218.404L279.728 219.404C282.074 219.406 284.392 218.895 286.52 217.905M286.52 217.905C286.521 217.905 286.522 217.904 286.524 217.904L286.102 216.997L286.516 217.907C286.518 217.906 286.519 217.906 286.52 217.905ZM258.305 195.147C259.174 192.62 260.503 190.278 262.224 188.238L262.232 188.229M258.305 195.147L262.232 188.229M262.232 188.229L262.239 188.219M262.232 188.229L262.239 188.219M262.239 188.219C264.219 185.75 266.707 183.74 269.533 182.326C272.284 180.954 275.286 180.163 278.353 180.001H278.454H278.47M262.239 188.219L278.47 180.001M278.47 180.001L278.486 180M278.47 180.001L278.486 180M278.486 180C278.507 179.999 278.528 180.003 278.548 180.012C278.567 180.02 278.585 180.033 278.599 180.049L278.604 180.055M278.486 180L278.604 180.055M278.604 180.055L278.609 180.06M278.604 180.055L278.609 180.06M278.609 180.06C278.707 180.167 278.771 180.301 278.792 180.445M278.609 180.06L278.792 180.445M278.792 180.445V186.186C278.792 186.31 278.775 186.383 278.762 186.421C278.75 186.454 278.739 186.466 278.734 186.472C278.723 186.483 278.63 186.567 278.301 186.598C276.168 186.787 274.096 187.405 272.207 188.416C270.303 189.42 268.633 190.817 267.306 192.514L278.792 180.445ZM264.988 209.904C264.989 209.905 264.99 209.907 264.99 209.908L265.899 209.491L264.986 209.899C264.987 209.9 264.987 209.902 264.988 209.904Z" stroke="url(#paint5_linear_0_1)" stroke-width="2"/>
<path d="M308.895 225.322L308.924 225.354C308.938 225.369 308.955 225.38 308.973 225.388C308.99 225.396 309.009 225.4 309.028 225.4H315.588H315.6L315.612 225.4C315.64 225.401 315.668 225.396 315.695 225.385C315.721 225.374 315.745 225.358 315.766 225.337L315.788 225.315L315.812 225.293C315.827 225.28 315.84 225.263 315.848 225.244C315.856 225.227 315.861 225.208 315.862 225.189V209.149C315.852 208.848 315.906 208.548 316.021 208.27C316.139 207.984 316.318 207.728 316.545 207.52C316.956 207.138 317.497 206.929 318.058 206.935H324.765H324.774V206.935C324.807 206.935 324.84 206.929 324.871 206.917C324.897 206.906 324.922 206.89 324.944 206.871C324.992 206.815 325.019 206.743 325.018 206.668L325.018 206.656H325.018V200.407C325.015 200.353 324.992 200.304 324.954 200.267L324.953 200.266C324.929 200.242 324.901 200.224 324.871 200.211L325.247 199.285L324.871 200.211C324.84 200.199 324.807 200.192 324.774 200.193L324.765 200.193L309.023 200.193H309.013L309.004 200.193C308.987 200.192 308.97 200.195 308.955 200.202M308.895 225.322L324.765 199.193H309.023C308.869 199.19 308.716 199.219 308.574 199.277C308.431 199.336 308.302 199.423 308.195 199.534C308.071 199.638 307.972 199.768 307.905 199.916M308.895 225.322L308.863 225.293C308.847 225.28 308.835 225.263 308.826 225.244C308.818 225.227 308.814 225.208 308.812 225.189M308.895 225.322L308.812 225.189M308.955 200.202L308.595 199.328L308.955 200.202C308.955 200.202 308.955 200.202 308.955 200.202ZM308.955 200.202C308.939 200.208 308.924 200.218 308.912 200.231L308.876 200.268L308.836 200.302C308.828 200.308 308.822 200.316 308.818 200.325L307.905 199.916M307.905 199.916C307.839 200.064 307.807 200.225 307.812 200.387L308.812 225.183C308.812 225.185 308.812 225.187 308.812 225.189M307.905 199.916L308.818 200.325C308.814 200.335 308.812 200.345 308.812 200.356L308.812 200.371V200.387V225.189M293.547 186.72L293.522 186.696C293.508 186.682 293.496 186.665 293.487 186.646L292.57 187.044L293.487 186.646C293.479 186.627 293.475 186.607 293.475 186.587V180.922C293.475 180.847 293.504 180.775 293.554 180.72C293.59 180.685 293.636 180.665 293.685 180.662H330.926C330.975 180.665 331.021 180.685 331.057 180.72C331.107 180.775 331.136 180.847 331.136 180.922V186.591V186.601L331.136 186.611C331.137 186.629 331.133 186.647 331.127 186.664C331.12 186.681 331.11 186.696 331.097 186.708L331.069 186.736L331.043 186.765C331.037 186.773 331.029 186.778 331.02 186.782L331.413 187.702L331.02 186.782C331.012 186.785 331.003 186.787 330.995 186.787L330.971 186.785H330.947L293.664 186.785L293.662 186.785C293.645 186.785 293.629 186.782 293.613 186.775C293.597 186.768 293.583 186.758 293.571 186.745L293.547 186.72Z" stroke="url(#paint6_linear_0_1)" stroke-width="2"/>
<path d="M358.18 225.384L358.147 225.358L358.113 225.336C358.058 225.3 358.017 225.248 357.994 225.185L354.666 212.801L354.659 212.777L354.652 212.753C354.461 212.162 354.087 211.646 353.583 211.283C353.093 210.891 352.483 210.676 351.854 210.674H351.852H341.825H341.808L341.791 210.675C341.786 210.675 341.78 210.674 341.776 210.672C341.771 210.67 341.767 210.668 341.763 210.664V205.533H341.763L341.763 205.522C341.763 205.521 341.763 205.521 341.763 205.52L341.764 205.519L341.801 205.483L341.813 205.467H341.825H349.776C350.102 205.476 350.427 205.412 350.726 205.278C351.03 205.143 351.299 204.94 351.513 204.684C351.749 204.404 351.905 204.065 351.964 203.703C352.02 203.361 351.987 203.011 351.869 202.687L348.164 189.129L348.162 189.12L348.159 189.11C347.989 188.532 347.631 188.026 347.141 187.675C346.643 187.285 346.03 187.072 345.397 187.07H345.394H344.948V187.07L344.935 187.071C344.33 187.078 343.748 187.293 343.283 187.676C342.782 188.021 342.416 188.528 342.246 189.113L342.243 189.121L342.241 189.129L339.81 198.019C339.802 198.036 339.792 198.05 339.779 198.061C339.775 198.062 339.772 198.062 339.768 198.063C339.758 198.063 339.747 198.062 339.737 198.059L339.7 198.047L339.663 198.038L333.418 196.502L333.409 196.5L333.41 196.499L333.422 196.457L337.594 181.108C337.63 181.022 337.69 180.948 337.766 180.895L337.814 180.861L337.858 180.822C337.915 180.772 337.985 180.741 338.058 180.733H352.283C352.393 180.744 352.499 180.783 352.59 180.847L352.641 180.883L352.696 180.913C352.746 180.94 352.787 180.985 352.81 181.039L364.947 225.472H358.426C358.337 225.469 358.251 225.439 358.18 225.384ZM365.249 225.469C365.249 225.469 365.248 225.469 365.246 225.469C365.248 225.469 365.249 225.468 365.249 225.469ZM341.76 210.666L341.76 210.666L341.744 210.672L341.725 210.68L341.722 210.681L340.86 211.046L341.722 210.681L341.725 210.68L341.744 210.672L341.76 210.666Z" stroke="url(#paint7_linear_0_1)" stroke-width="2"/>
<defs>
<filter id="filter0_b_0_1" x="-39" y="-39" width="563" height="563" filterUnits="userSpaceOnUse" color-interpolation-filters="sRGB">
<feFlood flood-opacity="0" result="BackgroundImageFix"/>
<feGaussianBlur in="BackgroundImageFix" stdDeviation="19.5"/>
<feComposite in2="SourceAlpha" operator="in" result="effect1_backgroundBlur_0_1"/>
<feBlend mode="normal" in="SourceGraphic" in2="effect1_backgroundBlur_0_1" result="shape"/>
</filter>
<linearGradient id="paint0_linear_0_1" x1="240.507" y1="245.444" x2="388.945" y2="226.132" gradientUnits="userSpaceOnUse">
<stop stop-color="#45F5A9"/>
<stop offset="1" stop-color="#00ECFD"/>
</linearGradient>
<linearGradient id="paint1_linear_0_1" x1="104.507" y1="245.444" x2="252.945" y2="226.132" gradientUnits="userSpaceOnUse">
<stop stop-color="#45F5A9"/>
<stop offset="1" stop-color="#00ECFD"/>
</linearGradient>
<linearGradient id="paint2_linear_0_1" x1="136.996" y1="188.205" x2="200.685" y2="195.717" gradientUnits="userSpaceOnUse">
<stop stop-color="#45F5A9"/>
<stop offset="1" stop-color="#00ECFD"/>
</linearGradient>
<linearGradient id="paint3_linear_0_1" x1="176.472" y1="196.127" x2="216.522" y2="199.57" gradientUnits="userSpaceOnUse">
<stop stop-color="#45F5A9"/>
<stop offset="1" stop-color="#00ECFD"/>
</linearGradient>
<linearGradient id="paint4_linear_0_1" x1="137.584" y1="198.055" x2="211.884" y2="219.848" gradientUnits="userSpaceOnUse">
<stop stop-color="#45F5A9"/>
<stop offset="1" stop-color="#00ECFD"/>
</linearGradient>
<linearGradient id="paint5_linear_0_1" x1="257.73" y1="216.431" x2="304.384" y2="210.448" gradientUnits="userSpaceOnUse">
<stop stop-color="#45F5A9"/>
<stop offset="1" stop-color="#00ECFD"/>
</linearGradient>
<linearGradient id="paint6_linear_0_1" x1="293.921" y1="216.014" x2="333.092" y2="211.689" gradientUnits="userSpaceOnUse">
<stop stop-color="#45F5A9"/>
<stop offset="1" stop-color="#00ECFD"/>
</linearGradient>
<linearGradient id="paint7_linear_0_1" x1="333.625" y1="216.086" x2="366.923" y2="212.971" gradientUnits="userSpaceOnUse">
<stop stop-color="#45F5A9"/>
<stop offset="1" stop-color="#00ECFD"/>
</linearGradient>
</defs>
</svg>
